<svg width="680" height="575" viewBox="0 0 680 575" xmlns="http://www.w3.org/2000/svg" role="img">
<title>Пронумерованная карта проекта RH — уровень 0</title>
<desc>Адресное дерево: 1 Гипотеза Римана; 2 доказанная цепь; 3 стена G3a с 3.1 хвост и 3.2 горб; 4 альфа-Gate с 4.1; 5 замороженный Q3.</desc>
<defs><marker id="ar" viewBox="0 0 10 10" refX="8" refY="5" markerWidth="6" markerHeight="6" orient="auto-start-reverse"><path d="M2 1L8 5L2 9" fill="none" stroke="#888780" stroke-width="1.5" stroke-linecap="round" stroke-linejoin="round"/></marker>
<style>text{font-family:ui-sans-serif,-apple-system,'Helvetica Neue',Arial,sans-serif}.h{font-size:14px;font-weight:500}.s{font-size:12px;font-weight:400}.b{font-size:13px;font-weight:500;fill:#444441}</style></defs>
<rect x="0" y="0" width="680" height="575" fill="#FAF9F5"/>

<rect x="210" y="40" width="260" height="44" rx="8" fill="#F1EFE8" stroke="#5F5E5A" stroke-width="0.5"/>
<text class="h" x="340" y="62" text-anchor="middle" dominant-baseline="central" fill="#444441">Гипотеза Римана</text>
<rect x="204" y="30" width="22" height="20" rx="10" fill="#FFFFFF" stroke="#B4B2A9" stroke-width="0.5"/>
<text class="b" x="215" y="40" text-anchor="middle" dominant-baseline="central">1</text>
<line x1="340" y1="84" x2="340" y2="106" stroke="#888780" stroke-width="1.5" marker-end="url(#ar)"/>

<rect x="40" y="110" width="600" height="305" rx="16" fill="none" stroke="#B4B2A9" stroke-width="0.7" stroke-dasharray="6 4"/>
<text class="h" x="340" y="132" text-anchor="middle" dominant-baseline="central" fill="#444441">Маршрут B (Конн) — активная программа</text>

<rect x="90" y="155" width="500" height="56" rx="8" fill="#EAF3DE" stroke="#3B6D11" stroke-width="0.5"/>
<text class="h" x="340" y="173" text-anchor="middle" dominant-baseline="central" fill="#27500A">Цепь доказана пером</text>
<text class="s" x="340" y="193" text-anchor="middle" dominant-baseline="central" fill="#3B6D11">α-детектор ⟺ RH при одной лемме G3a</text>
<rect x="84" y="145" width="22" height="20" rx="10" fill="#FFFFFF" stroke="#B4B2A9" stroke-width="0.5"/>
<text class="b" x="95" y="155" text-anchor="middle" dominant-baseline="central">2</text>

<line x1="200" y1="215" x2="200" y2="251" stroke="#888780" stroke-width="1.5" marker-end="url(#ar)"/>
<line x1="480" y1="215" x2="480" y2="251" stroke="#888780" stroke-width="1.5" marker-end="url(#ar)"/>

<rect x="65" y="255" width="340" height="130" rx="12" fill="none" stroke="#B4B2A9" stroke-width="0.7" stroke-dasharray="6 4"/>
<text class="h" x="235" y="277" text-anchor="middle" dominant-baseline="central" fill="#444441">Стена 1: G3a — высота догадки</text>
<rect x="59" y="245" width="22" height="20" rx="10" fill="#FFFFFF" stroke="#B4B2A9" stroke-width="0.5"/>
<text class="b" x="70" y="255" text-anchor="middle" dominant-baseline="central">3</text>

<rect x="85" y="297" width="140" height="56" rx="8" fill="#FAEEDA" stroke="#854F0B" stroke-width="0.5"/>
<text class="h" x="155" y="315" text-anchor="middle" dominant-baseline="central" fill="#633806">Хвост γ &gt; 2c</text>
<text class="s" x="155" y="335" text-anchor="middle" dominant-baseline="central" fill="#854F0B">почти закрыт</text>
<rect x="79" y="287" width="34" height="20" rx="10" fill="#FFFFFF" stroke="#B4B2A9" stroke-width="0.5"/>
<text class="b" x="96" y="297" text-anchor="middle" dominant-baseline="central">3.1</text>

<rect x="248" y="297" width="140" height="56" rx="8" fill="#FCEBEB" stroke="#A32D2D" stroke-width="0.5"/>
<text class="h" x="318" y="315" text-anchor="middle" dominant-baseline="central" fill="#791F1F">Горб γ ≤ 2c</text>
<text class="s" x="318" y="335" text-anchor="middle" dominant-baseline="central" fill="#A32D2D">открыт (Конн §6)</text>
<rect x="242" y="287" width="34" height="20" rx="10" fill="#FFFFFF" stroke="#B4B2A9" stroke-width="0.5"/>
<text class="b" x="259" y="297" text-anchor="middle" dominant-baseline="central">3.2</text>

<text class="s" x="155" y="372" text-anchor="middle" dominant-baseline="central" fill="#854F0B">ты здесь: кроссовер ✓</text>

<rect x="420" y="255" width="200" height="130" rx="12" fill="none" stroke="#B4B2A9" stroke-width="0.7" stroke-dasharray="6 4"/>
<text class="h" x="520" y="277" text-anchor="middle" dominant-baseline="central" fill="#444441">Стена 2: α-Gate (сейф)</text>
<rect x="414" y="245" width="22" height="20" rx="10" fill="#FFFFFF" stroke="#B4B2A9" stroke-width="0.5"/>
<text class="b" x="425" y="255" text-anchor="middle" dominant-baseline="central">4</text>

<rect x="435" y="297" width="170" height="56" rx="8" fill="#FCEBEB" stroke="#A32D2D" stroke-width="0.5"/>
<text class="h" x="520" y="315" text-anchor="middle" dominant-baseline="central" fill="#791F1F">α → 0 ?</text>
<text class="s" x="520" y="335" text-anchor="middle" dominant-baseline="central" fill="#A32D2D">мерить, не доказать</text>
<rect x="429" y="287" width="34" height="20" rx="10" fill="#FFFFFF" stroke="#B4B2A9" stroke-width="0.5"/>
<text class="b" x="446" y="297" text-anchor="middle" dominant-baseline="central">4.1</text>

<rect x="140" y="445" width="400" height="56" rx="8" fill="#F1EFE8" stroke="#5F5E5A" stroke-width="0.5"/>
<text class="h" x="340" y="463" text-anchor="middle" dominant-baseline="central" fill="#444441">Q3 Lean mainline — параллельная программа</text>
<text class="s" x="340" y="483" text-anchor="middle" dominant-baseline="central" fill="#5F5E5A">68 аксиом, 2 ложных звена, заморожен</text>
<rect x="134" y="435" width="22" height="20" rx="10" fill="#FFFFFF" stroke="#B4B2A9" stroke-width="0.5"/>
<text class="b" x="145" y="445" text-anchor="middle" dominant-baseline="central">5</text>

<rect x="60" y="518" width="12" height="12" rx="3" fill="#EAF3DE" stroke="#3B6D11" stroke-width="0.5"/>
<text class="s" x="78" y="525" dominant-baseline="central" fill="#5F5E5A">доказано</text>
<rect x="200" y="518" width="12" height="12" rx="3" fill="#FAEEDA" stroke="#854F0B" stroke-width="0.5"/>
<text class="s" x="218" y="525" dominant-baseline="central" fill="#5F5E5A">почти закрыто</text>
<rect x="360" y="518" width="12" height="12" rx="3" fill="#FCEBEB" stroke="#A32D2D" stroke-width="0.5"/>
<text class="s" x="378" y="525" dominant-baseline="central" fill="#5F5E5A">открыто</text>
<rect x="490" y="518" width="12" height="12" rx="3" fill="#F1EFE8" stroke="#5F5E5A" stroke-width="0.5"/>
<text class="s" x="508" y="525" dominant-baseline="central" fill="#5F5E5A">заморожено</text>
</svg>
