<svg width="900" height="900" xmlns="http://www.w3.org/2000/svg">
<style>

    .path0 {
        stroke-dasharray: 20215;
        stroke-dashoffset: 20215;
        animation: draw0 6s ease-in-out 0.0s forwards;
    }
    @keyframes draw0 {
        to { stroke-dashoffset: 0; }
    }


    .path1 {
        stroke-dasharray: 8086;
        stroke-dashoffset: 8086;
        animation: draw1 6s ease-in-out 0.5s forwards;
    }
    @keyframes draw1 {
        to { stroke-dashoffset: 0; }
    }


    .start-point {
        animation: pulse 1s ease-in-out infinite;
    }
    @keyframes pulse {
        0%, 100% { r: 5; opacity: 1; }
        50% { r: 8; opacity: 0.7; }
    }

    .glow {
        filter: drop-shadow(0 0 3px currentColor);
    }

</style>
<rect width="100%" height="100%" fill="#0d1117"/>
<text x="20" y="30" font-family="monospace" font-size="18" fill="#58a6ff">🌀 MINOR ARC: Chaos (α=√2)</text>
<rect x="20" y="55" width="30" height="3" fill="#39d353" class="glow" style="color:#39d353"/>
<text x="60" y="60" font-family="monospace" font-size="12" fill="#8b949e">All primes (500)</text>
<rect x="20" y="80" width="30" height="3" fill="#f85149" class="glow" style="color:#f85149"/>
<text x="60" y="85" font-family="monospace" font-size="12" fill="#8b949e">Twin primes (200)</text>
<g stroke="#21262d" stroke-width="0.5">
<line x1="60.0" y1="60" x2="60.0" y2="840"/>
<line x1="60" y1="60.0" x2="840" y2="60.0"/>
<line x1="146.66666666666669" y1="60" x2="146.66666666666669" y2="840"/>
<line x1="60" y1="146.66666666666669" x2="840" y2="146.66666666666669"/>
<line x1="233.33333333333334" y1="60" x2="233.33333333333334" y2="840"/>
<line x1="60" y1="233.33333333333334" x2="840" y2="233.33333333333334"/>
<line x1="320.0" y1="60" x2="320.0" y2="840"/>
<line x1="60" y1="320.0" x2="840" y2="320.0"/>
<line x1="406.6666666666667" y1="60" x2="406.6666666666667" y2="840"/>
<line x1="60" y1="406.6666666666667" x2="840" y2="406.6666666666667"/>
<line x1="493.3333333333333" y1="60" x2="493.3333333333333" y2="840"/>
<line x1="60" y1="493.3333333333333" x2="840" y2="493.3333333333333"/>
<line x1="580.0" y1="60" x2="580.0" y2="840"/>
<line x1="60" y1="580.0" x2="840" y2="580.0"/>
<line x1="666.6666666666666" y1="60" x2="666.6666666666666" y2="840"/>
<line x1="60" y1="666.6666666666666" x2="840" y2="666.6666666666666"/>
<line x1="753.3333333333334" y1="60" x2="753.3333333333334" y2="840"/>
<line x1="60" y1="753.3333333333334" x2="840" y2="753.3333333333334"/>
<line x1="840.0" y1="60" x2="840.0" y2="840"/>
<line x1="60" y1="840.0" x2="840" y2="840.0"/>
</g>
<path class="path0 glow" style="color:#39d353" d="M 456.06 566.68 L 467.12 545.47 L 468.19 569.52 L 489.26 579.92 L 508.12 565.71 L 486.21 557.36 L 468.71 573.31 L 491.27 579.53 L 507.27 561.99 L 484.24 557.94 L 507.53 559.78 L 520.13 539.50 L 509.40 560.89 L 532.63 558.29 L 541.39 535.97 L 518.50 540.77 L 540.86 533.81 L 519.22 542.87 L 516.72 566.81 L 517.06 542.74 L 497.40 555.74 L 499.22 579.74 L 495.26 556.02 L 478.26 572.53 L 493.71 554.47 L 503.82 576.17 L 515.79 555.49 L 503.77 534.85 L 493.71 556.58 L 507.53 575.99 L 515.60 553.40 L 497.15 538.63 L 495.39 562.63 L 494.99 538.56 L 474.22 527.54 L 469.53 503.96 L 447.15 497.06 L 470.06 501.80 L 446.83 499.26 L 457.61 520.62 L 444.96 500.38 L 459.37 519.33 L 482.38 515.21 L 499.92 531.11 L 521.81 522.70 L 502.92 508.54 L 481.88 519.00 L 463.06 533.26 L 447.11 550.85 L 470.15 554.84 L 484.45 535.81 L 461.16 534.03 L 484.51 533.58 L 495.18 512.16 L 518.06 507.30 L 495.71 514.32 L 517.33 505.20 L 496.62 516.34 L 496.35 540.41 L 494.46 516.41 L 476.10 531.29 L 480.12 555.00 L 464.72 573.10 L 476.79 593.71 L 486.79 571.96 L 472.93 552.58 L 464.92 575.20 L 483.40 589.92 L 463.68 577.02 L 461.06 553.10 L 439.37 544.16 L 444.12 567.73 L 437.28 544.71 L 460.51 547.19 L 437.15 546.94 L 460.43 544.96 L 445.98 526.05 L 462.07 543.51 L 440.20 551.98 L 459.13 566.08 L 439.15 578.55 L 417.19 570.33 L 399.78 586.37 L 376.73 582.45 L 362.48 601.52 L 374.96 581.17 L 351.61 581.69 L 374.82 578.95 L 368.21 602.05 L 390.54 594.96 L 395.04 571.34 L 373.45 580.52 L 353.86 593.63 L 349.77 569.93 L 332.86 586.54 L 324.61 564.01 L 310.95 583.54 L 322.80 562.80 L 330.75 540.16 L 315.16 522.23 L 334.92 535.07 L 314.10 524.17 L 309.28 500.61 L 316.19 523.61 L 307.25 501.37 L 284.01 498.96 L 307.37 499.14 L 321.87 518.01 L 305.74 500.61 L 323.36 516.40 L 345.21 507.87 L 324.22 518.45 L 344.17 505.92 L 323.02 495.70 L 304.28 510.07 L 288.42 527.75 L 265.12 526.10 L 252.68 546.48 L 276.04 545.91 L 252.84 548.71 L 275.69 543.71 L 282.23 520.60 L 284.53 496.64 L 263.88 507.90 L 283.43 494.73 L 287.59 518.42 L 272.28 536.60 L 261.99 514.99 L 271.88 493.18 L 287.52 511.06 L 270.34 494.74 L 288.91 509.36 L 290.47 485.34 L 311.33 496.18 L 289.59 487.37 L 294.47 510.91 L 271.53 506.37 L 280.52 528.58 L 303.79 526.48 L 319.97 543.84 L 338.98 557.84 L 359.94 547.21 L 381.11 557.37 L 399.82 542.95 L 377.82 534.85 L 360.49 550.99 L 337.42 547.19 L 326.92 568.70 L 350.12 565.84 L 358.64 543.42 L 335.80 548.48 L 333.56 572.45 L 354.18 561.13 L 354.27 537.06 L 334.75 550.29 L 326.38 527.81 L 312.82 547.41 L 300.59 526.91 L 308.42 504.22 L 325.64 520.49 L 329.28 496.72 L 327.78 520.74 L 327.13 496.68 L 304.67 490.03 L 311.70 512.99 L 302.65 490.80 L 313.65 512.03 L 290.39 514.20 L 313.36 509.83 L 335.16 501.17 L 316.12 487.23 L 336.32 499.30 L 356.21 486.66 L 378.22 494.70 L 395.51 478.51 L 379.75 496.28 L 356.44 494.76 L 344.11 515.21 L 320.93 518.14 L 312.46 540.58 L 318.88 517.43 L 318.86 541.51 L 338.34 528.23 L 336.21 504.25 L 318.00 519.33 L 334.78 502.59 L 319.57 520.86 L 309.17 499.30 L 321.45 519.78 L 307.38 500.56 L 308.82 476.53 L 288.96 463.86 L 286.09 439.97 L 308.56 446.55 L 317.67 468.72 L 306.61 447.51 L 319.52 467.57 L 296.57 472.01 L 274.79 480.72 L 293.87 494.62 L 273.63 482.60 L 294.86 492.64 L 313.48 478.11 L 296.24 494.35 L 282.19 513.58 L 258.84 514.36 L 281.09 507.02 L 285.34 483.35 L 263.84 492.77 L 284.40 481.34 L 284.36 457.27 L 286.56 481.24 L 304.73 466.11 L 300.39 442.45 L 283.66 459.25 L 270.20 478.92 L 280.66 500.45 L 268.32 480.01 L 267.53 455.95 L 270.47 479.83 L 265.41 456.33 L 288.38 460.69 L 265.13 462.98 L 248.81 445.76 L 227.94 456.57 L 248.21 468.53 L 268.03 455.78 L 246.77 445.80 L 268.83 453.71 L 253.16 471.57 L 276.26 475.17 L 290.26 455.90 L 278.04 476.42 L 269.70 498.90 L 247.47 506.30 L 243.28 529.98 L 264.75 520.50 L 266.80 496.52 L 246.27 508.01 L 265.68 494.62 L 282.37 477.77 L 295.78 458.06 L 308.17 478.46 L 324.00 496.17 L 306.65 480.04 L 303.19 503.85 L 304.51 479.82 L 325.47 490.43 L 322.47 466.55 L 344.98 473.01 L 337.77 450.11 L 314.41 450.25 L 327.43 470.24 L 312.67 451.58 L 289.74 456.14 L 306.10 473.32 L 288.27 457.78 L 266.54 466.61 L 287.38 455.74 L 308.67 465.67 L 294.72 484.97 L 306.88 464.42 L 283.54 465.33 L 273.27 486.95 L 271.28 510.94 L 291.78 499.39 L 291.61 475.32 L 309.70 460.09 L 324.76 441.69 L 316.16 419.31 L 327.68 398.37 L 341.90 417.46 L 326.03 399.80 L 343.42 415.88 L 324.67 401.53 L 346.52 410.04 L 324.00 403.64 L 331.27 426.52 L 354.26 430.74 L 377.62 430.54 L 392.42 449.16 L 410.30 464.66 L 389.48 475.58 L 411.58 483.37 L 425.49 464.03 L 413.38 484.61 L 436.72 483.64 L 446.93 461.99 L 423.78 465.18 L 415.55 487.71 L 393.36 495.23 L 372.89 506.83 L 392.23 493.33 L 374.18 508.62 L 387.48 488.82 L 376.85 467.39 L 369.32 490.17 L 385.24 507.79 L 386.22 531.85 L 383.09 507.99 L 405.63 514.32 L 382.62 510.16 L 391.97 532.22 L 415.25 534.17 L 403.97 513.09 L 427.20 510.60 L 404.29 515.29 L 386.37 499.85 L 364.69 508.80 L 344.33 497.01 L 327.25 513.44 L 304.13 510.04 L 327.46 511.23 L 350.60 507.98 L 358.77 485.42 L 336.02 490.86 L 329.91 514.10 L 308.51 523.76 L 289.20 537.31 L 291.66 561.26 L 306.62 542.77 L 297.90 520.44 L 308.59 541.85 L 320.00 520.84 L 307.44 500.54 L 314.91 477.73 L 332.38 493.71 L 311.33 483.27 L 288.04 481.39 L 299.38 502.44 L 286.21 482.56 L 309.10 477.80 L 289.85 464.17 L 269.09 475.22 L 289.49 486.95 L 271.05 501.74 L 294.19 505.08 L 307.98 485.65 L 284.65 484.53 L 294.75 462.82 L 286.64 485.39 L 292.69 462.14 L 270.54 469.79 L 250.13 481.50 L 250.49 505.58 L 235.58 524.10 L 248.77 504.24 L 238.03 482.86 L 250.64 503.12 L 260.06 481.09 L 252.65 503.92 L 271.52 518.12 L 251.46 505.78 L 252.56 529.83 L 273.64 540.20 L 251.72 531.88 L 257.10 555.31 L 249.65 532.49 L 238.25 511.47 L 251.48 531.32 L 236.53 512.82 L 214.90 521.90 L 234.19 535.47 L 213.76 523.79 L 191.60 516.19 L 207.03 498.12 L 193.29 517.58 L 216.62 518.64 L 220.50 494.90 L 223.08 518.82 L 206.61 535.90 L 197.77 513.61 L 184.63 533.52 L 195.93 512.45 L 183.27 492.22 L 197.69 511.16 L 196.70 535.21 L 200.01 559.04 L 221.95 567.30 L 212.43 545.32 L 235.79 544.85 L 222.50 525.04 L 205.91 508.10 L 185.22 519.25 L 163.80 509.63 L 145.45 524.52 L 167.63 532.07 L 152.25 550.18 L 165.94 530.68 L 154.05 551.40 L 177.38 550.17 L 187.36 528.40 L 164.25 531.85 L 186.96 526.22 L 183.14 549.97 L 204.46 540.12 L 206.13 516.11 L 206.62 540.18 L 188.73 555.66 L 193.50 579.23 L 178.69 597.84 L 167.83 576.52 L 156.59 597.62 L 172.69 615.06 L 169.61 638.92 L 170.84 662.97 L 191.97 673.22 L 170.01 665.02 L 175.51 688.42 L 198.11 694.50 L 186.60 673.54 L 163.74 678.50 L 180.38 695.40 L 162.30 680.15 L 182.97 668.94 L 163.39 682.07 L 184.83 691.63 L 161.67 688.49 L 173.51 667.73 L 196.62 664.22 L 173.92 669.92 L 196.01 662.08 L 194.40 686.10 L 175.24 699.87 L 158.86 717.04 L 169.77 738.32 L 180.96 717.19 L 171.71 739.30 L 178.94 716.40 L 162.79 699.01 L 166.23 722.82 L 188.21 730.96 L 195.84 753.72 L 172.54 752.09 L 184.10 773.01 L 206.95 767.99 L 190.27 751.14 L 211.83 741.88 L 231.37 728.69 L 213.09 743.68 L 197.81 761.88 L 220.97 764.96 L 197.63 764.10 L 203.43 740.78 L 224.70 730.82 L 226.24 706.80 L 208.44 722.38 L 221.26 742.50 L 230.45 720.37 L 215.88 701.56 L 198.20 685.82 L 217.21 699.81 L 218.02 675.75 L 214.51 651.94 L 220.14 675.31 L 197.06 671.54 L 206.76 693.44 L 183.41 694.11 L 165.25 678.96 L 143.72 688.29 L 163.15 701.64 L 183.76 690.31 L 202.00 675.26 L 178.68 676.69 L 168.87 698.54 L 176.68 675.85 L 170.94 699.19 L 174.56 675.40 L 153.33 685.43 L 173.58 673.43 L 172.90 649.36 L 167.94 625.84 L 151.65 643.10 L 138.72 663.14 L 149.74 684.37 L 140.61 706.53 L 155.23 725.30 L 158.13 701.41 L 139.07 687.49 L 142.64 711.28 L 136.96 687.93 L 160.31 687.19 L 143.54 670.43 L 165.05 661.05 L 145.58 647.75 L 125.00 659.14 L 145.58 670.53 L 165.05 657.23 L 188.23 660.18 L 176.57 681.03 L 168.82 703.74 L 174.50 680.39 L 195.71 670.31 L 197.13 646.28 L 176.91 658.34 L 195.96 644.41 L 193.07 620.52 L 198.09 644.03 L 183.47 662.81 L 192.60 684.96 L 205.53 705.01" stroke="#39d353" fill="none" stroke-width="2" stroke-linecap="round" stroke-linejoin="round"/>
<path class="path1 glow" style="color:#f85149" d="M 456.06 566.68 L 457.14 590.73 L 478.21 601.13 L 497.07 586.92 L 475.16 578.57 L 457.66 594.52 L 480.22 600.74 L 496.22 583.20 L 519.51 585.04 L 532.10 564.77 L 555.32 562.16 L 564.08 539.85 L 542.44 548.90 L 539.95 572.84 L 520.29 585.85 L 522.11 609.85 L 534.07 589.17 L 522.06 568.53 L 512.00 590.25 L 525.81 609.67 L 525.41 585.59 L 504.64 574.57 L 499.95 550.99 L 477.57 544.09 L 491.98 563.04 L 514.99 558.93 L 532.54 574.82 L 554.42 566.42 L 535.53 552.26 L 514.49 562.71 L 537.53 566.70 L 551.83 547.67 L 575.19 547.22 L 585.86 525.80 L 565.15 536.94 L 564.87 561.01 L 546.50 575.89 L 550.53 599.60 L 560.53 577.84 L 546.66 558.47 L 544.04 534.55 L 522.35 525.61 L 500.40 517.39 L 482.98 533.43 L 459.94 529.51 L 445.68 548.58 L 468.00 541.49 L 472.51 517.87 L 480.46 495.24 L 464.87 477.31 L 455.93 455.07 L 432.69 452.66 L 450.31 468.46 L 472.16 459.93 L 451.01 449.71 L 432.27 464.08 L 408.96 462.43 L 396.53 482.81 L 419.38 477.82 L 425.92 454.71 L 444.92 468.71 L 465.88 458.07 L 487.06 468.23 L 505.76 453.81 L 483.76 445.71 L 466.43 461.85 L 489.63 458.99 L 498.15 436.57 L 518.77 425.26 L 518.85 401.19 L 539.06 413.26 L 558.95 400.63 L 580.96 408.66 L 598.25 392.47 L 574.94 390.96 L 562.62 411.41 L 539.43 414.34 L 530.96 436.78 L 550.45 423.50 L 548.31 399.52 L 549.75 375.49 L 529.89 362.82 L 551.12 372.86 L 569.75 358.33 L 592.00 351.00 L 596.25 327.33 L 616.81 315.90 L 616.77 291.82 L 634.94 276.69 L 630.60 253.04 L 617.14 272.72 L 627.60 294.25 L 647.88 306.21 L 667.69 293.46 L 690.79 297.06 L 704.79 277.79 L 682.56 285.19 L 678.37 308.87 L 699.84 299.39 L 701.89 275.41 L 687.14 256.74 L 664.20 261.31 L 646.37 245.76 L 624.64 254.60 L 601.30 255.50 L 591.03 277.13 L 611.53 265.58 L 611.36 241.51 L 626.42 223.11 L 617.82 200.73 L 625.09 223.61 L 648.09 227.83 L 671.43 226.86 L 681.64 205.21 L 658.48 208.39 L 650.26 230.93 L 663.55 211.13 L 652.93 189.70 L 645.40 212.49 L 661.32 230.10 L 670.66 252.17 L 693.94 254.12 L 676.03 238.67 L 654.35 247.63 L 677.49 244.37 L 685.66 221.82 L 662.91 227.26 L 656.79 250.50 L 637.49 264.05 L 639.94 287.99 L 654.91 269.50 L 646.18 247.17 L 657.60 226.17 L 645.04 205.87 L 625.78 192.24 L 605.02 203.29 L 628.16 206.62 L 641.95 187.20 L 621.55 198.91 L 621.91 222.98 L 635.10 203.12 L 624.36 181.74 L 625.46 205.79 L 646.54 216.16 L 657.84 195.09 L 645.18 174.87 L 648.49 198.70 L 670.43 206.96 L 649.02 197.34 L 630.66 212.23 L 653.99 211.00 L 663.97 189.23 L 685.29 179.39 L 686.96 155.38 L 669.07 170.86 L 673.85 194.43 L 675.08 218.47 L 696.21 228.72 L 701.71 252.12 L 724.31 258.20 L 731.54 235.31 L 715.39 217.91 L 718.83 241.73 L 740.81 249.87 L 762.08 239.90 L 763.62 215.88 L 772.81 193.75 L 758.24 174.94 L 740.08 159.79 L 718.54 169.11 L 737.98 182.46 L 758.59 171.13 L 735.27 172.56 L 725.46 194.41 L 745.71 182.41 L 745.03 158.35 L 732.10 178.40 L 743.13 199.62 L 734.00 221.78 L 748.62 240.55 L 751.51 216.67 L 732.46 202.74 L 712.99 189.44 L 692.41 200.83 L 712.99 212.22 L 732.46 198.92 L 753.67 188.84 L 755.09 164.81 L 774.14 150.88 L 771.25 126.99 L 756.62 145.76 L 765.76 167.92 L 758.71 190.87 L 775.00 208.13 L 754.39 196.80 L 734.95 210.15 L 722.13 230.28 L 733.27 251.44 L 727.46 228.12 L 704.78 222.36 L 720.07 240.56" stroke="#f85149" fill="none" stroke-width="2" stroke-linecap="round" stroke-linejoin="round"/>
<circle class="start-point" cx="456.0644598447911" cy="566.6845904476211" r="5" fill="#f85149"/>
<text x="466.0644598447911" y="556.6845904476211" font-family="monospace" font-size="10" fill="#f85149">START</text>

    <circle cx="205.5310011402545" cy="705.0136296644215" r="4" fill="#39d353" opacity="0">
        <animate attributeName="opacity" from="0" to="1" begin="6.0s" dur="0.5s" fill="freeze"/>
    </circle>


    <circle cx="720.0682754606216" cy="240.56097348251032" r="4" fill="#f85149" opacity="0">
        <animate attributeName="opacity" from="0" to="1" begin="6.5s" dur="0.5s" fill="freeze"/>
    </circle>

</svg>