<svg width="900" height="900" xmlns="http://www.w3.org/2000/svg">
<style>
    .main-path {
        stroke-dasharray: 26346;
        stroke-dashoffset: 26346;
        animation: draw 10s ease-out forwards;
    }
    @keyframes draw {
        to { stroke-dashoffset: 0; }
    }
    .pulse {
        animation: pulse 1s ease-in-out infinite;
    }
    @keyframes pulse {
        0%, 100% { r: 5; opacity: 1; }
        50% { r: 8; opacity: 0.7; }
    }
    </style>
<rect width="100%" height="100%" fill="#0d1117"/>
<text x="20" y="30" font-family="monospace" font-size="16" fill="#f85149">🔬 p·ln(p) Phase Walk — The Anomaly</text>
<text x="20" y="50" font-family="monospace" font-size="12" fill="#8b949e">β = -0.16: |S| DECREASES as N grows!</text>
<g stroke="#21262d" stroke-width="0.5">
<line x1="60.0" y1="60" x2="60.0" y2="840"/>
<line x1="60" y1="60.0" x2="840" y2="60.0"/>
<line x1="146.66666666666669" y1="60" x2="146.66666666666669" y2="840"/>
<line x1="60" y1="146.66666666666669" x2="840" y2="146.66666666666669"/>
<line x1="233.33333333333334" y1="60" x2="233.33333333333334" y2="840"/>
<line x1="60" y1="233.33333333333334" x2="840" y2="233.33333333333334"/>
<line x1="320.0" y1="60" x2="320.0" y2="840"/>
<line x1="60" y1="320.0" x2="840" y2="320.0"/>
<line x1="406.6666666666667" y1="60" x2="406.6666666666667" y2="840"/>
<line x1="60" y1="406.6666666666667" x2="840" y2="406.6666666666667"/>
<line x1="493.3333333333333" y1="60" x2="493.3333333333333" y2="840"/>
<line x1="60" y1="493.3333333333333" x2="840" y2="493.3333333333333"/>
<line x1="580.0" y1="60" x2="580.0" y2="840"/>
<line x1="60" y1="580.0" x2="840" y2="580.0"/>
<line x1="666.6666666666666" y1="60" x2="666.6666666666666" y2="840"/>
<line x1="60" y1="666.6666666666666" x2="840" y2="666.6666666666666"/>
<line x1="753.3333333333334" y1="60" x2="753.3333333333334" y2="840"/>
<line x1="60" y1="753.3333333333334" x2="840" y2="753.3333333333334"/>
<line x1="840.0" y1="60" x2="840.0" y2="840"/>
<line x1="60" y1="840.0" x2="840" y2="840.0"/>
</g>
<path class="main-path" d="M 652.9 177.6 L 643.0 169.0 L 639.2 156.4 L 651.8 152.5 L 642.3 161.6 L 632.9 152.4 L 625.5 141.5 L 632.2 130.1 L 644.6 134.7 L 654.4 125.9 L 646.8 136.6 L 634.2 132.8 L 623.7 140.8 L 623.2 127.7 L 621.7 140.7 L 634.4 144.3 L 622.6 138.3 L 610.8 144.3 L 611.9 157.4 L 609.0 170.2 L 601.3 180.9 L 605.1 168.3 L 610.2 156.2 L 611.4 169.3 L 598.2 168.4 L 598.0 181.5 L 607.2 172.1 L 597.7 162.9 L 610.9 163.5 L 602.7 153.2 L 607.2 140.8 L 610.3 128.0 L 602.6 138.7 L 615.4 135.6 L 625.7 143.9 L 614.5 150.8 L 604.3 159.2 L 610.7 170.7 L 608.1 157.8 L 604.4 170.4 L 591.3 172.0 L 578.6 175.5 L 590.5 181.2 L 595.8 169.2 L 591.6 181.7 L 595.0 194.4 L 586.1 184.7 L 586.8 171.5 L 590.8 184.1 L 578.0 181.1 L 572.2 169.2 L 583.2 162.1 L 592.5 171.4 L 599.3 182.7 L 609.4 191.2 L 619.4 182.6 L 606.3 180.7 L 619.4 182.5 L 625.4 170.8 L 633.4 181.3 L 623.9 172.2 L 616.9 183.4 L 613.6 170.6 L 621.9 160.4 L 633.6 154.3 L 621.4 159.3 L 609.5 165.0 L 596.4 165.1 L 587.5 155.4 L 584.6 168.3 L 573.1 162.0 L 581.7 171.9 L 591.7 163.4 L 590.2 150.3 L 590.1 163.4 L 584.1 151.8 L 594.8 144.2 L 601.4 155.6 L 591.9 164.8 L 580.3 171.1 L 570.1 179.4 L 579.0 189.1 L 591.5 193.3 L 578.4 192.7 L 569.3 202.3 L 580.2 194.9 L 567.6 190.9 L 580.1 186.6 L 593.1 188.2 L 580.0 187.9 L 581.4 201.0 L 574.7 189.7 L 575.1 176.5 L 569.8 188.6 L 557.2 184.9 L 568.3 177.8 L 581.0 181.3 L 575.7 169.2 L 576.1 156.1 L 577.0 169.2 L 576.1 182.4 L 563.3 185.1 L 556.8 196.6 L 548.2 206.6 L 541.7 218.0 L 533.4 207.8 L 520.3 205.8 L 528.8 195.7 L 517.2 189.3 L 518.2 202.5 L 505.8 207.0 L 518.8 208.9 L 506.1 205.4 L 514.3 195.0 L 527.4 195.3 L 527.4 182.1 L 531.6 194.6 L 530.1 207.7 L 519.8 215.9 L 506.9 213.5 L 496.9 204.9 L 487.8 195.3 L 476.9 187.9 L 464.1 184.9 L 453.3 192.4 L 461.3 202.8 L 456.6 190.5 L 458.6 203.5 L 445.5 202.1 L 453.2 191.4 L 449.8 204.1 L 444.5 192.1 L 444.3 205.2 L 438.4 217.0 L 426.5 211.2 L 439.2 214.8 L 450.9 208.8 L 444.3 220.2 L 454.7 228.2 L 446.4 238.5 L 457.1 246.1 L 453.4 233.5 L 446.4 222.3 L 447.5 235.5 L 438.1 244.7 L 450.3 239.7 L 444.3 228.0 L 439.6 240.3 L 435.3 252.7 L 438.9 240.0 L 439.9 226.9 L 453.1 227.2 L 463.1 218.7 L 457.2 230.4 L 462.7 242.4 L 466.7 255.0 L 479.3 251.0 L 468.6 258.7 L 478.6 267.3 L 467.7 274.7 L 480.7 276.9 L 492.5 270.9 L 495.5 258.1 L 487.8 247.5 L 495.8 257.9 L 504.0 247.5 L 491.1 245.0 L 481.8 254.4 L 494.7 251.4 L 507.5 254.2 L 499.1 264.4 L 504.6 252.4 L 517.4 249.3 L 508.3 239.8 L 508.3 226.6 L 519.4 233.8 L 508.0 227.2 L 501.7 215.6 L 514.2 219.5 L 524.3 228.1 L 521.6 241.0 L 510.6 233.9 L 500.9 224.9 L 491.7 215.5 L 482.9 205.7 L 473.0 197.0 L 460.8 191.9 L 448.4 196.3 L 442.9 208.3 L 450.0 219.4 L 445.3 231.8 L 448.7 244.5 L 442.0 233.2 L 448.5 244.6 L 435.6 247.2 L 448.8 247.9 L 435.7 246.4 L 441.1 234.4 L 434.5 223.0 L 434.0 236.2 L 424.2 227.3 L 436.7 223.1 L 434.1 210.2 L 447.2 211.0 L 434.1 210.5 L 440.7 221.8 L 428.2 217.6 L 428.5 230.7 L 419.2 221.4 L 412.8 209.9 L 405.4 220.8 L 397.6 231.4 L 391.5 219.7 L 385.1 231.2 L 376.4 221.3 L 363.4 223.5 L 373.9 231.4 L 386.9 229.2 L 399.2 233.9 L 399.1 220.7 L 387.8 227.5 L 376.8 220.3 L 370.8 232.0 L 378.9 221.6 L 376.7 234.6 L 378.4 247.7 L 374.4 235.1 L 365.8 225.2 L 378.9 226.7 L 384.7 214.9 L 381.2 202.1 L 389.2 212.6 L 376.8 217.0 L 389.7 214.6 L 402.9 214.6 L 392.4 222.5 L 397.6 234.6 L 385.9 228.6 L 378.4 239.5 L 365.3 241.0 L 360.0 228.9 L 363.3 216.2 L 371.6 226.4 L 382.7 233.5 L 395.6 235.9 L 387.4 225.6 L 374.7 222.0 L 371.4 209.3 L 369.2 222.3 L 359.6 231.3 L 371.0 224.7 L 368.3 211.8 L 371.7 224.5 L 383.5 218.7 L 390.5 229.8 L 381.0 220.7 L 377.3 233.3 L 364.2 232.0 L 371.3 243.1 L 376.6 255.2 L 389.1 259.2 L 376.9 254.2 L 387.2 245.9 L 399.6 250.3 L 403.9 237.8 L 416.1 242.7 L 421.2 254.8 L 423.6 241.9 L 412.4 248.7 L 399.2 247.9 L 412.0 244.9 L 409.3 257.7 L 396.1 257.7 L 391.7 245.3 L 400.8 235.8 L 398.8 248.8 L 389.9 258.5 L 378.4 264.9 L 366.1 269.6 L 353.1 267.2 L 340.3 263.9 L 327.3 265.5 L 316.7 273.5 L 326.0 282.8 L 328.0 269.8 L 317.0 262.6 L 304.2 266.0 L 294.1 274.4 L 294.6 287.6 L 301.1 299.1 L 301.7 285.9 L 306.3 298.2 L 316.0 289.4 L 303.6 285.0 L 291.0 288.9 L 285.3 300.8 L 290.5 312.9 L 303.4 315.7 L 304.5 328.8 L 300.7 316.2 L 313.6 313.3 L 303.5 321.7 L 316.7 321.3 L 320.4 308.7 L 310.2 317.1 L 297.8 312.6 L 308.9 305.4 L 312.1 292.6 L 299.8 287.8 L 290.1 296.7 L 282.4 286.0 L 274.3 296.3 L 261.9 291.8 L 272.7 284.3 L 263.2 275.2 L 275.7 279.4 L 276.8 266.2 L 273.1 278.9 L 260.2 281.3 L 267.3 292.4 L 256.9 284.4 L 254.6 297.3 L 251.9 310.2 L 241.8 301.8 L 240.0 314.9 L 227.5 310.9 L 236.1 320.9 L 244.0 310.3 L 244.7 323.5 L 232.2 327.7 L 232.8 340.9 L 222.7 332.4 L 221.6 345.5 L 228.4 334.2 L 241.5 332.4 L 242.4 345.5 L 236.5 333.7 L 238.8 346.7 L 233.8 359.0 L 221.0 361.8 L 233.1 366.9 L 225.1 356.4 L 220.4 344.1 L 223.5 331.3 L 219.6 343.9 L 223.2 331.2 L 222.6 344.4 L 221.9 331.3 L 227.2 343.3 L 235.8 353.3 L 223.4 348.9 L 227.5 336.4 L 234.1 347.8 L 246.1 353.3 L 233.0 351.9 L 240.9 341.3 L 239.6 328.2 L 252.3 331.9 L 242.8 322.8 L 252.8 314.3 L 261.3 324.3 L 274.5 324.3 L 278.7 311.8 L 291.9 311.2 L 285.3 322.7 L 293.7 312.5 L 306.8 311.5 L 305.3 298.4 L 294.2 305.4 L 281.0 306.1 L 288.9 316.6 L 276.5 321.1 L 287.9 327.7 L 300.8 330.2 L 293.7 341.2 L 292.1 354.3 L 279.5 350.2 L 278.7 363.3 L 265.9 360.1 L 263.6 347.1 L 265.7 334.1 L 262.1 346.8 L 267.0 334.5 L 253.8 333.7 L 248.2 321.7 L 259.3 314.6 L 250.7 324.6 L 250.4 337.8 L 261.3 330.4 L 248.7 326.8 L 261.5 323.7 L 267.9 335.3 L 256.3 329.0 L 261.7 341.0 L 274.6 338.1 L 267.0 348.9 L 254.2 345.9 L 265.1 353.3 L 278.3 353.0 L 284.4 364.6 L 297.4 367.1 L 292.5 354.8 L 305.6 355.7 L 316.8 362.7 L 322.1 350.7 L 313.7 340.5 L 315.6 327.5 L 322.6 338.6 L 311.3 345.5 L 298.5 342.4 L 285.4 344.4 L 287.6 357.4 L 275.9 363.4 L 273.0 350.5 L 284.4 357.1 L 277.1 368.0 L 264.0 367.1 L 268.5 379.4 L 255.7 382.6 L 256.9 369.5 L 268.8 363.8 L 280.2 370.4 L 278.8 383.5 L 266.0 386.2 L 259.0 375.0 L 265.1 363.3 L 273.6 353.3 L 284.4 345.8 L 296.5 340.5 L 308.7 335.7 L 319.6 328.2 L 329.8 319.9 L 334.4 307.5 L 331.6 294.7 L 324.8 283.4 L 312.7 288.7 L 304.5 299.0 L 309.5 311.1 L 319.8 302.9 L 318.0 289.9 L 309.4 299.9 L 311.0 312.9 L 324.0 314.9 L 324.3 328.0 L 329.1 315.8 L 326.6 302.9 L 338.9 298.3 L 325.8 297.5 L 324.1 310.6 L 332.0 321.1 L 321.8 329.4 L 335.0 329.1 L 333.0 316.1 L 343.0 307.5 L 330.4 311.5 L 338.2 300.9 L 325.5 297.4 L 336.7 290.6 L 348.3 296.9 L 359.2 289.6 L 346.8 285.2 L 337.4 294.4 L 334.6 307.3 L 322.5 302.1 L 314.0 312.1 L 313.5 299.0 L 323.4 307.7 L 310.3 309.6 L 323.0 313.3 L 312.9 321.8 L 319.6 333.2 L 324.6 321.1 L 316.7 331.6 L 329.0 326.8 L 325.0 314.2 L 311.9 315.4 L 312.7 328.6 L 314.8 341.6 L 327.7 338.9 L 336.6 329.2 L 348.8 334.1 L 345.1 346.7 L 358.3 346.6 L 364.1 334.8 L 365.9 347.9 L 377.8 342.2 L 371.7 353.9 L 384.7 355.9 L 375.1 346.9 L 367.5 357.7 L 356.7 365.3 L 345.3 371.9 L 345.2 358.7 L 334.0 365.7 L 332.7 352.6 L 329.4 339.8 L 320.6 349.7 L 314.5 361.3 L 302.7 355.3 L 305.1 368.3 L 316.9 374.2 L 316.5 387.4 L 326.5 378.8 L 339.4 381.5 L 329.2 389.8 L 329.8 402.9 L 316.8 405.3 L 312.3 417.7 L 311.2 404.5 L 298.6 400.6 L 290.9 411.3 L 301.2 419.4 L 292.0 410.0 L 295.3 422.7 L 286.2 432.2 L 275.1 439.4 L 284.7 448.5 L 284.0 461.7 L 271.0 460.1 L 265.4 472.1 L 252.6 468.7 L 257.0 481.1 L 264.2 470.1 L 267.7 457.4 L 257.3 465.6 L 269.1 459.6 L 257.0 454.3 L 259.6 467.2 L 259.3 480.4 L 263.1 467.7 L 254.1 477.3 L 263.3 467.9 L 254.1 477.4 L 260.3 465.7 L 264.7 453.3 L 261.3 466.0 L 258.2 453.2 L 270.5 458.0 L 283.7 458.4 L 293.6 449.8 L 305.9 454.5 L 318.9 452.4 L 311.8 463.5 L 315.4 450.8 L 311.1 438.4 L 323.8 442.1 L 310.6 442.7 L 318.1 453.6 L 331.0 456.3 L 322.0 466.0 L 335.1 467.7 L 321.9 467.1 L 333.4 460.6 L 332.3 447.5 L 345.0 444.0 L 351.4 455.6 L 339.6 449.8 L 341.3 436.8 L 352.2 444.1 L 339.2 445.7 L 330.5 435.7 L 324.5 424.0 L 328.2 411.4 L 341.4 412.7 L 331.6 421.6 L 318.6 423.6 L 310.0 413.7 L 297.2 416.8 L 302.1 404.6 L 288.9 404.1 L 276.2 400.8 L 287.8 394.6 L 276.9 387.3 L 288.7 381.5 L 299.2 373.5 L 297.5 360.4 L 294.4 373.2 L 297.7 386.0 L 284.6 384.7 L 297.5 387.2 L 291.1 398.7 L 296.5 386.7 L 306.6 395.1 L 294.6 389.6 L 282.6 395.0 L 280.1 382.1 L 288.8 391.9 L 277.5 398.6 L 281.7 386.2 L 272.3 376.9 L 268.7 364.3 L 259.8 354.6 L 270.1 346.4 L 278.3 356.7 L 268.9 365.9 L 261.2 376.6 L 273.2 382.0 L 273.5 395.2 L 268.5 407.4 L 281.6 406.0 L 277.3 418.5 L 266.2 411.4 L 270.4 398.9 L 263.5 387.7 L 262.1 400.8 L 255.4 389.4 L 254.9 402.6 L 261.9 391.4 L 249.1 388.3 L 246.8 375.4 L 237.8 365.7 L 246.5 355.8 L 236.8 364.8 L 234.4 351.9 L 244.4 343.4 L 246.7 356.4 L 254.3 367.1 L 249.6 379.4 L 252.1 392.4 L 245.4 381.1 L 250.2 368.8 L 241.7 378.9 L 243.1 365.8 L 249.8 377.1 L 245.1 389.4 L 243.7 402.5 L 233.9 411.3 L 223.9 402.7 L 236.4 398.7 L 248.6 403.6 L 238.6 412.1 L 235.1 399.4 L 237.4 412.4 L 224.3 410.6 L 235.2 418.1 L 226.7 408.0 L 216.2 415.8 L 203.1 417.7 L 200.1 404.8 L 208.8 395.0 L 195.7 394.2 L 197.6 381.2 L 184.5 382.3 L 173.6 375.0 L 165.5 364.5 L 165.3 351.4 L 175.7 343.3 L 188.0 338.6 L 191.5 351.3 L 188.2 364.0 L 175.7 359.9 L 188.7 357.7 L 200.5 363.6 L 209.9 372.8 L 213.9 385.4 L 213.5 398.5 L 212.2 411.6 L 210.8 424.7 L 211.5 437.9 L 212.7 451.0 L 215.3 463.9 L 220.3 476.1 L 229.0 486.0 L 240.2 492.9 L 253.3 492.3 L 266.3 489.9 L 278.0 483.9 L 277.3 470.8 L 269.5 460.1 L 257.0 456.0 L 243.9 457.5 L 234.8 467.0 L 228.3 478.5 L 237.3 488.0 L 248.6 494.8 L 245.5 482.0 L 235.0 489.9 L 241.1 501.5 L 231.5 492.5 L 218.4 493.4 L 215.4 506.2 L 223.7 496.0 L 226.5 483.1 L 214.2 478.5 L 208.3 490.3 L 219.7 496.8 L 228.5 487.0 L 217.3 480.2 L 228.1 472.8 L 224.3 460.2 L 221.0 473.0 L 221.5 459.8 L 216.2 471.9 L 207.3 462.1 L 194.9 457.7 L 190.3 470.1 L 195.8 482.0 L 207.7 476.3 L 200.0 487.0 L 186.9 485.4 L 197.8 492.7 L 210.4 488.7 L 212.6 475.7 L 206.7 487.5 L 215.3 477.6 L 216.6 464.5 L 229.3 461.0 L 233.1 448.4 L 220.4 451.9 L 226.2 440.0 L 224.1 453.0 L 221.8 440.1 L 228.7 451.3 L 217.9 458.8 L 224.1 447.1 L 211.8 452.0 L 212.3 465.1 L 224.5 470.0 L 211.8 473.5 L 224.3 477.7 L 231.9 466.9 L 233.4 480.0 L 244.9 473.5 L 243.1 486.5 L 255.6 490.9 L 245.8 482.0 L 236.2 473.1 L 225.8 481.3 L 238.1 476.4 L 225.9 471.4 L 219.6 483.0 L 210.4 473.6 L 217.7 484.5 L 230.8 486.5 L 227.9 499.4 L 215.1 496.3 L 228.0 499.3 L 241.0 501.4 L 240.6 488.2 L 227.6 485.9 L 219.7 496.5 L 231.4 502.5 L 231.7 515.7 L 226.8 503.5 L 215.7 510.6 L 223.4 499.8 L 211.3 494.5 L 219.2 505.0 L 228.1 514.7 L 227.5 527.9 L 221.2 516.3 L 208.1 517.2 L 221.2 516.9 L 232.2 524.2 L 245.1 526.9 L 233.8 533.7 L 244.4 541.6 L 251.1 553.0 L 241.3 561.8 L 240.0 548.7 L 228.2 554.5 L 230.5 541.5 L 232.9 528.6 L 235.1 515.6 L 223.2 521.4 L 212.1 528.5 L 204.1 539.0 L 197.3 527.7 L 187.8 518.6 L 185.9 531.6 L 188.0 544.6 L 174.9 542.8 L 162.1 546.0 L 172.4 554.2 L 166.5 566.0 L 179.4 563.1 L 191.2 568.9 L 204.2 567.0 L 201.9 579.9 L 189.0 577.4 L 187.3 590.5 L 176.8 582.5 L 183.0 594.1 L 196.2 593.4 L 209.3 594.3 L 212.8 607.0 L 200.5 602.5 L 211.8 595.8 L 206.1 583.9 L 213.9 573.3 L 203.4 565.3 L 197.2 553.7 L 186.3 561.1 L 195.2 570.9 L 208.4 570.7 L 196.4 565.1 L 185.1 571.8 L 189.8 559.6 L 202.1 564.3 L 210.2 553.9 L 199.0 560.7 L 203.8 573.0 L 193.1 580.7 L 188.8 568.3 L 177.0 574.3 L 188.1 567.1 L 175.7 571.6 L 162.6 570.4 L 154.6 560.0 L 155.5 573.1 L 151.6 585.7 L 140.6 592.9 L 150.5 601.7 L 147.1 589.0 L 146.5 602.1 L 150.6 589.6 L 145.5 601.7 L 153.1 591.0 L 142.8 599.2 L 130.9 605.0 L 142.9 599.4 L 130.7 604.4 L 142.8 599.2 L 131.0 605.1 L 142.2 598.1 L 152.0 589.3 L 143.9 599.7 L 147.7 587.1 L 147.4 600.2 L 146.4 587.1 L 151.4 599.3 L 142.5 589.6 L 154.4 595.2 L 141.8 598.9 L 134.0 609.5 L 147.1 607.9 L 137.9 617.3 L 125.9 622.7 L 136.0 614.2 L 148.9 611.7 L 157.8 602.0 L 150.8 590.8 L 160.8 582.2 L 147.8 584.5 L 151.5 597.2 L 163.5 602.6 L 175.0 596.2 L 167.6 607.2 L 154.9 610.4 L 152.6 597.5 L 160.9 607.7 L 150.4 615.7 L 152.1 628.7 L 164.6 624.7 L 153.4 617.8 L 166.4 620.0 L 158.2 609.6 L 163.6 597.6 L 176.8 597.4 L 166.6 605.8 L 165.1 592.8 L 175.4 584.6 L 180.9 572.6 L 184.8 585.2 L 195.0 593.5 L 181.9 594.4 L 172.5 585.2 L 159.4 584.8 L 169.4 593.3 L 177.3 582.8 L 178.0 595.9 L 167.5 588.0 L 154.5 590.0 L 161.0 578.5 L 150.7 570.4 L 163.4 567.1 L 160.6 554.2 L 165.9 566.2 L 175.0 556.7 L 178.0 569.5 L 188.5 561.5 L 188.0 574.6 L 200.5 570.2 L 212.8 565.7 L 225.0 560.8 L 223.5 573.9 L 224.5 587.0 L 230.9 575.5 L 240.9 584.0 L 240.9 570.8 L 237.0 558.2 L 227.1 566.9 L 222.5 554.6 L 224.8 567.6 L 211.8 565.4 L 199.7 570.7 L 212.5 573.8 L 224.7 568.8 L 231.3 557.4 L 244.4 559.0 L 255.1 551.4 L 242.0 552.4 L 243.5 565.5 L 254.3 573.0 L 255.0 586.2 L 267.3 581.4 L 254.1 581.1 L 241.6 585.1 L 252.2 592.8 L 239.5 596.2 L 232.5 585.1 L 220.0 589.3 L 233.1 590.0 L 235.7 577.1 L 248.5 580.2 L 254.2 568.4 L 259.6 556.3 L 272.6 558.3 L 274.2 571.4 L 286.7 567.2 L 276.1 559.3 L 288.1 564.9 L 283.8 577.3 L 296.9 577.2 L 304.9 587.7 L 317.2 592.2 L 315.7 579.2 L 321.4 591.1 L 328.9 580.2 L 339.1 588.6 L 328.0 581.5 L 319.0 571.9 L 325.9 560.7 L 338.0 565.9 L 349.7 571.8 L 347.8 584.8 L 355.8 574.3 L 368.4 578.3 L 370.8 565.4 L 383.9 567.1 L 376.1 556.4 L 381.5 568.4 L 370.0 562.1 L 380.0 570.6 L 370.1 562.0 L 372.5 549.0 L 372.6 562.2 L 360.7 556.7 L 373.3 560.4 L 377.1 573.1 L 390.2 571.8 L 379.6 564.0 L 371.3 574.3 L 375.8 561.9 L 375.9 575.1 L 382.5 563.7 L 391.9 572.8 L 379.4 568.7 L 374.8 556.3 L 364.4 564.5 L 351.5 561.7 L 343.5 572.2 L 334.1 562.9 L 347.1 564.9 L 335.6 571.3 L 323.1 567.1 L 317.1 578.8 L 305.5 572.6 L 293.0 576.6 L 280.1 573.9 L 281.6 560.8 L 291.4 569.6 L 291.9 582.8 L 279.1 585.8 L 289.5 577.8 L 292.5 590.6 L 280.8 596.7 L 287.7 585.4 L 300.4 588.7 L 299.3 575.6 L 312.3 577.8 L 314.9 590.7 L 324.0 581.2 L 312.8 588.2 L 301.5 581.5 L 295.4 569.8 L 306.8 563.2 L 318.6 569.1 L 331.6 566.9 L 336.7 579.1 L 326.2 587.1 L 330.2 574.6 L 335.5 586.6 L 325.4 578.2 L 328.4 565.3 L 339.0 557.6 L 351.7 554.1 L 363.7 559.5 L 351.0 556.0 L 346.3 543.7 L 359.4 541.8 L 366.6 552.8 L 363.7 565.6 L 354.6 575.2 L 344.5 566.8 L 336.6 556.3 L 345.4 546.4 L 338.8 557.9 L 326.0 555.0 L 313.7 550.2 L 304.4 540.9 L 310.7 529.3 L 322.6 523.6 L 335.4 520.7 L 348.5 521.7 L 361.0 526.0 L 373.0 531.5 L 384.8 537.2 L 396.5 543.4 L 407.9 550.0 L 419.4 556.4 L 431.2 562.1 L 443.5 566.9 L 456.4 564.1 L 465.8 554.9 L 472.3 543.5 L 476.4 530.9 L 474.7 517.9 L 464.5 509.6 L 454.1 517.7 L 453.4 530.8 L 455.0 543.9 L 466.6 550.2 L 479.2 554.1 L 492.3 552.7 L 502.0 543.9 L 488.9 542.5 L 478.4 550.5 L 473.2 562.6 L 486.4 563.6 L 498.0 557.4 L 507.3 548.1 L 509.9 535.2 L 497.7 540.1 L 494.9 553.0 L 507.7 550.0 L 506.1 563.1 L 518.9 559.7 L 520.3 546.6 L 507.2 546.2 L 513.7 557.6 L 524.5 565.2 L 537.6 565.6 L 545.4 554.9 L 535.5 546.2 L 522.7 543.2 L 535.2 547.4 L 545.2 538.8 L 541.6 551.5 L 554.6 554.1 L 541.6 556.6 L 551.6 547.9 L 538.4 548.9 L 543.8 561.0 L 537.3 549.5 L 525.1 544.4 L 517.2 554.9 L 515.4 568.0 L 512.4 555.1 L 511.6 568.3 L 505.5 579.9 L 508.8 592.7 L 498.6 584.3 L 498.6 571.1 L 485.4 571.1 L 476.1 580.4 L 466.1 571.9 L 468.2 584.9 L 474.6 596.5 L 476.0 583.4 L 478.2 596.3 L 490.7 592.2 L 480.3 600.3 L 490.3 608.9 L 485.4 596.7 L 495.1 605.6 L 489.9 593.5 L 490.1 606.7 L 481.7 616.8 L 492.8 609.8 L 482.6 601.5 L 490.2 612.2 L 485.4 600.0 L 497.4 605.6 L 489.3 595.1 L 483.4 606.9 L 478.6 594.6 L 470.3 604.9 L 462.5 615.5 L 468.1 627.4 L 462.0 639.1 L 466.7 626.8 L 458.0 617.0 L 458.7 603.8 L 454.2 591.5 L 441.1 590.2 L 448.5 601.1 L 442.0 612.6 L 444.1 599.6 L 456.2 594.3 L 448.2 604.8 L 461.0 601.9 L 466.5 613.9 L 471.3 626.2 L 484.4 625.3 L 474.7 634.2 L 480.4 646.0 L 477.4 658.9 L 489.1 664.9 L 476.7 669.5 L 489.8 671.1 L 494.4 658.8 L 505.5 665.9 L 508.3 653.0 L 496.2 647.8 L 507.1 640.3 L 510.7 627.7 L 521.3 619.9 L 527.7 631.4 L 530.3 618.5 L 541.8 624.9 L 554.4 621.4 L 555.2 634.5 L 556.1 621.4 L 568.1 627.0 L 561.2 638.2 L 568.8 627.4 L 559.9 637.2 L 550.8 646.7 L 541.2 637.6 L 551.5 645.8 L 540.8 638.1 L 547.3 626.7 L 544.1 639.5 L 530.9 638.5 L 543.4 634.1 L 538.0 622.0 L 525.9 616.7 L 535.6 607.8 L 528.6 618.9 L 540.5 624.4 L 536.8 611.8 L 539.2 624.7 L 549.6 632.8 L 537.0 629.2 L 525.1 623.5 L 538.3 623.7 L 535.7 610.8 L 544.3 600.8 L 539.4 588.5 L 544.7 576.5 L 545.6 563.3 L 554.9 554.0 L 568.0 552.6 L 554.8 553.4 L 543.7 546.4 L 540.6 559.2 L 542.7 546.2 L 529.7 548.5 L 538.3 538.5 L 526.0 533.8 L 532.0 545.6 L 540.7 535.7 L 541.2 548.9 L 536.5 561.2 L 527.5 570.8 L 514.4 572.4 L 501.5 570.0 L 497.6 582.6 L 492.8 570.4 L 492.5 557.2 L 494.2 544.2 L 481.4 547.3 L 485.8 534.9 L 491.3 522.9 L 478.7 526.7 L 467.5 533.7 L 457.7 542.5 L 453.4 530.0 L 446.6 518.7 L 441.1 530.7 L 442.1 543.8 L 446.8 556.1 L 457.9 563.2 L 456.9 576.3 L 467.9 569.1 L 477.2 578.4 L 472.5 566.1 L 469.7 553.2 L 461.8 563.7 L 468.8 574.9 L 481.1 579.7 L 475.3 591.5 L 478.2 604.3 L 487.2 594.7 L 474.0 595.0 L 474.4 608.2 L 484.3 616.9 L 476.1 627.1 L 487.6 633.5 L 475.2 629.1 L 464.3 636.6 L 475.3 644.0 L 469.6 655.9 L 476.8 666.9 L 482.5 655.0 L 474.6 644.5 L 474.1 657.7 L 484.5 649.5 L 471.4 648.0 L 469.3 635.0 L 481.2 629.2 L 479.0 616.3 L 465.9 616.6 L 463.6 629.6 L 472.7 620.1 L 479.1 608.6 L 483.7 621.0 L 470.6 622.4 L 471.5 635.5 L 481.1 644.6 L 476.9 632.1 L 476.5 618.9 L 471.2 631.0 L 459.6 624.6 L 457.2 637.6 L 464.6 626.7 L 458.1 615.2 L 470.8 618.7 L 460.3 610.7 L 457.5 623.6 L 446.8 631.2 L 438.0 621.3 L 437.2 608.1 L 426.7 616.1 L 439.2 611.9 L 435.2 599.4 L 445.6 591.3 L 458.7 590.4 L 449.6 580.9 L 454.4 568.6 L 464.9 560.6 L 472.6 571.3 L 485.8 571.6 L 488.1 584.6 L 475.7 580.1 L 465.9 571.3 L 469.4 584.0 L 472.9 571.3 L 483.7 563.7 L 496.3 560.0 L 483.3 561.6 L 477.0 550.0 L 481.0 537.5 L 475.5 549.4 L 486.7 542.5 L 499.7 540.8 L 487.3 536.3 L 499.3 541.8 L 510.2 549.3 L 501.3 539.5 L 504.9 552.2 L 504.5 565.4 L 509.1 553.0 L 514.2 540.9 L 517.6 528.2 L 514.6 541.0 L 512.4 554.0 L 516.2 566.6 L 521.5 578.7 L 515.4 567.0 L 507.8 556.2 L 519.9 561.4 L 506.8 562.2 L 496.7 570.7 L 505.8 561.1 L 506.0 548.0 L 494.2 542.0 L 506.7 546.1 L 500.8 534.4 L 488.4 530.0 L 483.6 517.7 L 471.0 513.9 L 458.0 516.1 L 466.3 505.9 L 467.0 519.0 L 454.3 522.7 L 445.4 532.4 L 449.9 544.7 L 461.4 538.4 L 459.1 551.4 L 450.3 541.6 L 437.4 538.9 L 450.5 540.2 L 461.5 533.1 L 472.4 525.7 L 464.9 536.5 L 478.1 535.8 L 473.3 548.1 L 478.4 560.2 L 465.3 560.4 L 452.6 556.7 L 440.5 561.7 L 429.2 554.9 L 425.2 567.4 L 413.2 572.9 L 417.7 585.3 L 405.2 589.2 L 392.4 586.0 L 395.5 573.2 L 408.4 575.9 L 395.9 580.2 L 390.9 568.0 L 404.0 566.4 L 407.4 579.1 L 397.6 570.2 L 409.8 575.3 L 407.3 588.3 L 418.8 581.8 L 413.2 593.8 L 408.1 605.9 L 418.9 598.4 L 431.0 603.5 L 431.7 616.6 L 436.5 604.4 L 449.6 602.8 L 461.4 597.0 L 449.1 592.2 L 439.6 601.4 L 437.5 614.4 L 430.0 603.6 L 417.2 600.5 L 428.5 593.7 L 435.4 605.0 L 446.4 597.8 L 459.4 600.0 L 457.5 587.0 L 444.7 590.0 L 451.1 578.5 L 464.1 580.7 L 460.2 593.3 L 470.8 601.2 L 458.0 604.3 L 457.5 617.5 L 447.5 608.9 L 441.4 620.5 L 450.8 611.3 L 446.1 599.1 L 448.9 611.9 L 459.9 604.6 L 457.1 617.5 L 452.1 629.7 L 465.2 629.4 L 478.0 632.8 L 490.3 637.5 L 479.1 644.6 L 467.3 650.4 L 455.3 655.9 L 443.5 661.7 L 454.6 668.8 L 443.3 675.7 L 456.4 677.2 L 449.0 688.1 L 461.2 683.1 L 466.1 695.3 L 469.0 682.5 L 468.1 669.3 L 459.5 659.3 L 446.5 657.4 L 443.0 644.7 L 434.4 634.7 L 433.9 647.9 L 427.6 659.4 L 439.8 654.6 L 440.9 641.4 L 434.5 629.9 L 447.4 627.5 L 456.6 618.1 L 458.5 605.1 L 465.9 616.0 L 458.9 627.2 L 446.8 622.0 L 454.8 611.6 L 465.2 603.5 L 478.1 606.5 L 488.2 598.0 L 475.5 601.6 L 474.0 614.7 L 480.1 603.0 L 466.9 603.6 L 470.2 590.8 L 457.1 590.8 L 469.9 593.9 L 480.0 602.3 L 467.8 607.0 L 464.2 594.4 L 469.6 582.3 L 481.1 588.6 L 473.1 578.2 L 477.2 590.7 L 464.4 587.8 L 467.4 575.0 L 464.1 587.7 L 476.8 591.2 L 464.0 588.1 L 461.5 601.1 L 474.6 602.7 L 487.8 602.8 L 486.5 589.7 L 488.9 602.7 L 476.0 605.6 L 480.8 617.9 L 492.9 623.3 L 480.1 619.9 L 490.5 611.7 L 502.8 616.4 L 503.0 603.2 L 490.6 607.9 L 503.3 611.5 L 490.1 611.6 L 495.9 623.4 L 503.9 613.0 L 515.5 619.2 L 504.0 625.6 L 515.3 632.3 L 520.2 644.6 L 509.1 651.7 L 495.9 651.5 L 503.4 662.4 L 498.8 674.7 L 497.4 661.6 L 484.4 664.0 L 494.4 655.4 L 505.3 662.9 L 502.6 650.0 L 515.5 647.4 L 521.8 659.0 L 510.1 652.8 L 523.1 650.7 L 511.1 645.3 L 512.2 632.2 L 519.5 643.1 L 518.9 630.0 L 531.2 634.6 L 522.1 625.1 L 512.1 633.7 L 513.2 620.6 L 525.8 616.6 L 536.7 623.9 L 528.3 613.8 L 519.8 623.9 L 523.0 611.1 L 530.5 600.3 L 543.5 602.1 L 553.8 593.8 L 565.9 599.0 L 577.6 593.1 L 565.4 598.1 L 575.2 606.9 L 562.6 610.6 L 571.9 620.0 L 581.4 629.1 L 592.9 622.6 L 582.1 630.2 L 569.1 628.8 L 575.7 617.4 L 583.8 607.0 L 590.7 618.3 L 585.5 630.3 L 587.6 643.3 L 600.6 641.1 L 588.5 635.8 L 597.0 625.7 L 584.6 630.1 L 579.4 642.2 L 568.8 634.3 L 557.9 626.9 L 571.0 628.3 L 580.3 637.6 L 567.4 634.6 L 579.0 641.0 L 571.3 651.7 L 571.4 638.5 L 579.1 649.1 L 573.4 637.3 L 585.3 642.9 L 582.6 630.0 L 569.5 631.3 L 559.4 622.9 L 572.6 622.0 L 563.9 631.9 L 556.1 642.5 L 562.9 631.2 L 567.2 643.7 L 554.8 639.2 L 553.8 652.4 L 561.1 641.4 L 573.8 637.9 L 569.6 650.4 L 564.3 662.5 L 551.5 659.4 L 560.4 649.7 L 564.8 662.1 L 551.8 660.4 L 558.8 671.6 L 569.4 679.4 L 556.2 678.5 L 561.4 666.4 L 556.2 678.5 L 552.8 665.8 L 541.2 659.6 L 542.7 646.5 L 531.1 652.7 L 526.8 640.3 L 513.6 639.7 L 526.0 635.3 L 522.6 648.1 L 519.9 635.2 L 522.7 648.0 L 518.8 660.6 L 506.1 657.1 L 519.1 659.1 L 505.9 659.6 L 512.6 648.3 L 525.7 646.4 L 530.5 658.7 L 517.6 661.3 L 507.2 653.2 L 512.0 641.0 L 521.4 631.7 L 534.5 632.5 L 523.6 625.1 L 536.6 622.7 L 543.9 633.7 L 533.4 641.6 L 521.7 635.7 L 521.6 622.5 L 530.3 612.6 L 521.5 622.4 L 509.9 628.6 L 496.9 626.2 L 485.5 619.7 L 489.7 632.2 L 485.8 644.8 L 473.5 649.5 L 462.2 642.8 L 473.1 635.5 L 460.5 631.7 L 453.9 620.3 L 453.4 607.2 L 461.8 597.0 L 473.3 603.4 L 478.3 615.6 L 465.2 613.6 L 454.0 606.7 L 450.8 593.9 L 452.6 580.9 L 462.6 572.3 L 475.6 570.0 L 488.0 574.2 L 498.4 582.3 L 485.6 585.5 L 472.5 586.9 L 461.2 580.2 L 456.9 567.7 L 458.3 554.6 L 465.8 543.8 L 476.7 536.3 L 489.2 540.4 L 500.8 546.7 L 509.8 556.3 L 517.8 566.7 L 522.9 578.8 L 527.3 591.3 L 530.8 604.0 L 534.0 616.7 L 536.1 629.7 L 539.4 642.5 L 545.4 654.2 L 551.8 665.7 L 560.9 675.3 L 571.3 683.3 L 582.6 690.1 L 595.7 688.5 L 607.0 681.8 L 616.3 672.4 L 622.5 660.8 L 625.1 647.9 L 622.1 635.1 L 612.6 625.9 L 599.5 625.6 L 591.7 636.2 L 593.1 649.3 L 605.4 653.9 L 612.2 642.5 L 603.0 633.1 L 590.0 635.6 L 591.2 648.7 L 600.1 658.5 L 607.2 647.4 L 605.3 634.3 L 593.4 628.7 L 580.9 632.7 L 590.6 641.5 L 584.6 629.8 L 572.3 634.5 L 561.9 642.6 L 561.9 655.8 L 569.4 666.6 L 579.8 674.6 L 593.0 675.0 L 589.0 662.5 L 581.1 651.9 L 571.2 660.6 L 564.7 672.0 L 571.1 683.6 L 558.6 679.3 L 549.2 688.5 L 543.6 700.4 L 547.7 713.0 L 540.1 702.2 L 529.4 709.7 L 540.8 716.3 L 546.5 704.4 L 558.1 710.7 L 571.2 711.6 L 564.2 700.5 L 577.3 701.4 L 564.2 702.2 L 557.1 713.3 L 556.0 726.5 L 566.2 734.9 L 555.2 742.2 L 549.0 753.8 L 555.5 765.2 L 567.3 759.3 L 556.6 751.6 L 561.9 763.7 L 572.6 771.4 L 577.2 759.0 L 568.1 749.5 L 567.0 762.6 L 573.3 774.1 L 569.2 761.6 L 558.8 753.6 L 557.6 740.5 L 544.8 737.2 L 536.7 726.9 L 529.6 738.1 L 520.0 729.0 L 530.8 736.6 L 544.0 736.0 L 546.5 723.1 L 543.0 710.4 L 539.0 697.8 L 530.7 708.1 L 539.9 717.6 L 542.4 704.6 L 555.2 701.4 L 553.0 688.4 L 539.9 686.6 L 551.1 679.6 L 563.8 683.1 L 556.1 672.4 L 554.8 685.5 L 563.4 695.4 L 569.9 706.9 L 561.3 716.9 L 556.0 704.9 L 543.6 709.4 L 539.2 721.8 L 552.2 723.9 L 564.9 727.3 L 555.0 718.6 L 567.9 721.0 L 564.4 708.3 L 552.1 703.6 L 545.2 692.3 L 548.4 705.1 L 559.5 697.9 L 555.4 710.5 L 568.5 710.0 L 558.9 719.1 L 570.3 712.4 L 578.9 722.4 L 592.0 720.8 L 604.8 723.6 L 594.1 716.0 L 597.3 703.3 L 589.4 692.8 L 583.4 704.5 L 591.0 715.3 L 596.3 703.2 L 591.6 715.6 L 595.5 703.0 L 586.2 693.6 L 596.2 702.1 L 597.8 689.0 L 587.0 681.5 L 594.4 692.4 L 607.4 690.6 L 594.4 692.4 L 606.5 687.3 L 606.9 674.1 L 596.7 682.4 L 604.1 671.5 L 591.7 666.8 L 596.8 679.0 L 608.7 684.6 L 609.1 671.4 L 610.3 684.5 L 620.5 676.2 L 607.4 675.8 L 619.0 669.7 L 627.2 680.0 L 614.8 675.5 L 621.7 686.7 L 609.8 681.0 L 622.9 679.1 L 613.2 688.1 L 601.7 681.7 L 607.3 693.6 L 598.0 702.9 L 611.0 700.5 L 598.4 696.7 L 609.2 689.1 L 620.9 695.1 L 608.4 699.1 L 621.3 701.9 L 623.3 688.8 L 635.2 683.3 L 637.0 696.3 L 650.1 697.5 L 662.4 692.7 L 674.0 698.9 L 665.9 688.5 L 679.0 687.8 L 687.6 697.8 L 674.7 700.1 L 666.4 710.4 L 653.6 713.5 L 666.8 714.5 L 660.0 725.9 L 673.0 723.8 L 663.6 733.1 L 674.6 725.8 L 662.3 730.7 L 666.1 718.0 L 671.2 730.2 L 672.9 743.2 L 675.9 730.4 L 671.5 742.8 L 659.8 736.7 L 649.4 728.7 L 639.7 737.6 L 631.6 727.2 L 643.1 720.7 L 637.3 708.9 L 649.2 703.2 L 643.5 691.3 L 631.7 697.3 L 642.9 690.4 L 632.8 698.8 L 622.2 691.0 L 628.6 679.5 L 640.9 684.2 L 639.0 671.2 L 627.4 677.4 L 618.6 667.6 L 607.2 661.0 L 611.2 673.6 L 604.8 662.1 L 613.7 652.4 L 603.1 644.6 L 607.0 632.0 L 594.4 635.8 L 599.7 647.8 L 606.2 636.3 L 605.8 623.2 L 617.6 617.4 L 627.9 625.6 L 626.7 612.5 L 613.9 615.7 L 626.9 613.5 L 615.4 607.0 L 611.1 619.5 L 601.7 610.3 L 613.9 615.2 L 616.7 628.1 L 628.1 634.8 L 621.5 623.4 L 634.2 619.8 L 646.6 615.6 L 649.4 628.5 L 640.8 618.5 L 627.8 620.4 L 640.9 622.0 L 649.2 632.2 L 648.2 645.3 L 643.3 657.5 L 640.7 644.6 L 631.9 634.8 L 633.0 647.9 L 642.2 657.3 L 632.1 648.8 L 621.8 657.0 L 630.6 647.2 L 643.6 649.3 L 640.9 636.4 L 653.0 631.3 L 666.2 631.6 L 675.0 641.5 L 663.0 636.0 L 657.5 624.0 L 648.7 633.8 L 647.4 620.7 L 636.0 627.2 L 622.9 625.9 L 610.6 621.0 L 622.3 614.9 L 614.2 604.5 L 627.4 604.8 L 637.4 596.2 L 638.7 609.3 L 649.7 602.1 L 649.4 615.3 L 661.2 609.3 L 658.5 622.2 L 654.1 634.6 L 649.1 646.8 L 643.8 658.9 L 656.9 657.7 L 651.5 669.7 L 646.5 681.9 L 642.0 694.2 L 638.1 706.8 L 650.6 702.6 L 662.7 697.3 L 666.9 684.8 L 663.1 672.2 L 676.3 673.3 L 689.3 671.2 L 680.1 661.7 L 667.4 658.2 L 654.3 658.4 L 641.8 662.6 L 631.2 670.4 L 626.9 658.0 L 628.2 671.1 L 621.4 682.3 L 625.5 694.9 L 632.7 683.8 L 622.9 675.0 L 628.2 663.0 L 626.7 649.9 L 639.8 650.8 L 629.9 642.0 L 639.5 633.0 L 626.3 632.1 L 628.2 619.1 L 617.4 626.6 L 610.7 615.2 L 622.6 620.8 L 616.5 632.5 L 619.8 645.3 L 631.0 652.3 L 620.0 645.0 L 608.9 638.0 L 602.8 649.7 L 615.3 645.4 L 627.8 641.4 L 633.2 653.4 L 637.2 640.9 L 650.1 643.4 L 639.7 651.3 L 641.1 664.4 L 653.2 669.8 L 647.3 657.9 L 654.2 669.2 L 644.6 678.3 L 635.5 668.7 L 623.1 673.1 L 633.7 665.3 L 629.1 677.6 L 615.9 677.6 L 612.4 690.3 L 610.1 703.3 L 617.9 692.6 L 605.5 697.1 L 607.4 710.2 L 610.2 697.3 L 601.9 687.1 L 591.0 694.5 L 579.5 688.2 L 572.3 699.2 L 582.9 707.0 L 587.4 719.4 L 578.8 729.3 L 591.2 725.0 L 603.2 719.5 L 614.2 726.7 L 620.6 715.2 L 608.6 709.8 L 620.6 715.3 L 632.9 710.8 L 643.5 718.7 L 648.9 706.7 L 659.5 714.5 L 664.4 702.2 L 651.4 700.7 L 664.4 702.8 L 671.7 713.8 L 658.9 710.4 L 670.4 703.8 L 657.3 705.6 L 670.1 702.7 L 657.1 700.7 L 661.1 713.3 L 655.5 725.2 L 648.8 713.9 L 642.3 702.5 L 644.6 715.4 L 654.4 706.7 L 667.6 706.0 L 674.3 717.3 L 661.5 720.5 L 671.9 728.6 L 661.7 737.0 L 648.6 738.4 L 661.7 740.0 L 648.6 738.2 L 649.5 725.1 L 640.1 734.3 L 651.4 727.6 L 659.9 737.6 L 650.7 728.1 L 651.5 715.0 L 657.3 703.2 L 645.9 709.7 L 635.2 701.9 L 644.3 711.5 L 654.2 702.9 L 641.3 705.6 L 628.2 703.9 L 639.0 711.5 L 632.9 699.8 L 644.0 692.7 L 655.5 699.1 L 644.9 691.3 L 651.9 702.5 L 649.3 689.5 L 639.7 698.6 L 652.5 695.3 L 639.3 694.9 L 652.4 696.6 L 664.9 700.6 L 675.4 708.6 L 667.2 698.3 L 672.8 710.2 L 668.4 722.6 L 659.4 732.2 L 669.5 723.8 L 680.8 717.0 L 668.6 722.0 L 681.2 718.0 L 668.2 720.4 L 681.3 718.6 L 694.3 716.5 L 706.9 712.8 L 694.6 717.4 L 706.8 712.5 L 717.9 705.4 L 728.4 697.5 L 718.2 705.8 L 722.8 693.5 L 724.5 680.4 L 730.7 692.0 L 718.6 697.2 L 730.1 690.8 L 721.1 700.4 L 717.8 687.7 L 711.5 676.1 L 721.5 684.6 L 709.0 680.5 L 696.1 683.3 L 704.2 672.9 L 705.1 659.8 L 717.9 662.9 L 705.2 666.2 L 694.2 673.5 L 703.8 664.4" stroke="#f85149" fill="none" stroke-width="2" stroke-linecap="round"/>
<circle class="pulse" cx="652.9146447009535" cy="177.6111838067215" r="5" fill="#3fb950"/>
<text x="662.9146447009535" y="167.6111838067215" font-family="monospace" font-size="10" fill="#3fb950">START</text>
<circle cx="703.7745879045564" cy="664.4302800264279" r="5" fill="#f85149" opacity="0">
        <animate attributeName="opacity" from="0" to="1" begin="10s" dur="0.5s" fill="freeze"/>
    </circle>
<text x="20" y="860" font-family="monospace" font-size="12" fill="#8b949e">N = 2000 primes</text>
<text x="20" y="880" font-family="monospace" font-size="12" fill="#f85149">|S|/√N = 0.8309</text>
<text x="650" y="860" font-family="monospace" font-size="11" fill="#58a6ff">Notice: path stays BOUNDED!</text>
<text x="650" y="880" font-family="monospace" font-size="11" fill="#58a6ff">This is Q3 in action! 🎯</text>
</svg>