<svg width="900" height="900" xmlns="http://www.w3.org/2000/svg">
<style>

    .path0 {
        stroke-dasharray: 28250;
        stroke-dashoffset: 28250;
        animation: draw0 8s ease-in-out 0.0s forwards;
    }
    @keyframes draw0 {
        to { stroke-dashoffset: 0; }
    }


    .path1 {
        stroke-dasharray: 10599;
        stroke-dashoffset: 10599;
        animation: draw1 8s ease-in-out 0.5s forwards;
    }
    @keyframes draw1 {
        to { stroke-dashoffset: 0; }
    }


    .start-point {
        animation: pulse 1s ease-in-out infinite;
    }
    @keyframes pulse {
        0%, 100% { r: 5; opacity: 1; }
        50% { r: 8; opacity: 0.7; }
    }

    .glow {
        filter: drop-shadow(0 0 3px currentColor);
    }

</style>
<rect width="100%" height="100%" fill="#0d1117"/>
<text x="20" y="30" font-family="monospace" font-size="18" fill="#58a6ff">🎬 PHASE WALK ANIMATION (α=0.02)</text>
<rect x="20" y="55" width="30" height="3" fill="#39d353" class="glow" style="color:#39d353"/>
<text x="60" y="60" font-family="monospace" font-size="12" fill="#8b949e">All primes (669)</text>
<rect x="20" y="80" width="30" height="3" fill="#f85149" class="glow" style="color:#f85149"/>
<text x="60" y="85" font-family="monospace" font-size="12" fill="#8b949e">Twin primes (251)</text>
<g stroke="#21262d" stroke-width="0.5">
<line x1="60.0" y1="60" x2="60.0" y2="840"/>
<line x1="60" y1="60.0" x2="840" y2="60.0"/>
<line x1="146.66666666666669" y1="60" x2="146.66666666666669" y2="840"/>
<line x1="60" y1="146.66666666666669" x2="840" y2="146.66666666666669"/>
<line x1="233.33333333333334" y1="60" x2="233.33333333333334" y2="840"/>
<line x1="60" y1="233.33333333333334" x2="840" y2="233.33333333333334"/>
<line x1="320.0" y1="60" x2="320.0" y2="840"/>
<line x1="60" y1="320.0" x2="840" y2="320.0"/>
<line x1="406.6666666666667" y1="60" x2="406.6666666666667" y2="840"/>
<line x1="60" y1="406.6666666666667" x2="840" y2="406.6666666666667"/>
<line x1="493.3333333333333" y1="60" x2="493.3333333333333" y2="840"/>
<line x1="60" y1="493.3333333333333" x2="840" y2="493.3333333333333"/>
<line x1="580.0" y1="60" x2="580.0" y2="840"/>
<line x1="60" y1="580.0" x2="840" y2="580.0"/>
<line x1="666.6666666666666" y1="60" x2="666.6666666666666" y2="840"/>
<line x1="60" y1="666.6666666666666" x2="840" y2="666.6666666666666"/>
<line x1="753.3333333333334" y1="60" x2="753.3333333333334" y2="840"/>
<line x1="60" y1="753.3333333333334" x2="840" y2="753.3333333333334"/>
<line x1="840.0" y1="60" x2="840.0" y2="840"/>
<line x1="60" y1="840.0" x2="840" y2="840.0"/>
</g>
<path class="path0 glow" style="color:#39d353" d="M 599.07 337.63 L 622.70 344.56 L 645.39 354.81 L 665.12 371.19 L 680.68 392.65 L 685.25 420.01 L 683.72 447.80 L 670.64 471.32 L 652.86 490.39 L 629.23 497.31 L 607.85 483.89 L 590.06 464.83 L 588.53 437.03 L 598.92 411.83 L 614.47 390.37 L 637.15 380.11 L 659.84 390.37 L 670.23 415.57 L 674.80 442.93 L 661.73 466.45 L 640.35 479.86 L 616.71 486.79 L 595.33 473.37 L 582.26 449.86 L 586.83 422.50 L 609.52 412.24 L 633.72 415.73 L 656.41 425.99 L 671.96 447.45 L 682.35 472.65 L 680.82 500.45 L 657.18 493.52 L 639.40 474.45 L 637.87 446.66 L 642.44 419.30 L 666.64 415.81 L 690.85 419.30 L 706.40 440.76 L 704.87 468.56 L 691.80 492.07 L 668.16 499.00 L 646.78 485.58 L 629.00 466.51 L 639.39 441.31 L 654.94 419.85 L 677.62 409.60 L 701.83 406.11 L 706.40 433.47 L 682.77 440.39 L 659.14 433.47 L 637.76 420.05 L 624.68 396.53 L 629.26 369.17 L 639.64 343.97 L 663.85 347.46 L 679.40 368.92 L 677.87 396.72 L 660.09 415.79 L 638.70 429.21 L 615.07 422.28 L 597.29 403.21 L 584.21 379.70 L 599.77 358.23 L 615.32 379.70 L 619.89 407.05 L 618.36 434.85 L 605.29 458.37 L 587.50 439.30 L 585.97 411.50 L 608.65 401.25 L 632.86 397.76 L 655.54 408.01 L 665.93 433.22 L 652.86 456.73 L 629.23 463.66 L 607.85 450.24 L 594.77 426.72 L 599.34 399.37 L 622.03 389.11 L 646.24 392.60 L 656.62 417.80 L 638.84 436.87 L 617.46 450.29 L 599.67 431.22 L 586.60 407.71 L 591.17 380.35 L 606.72 358.89 L 630.93 355.40 L 646.48 376.86 L 651.05 404.22 L 649.52 432.01 L 636.45 455.53 L 615.07 442.11 L 613.54 414.31 L 623.92 389.11 L 648.13 385.62 L 670.81 395.87 L 681.20 421.08 L 659.82 434.49 L 636.19 441.42 L 646.58 416.22 L 669.26 405.97 L 684.82 427.43 L 683.28 455.22 L 665.50 474.29 L 644.12 487.71 L 620.49 480.78 L 618.95 452.98 L 634.51 431.52 L 658.71 428.03 L 682.92 431.52 L 698.47 452.98 L 696.94 480.78 L 683.86 504.30 L 666.08 523.36 L 648.29 504.30 L 658.68 479.10 L 674.23 457.64 L 696.92 447.38 L 719.60 457.64 L 729.99 482.84 L 734.56 510.20 L 710.93 517.12 L 687.30 510.20 L 674.23 486.68 L 684.61 461.48 L 708.82 464.97 L 719.21 490.17 L 701.42 509.24 L 677.79 502.31 L 664.72 478.79 L 669.29 451.44 L 684.84 429.97 L 709.05 433.47 L 724.60 454.93 L 729.17 482.28 L 711.39 501.35 L 687.75 508.28 L 686.22 480.48 L 708.91 470.23 L 719.30 495.43 L 723.87 522.79 L 702.49 536.21 L 678.86 543.13 L 655.22 536.21 L 633.84 522.79 L 638.42 495.43 L 661.10 505.68 L 676.65 527.14 L 687.04 552.34 L 685.51 580.14 L 661.88 573.22 L 644.09 554.15 L 631.02 530.63 L 629.49 502.83 L 645.04 524.30 L 649.61 551.65 L 631.82 570.72 L 610.44 557.30 L 608.91 529.51 L 619.30 504.30 L 641.99 494.05 L 664.67 504.30 L 651.60 527.82 L 630.22 541.24 L 606.58 534.31 L 593.51 510.80 L 603.90 485.59 L 626.58 475.34 L 636.97 500.54 L 635.44 528.34 L 617.66 547.41 L 596.28 560.82 L 578.49 541.76 L 565.42 518.24 L 569.99 490.88 L 594.19 487.39 L 618.40 490.88 L 622.97 518.24 L 621.44 546.04 L 603.65 565.10 L 602.12 537.31 L 612.51 512.11 L 628.06 490.64 L 650.75 480.39 L 673.43 490.64 L 683.82 515.85 L 670.75 539.36 L 647.12 546.29 L 625.74 532.87 L 649.94 536.36 L 672.63 546.62 L 671.09 574.41 L 649.71 587.83 L 631.93 568.76 L 630.40 540.97 L 645.95 519.51 L 670.15 523.00 L 668.62 550.80 L 655.55 574.31 L 631.92 581.24 L 610.54 567.82 L 592.75 548.75 L 591.22 520.96 L 615.43 517.47 L 625.81 542.67 L 602.18 535.74 L 580.80 522.32 L 567.73 498.81 L 572.30 471.45 L 582.69 446.25 L 605.37 435.99 L 629.58 439.48 L 652.26 449.74 L 667.82 471.20 L 650.03 490.26 L 628.65 503.68 L 605.02 496.75 L 609.59 524.11 L 596.52 547.63 L 572.89 554.56 L 555.10 535.49 L 579.31 532.00 L 589.69 557.20 L 566.06 564.13 L 542.43 557.20 L 521.05 543.78 L 507.98 520.27 L 512.55 492.91 L 535.23 482.65 L 559.44 486.15 L 582.12 496.40 L 592.51 521.60 L 571.13 535.02 L 553.35 515.95 L 540.27 492.44 L 538.74 464.64 L 543.31 437.28 L 558.87 415.82 L 583.07 412.33 L 587.64 439.69 L 564.01 446.61 L 546.23 427.55 L 561.78 406.09 L 585.98 402.60 L 608.67 412.85 L 619.06 438.05 L 605.98 461.57 L 584.60 474.98 L 563.22 461.57 L 550.15 438.05 L 572.83 427.80 L 597.04 431.29 L 612.59 452.75 L 622.98 477.95 L 621.45 505.75 L 603.66 524.81 L 582.28 538.23 L 558.65 531.31 L 557.12 503.51 L 572.67 524.97 L 571.14 552.77 L 558.07 576.28 L 540.28 595.35 L 555.83 573.89 L 578.52 563.63 L 602.72 560.14 L 613.11 585.35 L 591.73 598.76 L 568.10 605.69 L 555.03 582.17 L 565.41 556.97 L 588.10 546.72 L 610.78 556.97 L 621.17 582.17 L 597.54 575.25 L 584.47 551.73 L 582.94 523.93 L 587.51 496.57 L 611.71 500.06 L 616.28 527.42 L 592.65 534.35 L 574.87 515.28 L 597.55 505.03 L 602.12 532.39 L 589.05 555.91 L 567.67 569.32 L 544.04 576.25 L 520.41 569.32 L 499.03 555.91 L 503.60 528.55 L 527.80 532.04 L 543.36 553.50 L 541.82 581.30 L 524.04 562.23 L 510.97 538.71 L 535.17 535.22 L 559.38 538.71 L 535.75 545.64 L 514.37 532.22 L 512.83 504.42 L 528.39 482.96 L 551.07 472.71 L 575.28 469.22 L 597.96 479.47 L 602.53 506.83 L 589.46 530.35 L 565.83 523.42 L 544.45 510.00 L 549.02 482.65 L 571.70 492.90 L 570.17 520.70 L 552.39 539.76 L 534.60 520.70 L 521.53 497.18 L 520.00 469.38 L 524.57 442.02 L 548.77 438.53 L 553.35 465.89 L 551.81 493.69 L 530.43 480.27 L 512.65 461.20 L 511.12 433.41 L 521.50 408.20 L 537.06 386.74 L 559.74 397.00 L 564.31 424.36 L 542.93 410.94 L 565.62 421.19 L 581.17 442.65 L 579.64 470.45 L 558.26 483.87 L 556.72 456.07 L 561.30 428.71 L 576.85 407.25 L 601.05 410.74 L 587.98 434.26 L 570.20 453.32 L 546.56 460.25 L 528.78 441.18 L 527.25 413.39 L 542.80 391.93 L 565.48 381.67 L 575.87 406.88 L 580.44 434.23 L 567.37 410.72 L 571.94 383.36 L 582.33 358.16 L 605.01 347.90 L 629.22 351.39 L 644.77 372.86 L 623.39 386.27 L 599.76 379.35 L 581.98 360.28 L 568.90 336.76 L 573.47 309.40 L 589.03 287.94 L 613.23 284.45 L 617.80 311.81 L 604.73 335.33 L 581.10 342.26 L 579.57 314.46 L 589.95 289.26 L 612.64 279.00 L 623.03 304.20 L 609.95 327.72 L 586.32 334.65 L 562.69 327.72 L 585.38 337.97 L 564.00 351.39 L 546.21 332.33 L 550.78 304.97 L 566.33 283.51 L 590.54 280.02 L 614.75 283.51 L 630.30 304.97 L 608.92 291.55 L 619.31 266.35 L 634.86 244.89 L 645.25 270.09 L 632.17 293.60 L 610.79 307.02 L 597.72 283.51 L 620.40 273.25 L 635.96 294.71 L 646.34 319.92 L 644.81 347.71 L 623.43 361.13 L 599.80 354.20 L 586.73 330.69 L 585.20 302.89 L 589.77 275.53 L 605.32 254.07 L 629.52 250.58 L 645.08 272.04 L 649.65 299.40 L 648.12 327.20 L 630.33 346.26 L 608.95 332.85 L 591.17 313.78 L 601.55 288.58 L 625.76 285.09 L 648.44 295.34 L 635.37 318.86 L 611.74 311.93 L 616.31 284.57 L 626.70 259.37 L 649.38 249.12 L 673.59 252.61 L 696.27 262.86 L 678.49 281.93 L 665.42 258.41 L 663.88 230.61 L 679.44 209.15 L 703.64 212.64 L 719.19 234.10 L 723.77 261.46 L 702.38 248.04 L 700.85 220.25 L 723.54 209.99 L 746.22 220.25 L 756.61 245.45 L 743.54 268.96 L 719.91 262.04 L 724.48 234.68 L 747.16 244.93 L 762.71 266.39 L 761.18 294.19 L 743.40 313.26 L 722.02 326.67 L 746.22 323.18 L 770.43 326.67 L 775.00 354.03 L 757.21 373.10 L 733.58 380.03 L 732.05 352.23 L 742.44 327.03 L 766.64 323.54 L 771.22 350.90 L 758.14 374.41 L 736.76 360.99 L 723.69 337.48 L 728.26 310.12 L 738.65 335.32 L 720.86 354.39 L 699.48 367.80 L 697.95 340.01 L 696.42 367.80 L 683.35 391.32 L 665.56 410.39 L 647.78 391.32 L 646.24 363.52 L 656.63 338.32 L 679.32 348.58 L 689.71 373.78 L 676.63 397.29 L 655.25 410.71 L 633.87 397.29 L 658.08 400.78 L 680.76 411.04 L 696.31 432.50 L 706.70 457.70 L 685.32 471.12 L 709.53 467.63 L 733.73 471.12 L 749.29 492.58 L 747.75 520.38 L 729.97 539.44 L 706.34 546.37 L 684.96 532.95 L 667.17 513.88 L 682.72 492.42 L 705.41 482.17 L 715.80 507.37 L 720.37 534.73 L 698.99 548.15 L 675.36 555.08 L 679.93 527.72 L 690.32 502.52 L 705.87 523.98 L 704.34 551.77 L 691.26 528.26 L 715.47 524.77 L 731.02 546.23 L 735.59 573.59 L 734.06 601.38 L 720.99 624.90 L 703.20 643.97 L 713.59 618.76 L 737.80 615.27 L 742.37 642.63 L 729.29 666.15 L 705.66 659.22 L 684.28 645.80 L 671.21 622.29 L 675.78 594.93 L 686.17 569.73 L 708.85 559.47 L 724.41 580.93 L 734.79 606.14 L 713.41 619.55 L 695.63 600.49 L 682.56 576.97 L 698.11 555.51 L 713.66 576.97 L 712.13 604.77 L 699.05 628.29 L 675.42 635.21 L 657.64 616.15 L 656.10 588.35 L 671.66 566.89 L 682.05 592.09 L 660.66 605.51 L 637.03 612.43 L 613.40 605.51 L 623.79 580.31 L 646.47 570.05 L 670.68 573.54 L 681.07 598.75 L 663.28 617.81 L 639.65 610.88 L 626.58 587.37 L 631.15 560.01 L 635.72 587.37 L 622.65 610.88 L 604.86 629.95 L 583.48 616.53 L 599.03 595.07 L 621.72 584.82 L 644.40 595.07 L 623.02 608.49 L 599.39 615.42 L 586.32 591.90 L 609.00 581.65 L 633.21 585.14 L 655.89 595.39 L 654.36 623.19 L 630.73 616.26 L 612.95 597.20 L 617.52 569.84 L 633.07 591.30 L 637.64 618.66 L 624.57 642.17 L 606.78 661.24 L 583.15 668.17 L 561.77 654.75 L 543.99 635.68 L 559.54 614.22 L 582.22 603.97 L 569.15 627.48 L 573.72 600.13 L 597.93 603.62 L 620.61 613.87 L 636.16 635.33 L 634.63 663.13 L 616.85 682.19 L 595.47 695.61 L 571.83 688.69 L 596.04 685.19 L 620.25 688.69 L 635.80 710.15 L 612.17 717.07 L 590.79 703.65 L 601.17 678.45 L 616.73 656.99 L 640.93 653.50 L 645.50 680.86 L 621.87 673.93 L 600.49 660.52 L 587.42 637.00 L 591.99 609.64 L 614.67 619.89 L 630.23 641.35 L 640.61 666.56 L 616.98 659.63 L 641.19 663.12 L 645.76 690.48 L 632.69 714.00 L 614.90 733.06 L 593.52 719.64 L 575.74 700.58 L 586.12 675.38 L 601.68 653.92 L 624.36 664.17 L 634.75 689.37 L 639.32 716.73 L 617.94 730.15 L 594.31 737.07 L 581.24 713.56 L 585.81 686.20 L 608.49 675.94 L 584.86 669.02 L 583.33 641.22 L 587.90 613.86 L 612.11 610.37 L 627.66 631.83 L 626.13 659.63 L 602.50 666.56 L 612.88 641.35 L 635.57 631.10 L 645.96 656.30 L 624.58 669.72 L 600.94 676.65 L 611.33 651.45 L 634.02 641.19 L 658.22 644.68 L 673.78 666.14 L 672.24 693.94 L 654.46 674.88 L 641.38 651.36 L 656.94 629.90 L 672.49 651.36 L 670.96 679.16 L 657.88 702.67 L 640.10 721.74 L 616.47 728.67 L 639.15 718.41 L 663.36 714.92 L 667.93 742.28 L 654.86 765.80 L 641.78 742.28 L 652.17 717.08 L 674.86 706.83 L 697.54 717.08 L 676.16 730.50 L 674.63 702.70 L 679.20 675.34 L 694.75 653.88 L 718.96 650.39 L 743.16 653.88 L 758.71 675.34 L 757.18 703.14 L 733.55 710.06 L 712.17 696.65 L 722.56 671.44 L 745.24 681.70 L 723.86 695.12 L 700.23 702.04 L 678.85 688.62 L 665.78 665.11 L 689.98 668.60 L 700.37 693.80 L 687.30 670.28 L 685.77 642.49 L 690.34 615.13 L 705.89 593.67 L 730.10 590.18 L 754.30 593.67 L 752.77 621.46 L 739.70 644.98 L 721.91 625.91 L 726.48 653.27 L 705.10 666.69 L 681.47 659.76 L 686.04 632.41 L 708.73 642.66 L 719.12 667.86 L 701.33 686.93 L 683.55 667.86 L 670.47 644.34 L 668.94 616.55 L 684.49 595.09 L 708.70 598.58 L 724.25 620.04 L 711.18 643.55 L 693.39 662.62 L 669.76 669.55 L 668.23 641.75 L 683.78 620.29 L 707.99 616.80" stroke="#39d353" fill="none" stroke-width="2" stroke-linecap="round" stroke-linejoin="round"/>
<path class="path1 glow" style="color:#f85149" d="M 599.07 337.63 L 621.75 347.89 L 641.49 364.26 L 657.05 385.72 L 661.62 413.08 L 660.09 440.88 L 647.01 464.39 L 629.23 483.46 L 607.85 470.04 L 590.06 450.97 L 600.45 425.77 L 616.00 404.31 L 626.39 429.51 L 630.96 456.87 L 609.58 470.29 L 585.95 477.22 L 610.15 480.71 L 632.84 490.96 L 648.39 512.42 L 658.78 537.62 L 657.25 509.83 L 661.82 482.47 L 686.03 478.98 L 710.23 482.47 L 688.85 469.05 L 671.07 449.98 L 681.45 424.78 L 697.01 403.32 L 719.69 393.07 L 743.90 389.58 L 720.26 382.65 L 698.88 369.23 L 703.46 341.87 L 713.84 316.67 L 696.06 335.74 L 674.68 349.16 L 656.89 330.09 L 643.82 306.57 L 648.39 333.93 L 646.86 361.73 L 669.54 351.48 L 693.75 347.99 L 675.96 367.05 L 654.58 380.47 L 636.80 361.40 L 623.73 337.89 L 628.30 365.25 L 626.77 393.04 L 605.39 406.46 L 581.75 413.39 L 563.97 432.45 L 542.59 445.87 L 566.79 442.38 L 591.00 445.87 L 577.93 469.39 L 560.14 488.46 L 570.53 463.25 L 586.08 441.79 L 596.47 466.99 L 601.04 494.35 L 611.43 519.56 L 616.00 546.91 L 594.62 560.33 L 570.99 567.26 L 547.36 560.33 L 525.98 546.91 L 541.53 568.37 L 551.92 593.58 L 534.13 574.51 L 521.06 550.99 L 503.27 570.06 L 481.89 583.48 L 464.11 564.41 L 451.03 540.90 L 475.24 537.40 L 499.45 540.90 L 504.02 568.25 L 502.49 596.05 L 512.87 570.85 L 528.43 549.39 L 552.63 552.88 L 575.32 563.13 L 553.94 549.72 L 536.15 530.65 L 512.52 523.72 L 491.14 510.30 L 495.71 482.95 L 506.10 457.74 L 530.30 461.23 L 552.99 471.49 L 535.20 490.55 L 513.82 503.97 L 490.19 497.05 L 468.81 483.63 L 493.02 487.12 L 515.70 497.37 L 497.92 478.31 L 484.84 454.79 L 483.31 426.99 L 487.88 399.63 L 503.44 421.09 L 513.82 446.29 L 496.04 465.36 L 474.66 478.78 L 461.58 502.30 L 443.80 521.36 L 466.48 511.11 L 490.69 507.62 L 469.31 521.04 L 445.68 527.96 L 444.15 500.16 L 448.72 472.81 L 427.34 486.22 L 403.71 493.15 L 380.07 486.22 L 358.69 472.81 L 340.91 453.74 L 327.84 430.22 L 352.04 426.73 L 376.25 430.22 L 398.93 419.97 L 423.14 416.48 L 399.51 409.55 L 378.13 396.13 L 360.34 377.07 L 347.27 353.55 L 345.74 325.75 L 350.31 298.39 L 354.88 325.75 L 353.35 353.55 L 331.97 340.13 L 314.18 321.07 L 324.57 295.87 L 340.12 274.40 L 338.59 246.61 L 343.16 219.25 L 330.09 242.76 L 312.30 261.83 L 322.69 287.03 L 327.26 314.39 L 331.83 287.03 L 342.22 261.83 L 324.44 242.76 L 311.36 219.25 L 335.57 215.76 L 359.78 219.25 L 370.16 194.05 L 385.72 172.59 L 401.27 194.05 L 411.66 219.25 L 410.12 191.45 L 414.70 164.09 L 419.27 191.45 L 417.73 219.25 L 396.35 205.83 L 378.57 186.76 L 383.14 159.40 L 393.53 134.20 L 417.73 137.69 L 440.42 147.95 L 422.63 167.01 L 401.25 180.43 L 425.46 176.94 L 449.67 180.43 L 431.88 199.50 L 410.50 212.92 L 397.43 236.43 L 379.64 255.50 L 403.85 258.99 L 426.53 269.24 L 442.08 290.70 L 452.47 315.90 L 476.68 312.41 L 500.88 315.90 L 479.50 302.49 L 461.72 283.42 L 472.11 308.62 L 476.68 335.98 L 455.30 349.40 L 431.67 356.33 L 436.24 328.97 L 446.63 303.77 L 451.20 331.12 L 449.67 358.92 L 436.59 382.44 L 418.81 401.50 L 395.18 394.58 L 373.80 381.16 L 378.37 353.80 L 388.76 328.60 L 404.31 350.06 L 414.70 375.26 L 396.91 356.20 L 383.84 332.68 L 362.46 346.10 L 338.82 353.02 L 325.75 376.54 L 307.97 395.61 L 286.59 409.02 L 262.95 415.95 L 287.16 419.44 L 309.84 429.69 L 296.77 453.21 L 278.99 472.28 L 257.61 458.86 L 239.82 439.79 L 264.03 443.28 L 286.71 453.54 L 268.93 472.60 L 247.55 486.02 L 271.75 482.53 L 295.96 486.02 L 306.34 460.82 L 321.90 439.36 L 298.27 432.43 L 276.89 419.01 L 292.44 440.48 L 302.83 465.68 L 289.75 489.19 L 271.97 508.26 L 250.59 494.84 L 232.80 475.78 L 243.19 450.57 L 258.74 429.11 L 269.13 454.31 L 273.70 481.67 L 252.32 495.09 L 228.69 502.02 L 227.16 474.22 L 231.73 446.86 L 210.35 460.28 L 186.72 467.21 L 168.93 448.14 L 155.86 424.62 L 142.79 448.14 L 125.00 467.21 L 147.68 456.95 L 171.89 453.46 L 170.36 425.67 L 174.93 398.31 L 199.14 394.82 L 223.34 398.31 L 201.96 411.72 L 178.33 418.65 L 176.80 390.85 L 181.37 363.49 L 205.58 360.00 L 229.78 363.49 L 212.00 344.43 L 198.92 320.91 L 185.85 344.43 L 168.06 363.49" stroke="#f85149" fill="none" stroke-width="2" stroke-linecap="round" stroke-linejoin="round"/>
<circle class="start-point" cx="599.0700947773408" cy="337.6342691194852" r="5" fill="#f85149"/>
<text x="609.0700947773408" y="327.6342691194852" font-family="monospace" font-size="10" fill="#f85149">START</text>

    <circle cx="707.9858784582331" cy="616.797916663269" r="4" fill="#39d353" opacity="0">
        <animate attributeName="opacity" from="0" to="1" begin="8.0s" dur="0.5s" fill="freeze"/>
    </circle>


    <circle cx="168.06389721298012" cy="363.4941333613917" r="4" fill="#f85149" opacity="0">
        <animate attributeName="opacity" from="0" to="1" begin="8.5s" dur="0.5s" fill="freeze"/>
    </circle>

</svg>