<svg width="900" height="900" xmlns="http://www.w3.org/2000/svg">
<style>

    .path0 {
        stroke-dasharray: 11132;
        stroke-dashoffset: 11132;
        animation: draw0 6s ease-in-out 0.0s forwards;
    }
    @keyframes draw0 {
        to { stroke-dashoffset: 0; }
    }


    .start-point {
        animation: pulse 1s ease-in-out infinite;
    }
    @keyframes pulse {
        0%, 100% { r: 5; opacity: 1; }
        50% { r: 8; opacity: 0.7; }
    }

    .glow {
        filter: drop-shadow(0 0 3px currentColor);
    }

</style>
<rect width="100%" height="100%" fill="#0d1117"/>
<text x="20" y="30" font-family="monospace" font-size="18" fill="#58a6ff">🔴 TWIN PRIMES RESONANCE</text>
<rect x="20" y="55" width="30" height="3" fill="#f85149" class="glow" style="color:#f85149"/>
<text x="60" y="60" font-family="monospace" font-size="12" fill="#8b949e">Twin primes (251)</text>
<g stroke="#21262d" stroke-width="0.5">
<line x1="60.0" y1="60" x2="60.0" y2="840"/>
<line x1="60" y1="60.0" x2="840" y2="60.0"/>
<line x1="146.66666666666669" y1="60" x2="146.66666666666669" y2="840"/>
<line x1="60" y1="146.66666666666669" x2="840" y2="146.66666666666669"/>
<line x1="233.33333333333334" y1="60" x2="233.33333333333334" y2="840"/>
<line x1="60" y1="233.33333333333334" x2="840" y2="233.33333333333334"/>
<line x1="320.0" y1="60" x2="320.0" y2="840"/>
<line x1="60" y1="320.0" x2="840" y2="320.0"/>
<line x1="406.6666666666667" y1="60" x2="406.6666666666667" y2="840"/>
<line x1="60" y1="406.6666666666667" x2="840" y2="406.6666666666667"/>
<line x1="493.3333333333333" y1="60" x2="493.3333333333333" y2="840"/>
<line x1="60" y1="493.3333333333333" x2="840" y2="493.3333333333333"/>
<line x1="580.0" y1="60" x2="580.0" y2="840"/>
<line x1="60" y1="580.0" x2="840" y2="580.0"/>
<line x1="666.6666666666666" y1="60" x2="666.6666666666666" y2="840"/>
<line x1="60" y1="666.6666666666666" x2="840" y2="666.6666666666666"/>
<line x1="753.3333333333334" y1="60" x2="753.3333333333334" y2="840"/>
<line x1="60" y1="753.3333333333334" x2="840" y2="753.3333333333334"/>
<line x1="840.0" y1="60" x2="840.0" y2="840"/>
<line x1="60" y1="840.0" x2="840" y2="840.0"/>
</g>
<path class="path0 glow" style="color:#f85149" d="M 622.90 414.45 L 646.72 427.71 L 667.45 448.88 L 683.78 476.63 L 688.59 512.01 L 686.98 547.96 L 673.25 578.37 L 654.57 603.03 L 632.11 585.67 L 613.43 561.02 L 624.34 528.43 L 640.68 500.67 L 651.59 533.26 L 656.39 568.65 L 633.93 586.00 L 609.12 594.96 L 634.54 599.47 L 658.36 612.73 L 674.70 640.48 L 685.61 673.07 L 684.00 637.13 L 688.80 601.74 L 714.22 597.23 L 739.64 601.74 L 717.19 584.39 L 698.51 559.74 L 709.42 527.14 L 725.75 499.39 L 749.58 486.13 L 775.00 481.62 L 750.18 472.66 L 727.73 455.31 L 732.53 419.93 L 743.44 387.34 L 724.76 411.99 L 702.30 429.35 L 683.62 404.69 L 669.89 374.28 L 674.70 409.66 L 673.09 445.61 L 696.91 432.35 L 722.33 427.83 L 703.65 452.49 L 681.20 469.84 L 662.52 445.18 L 648.79 414.77 L 653.59 450.15 L 651.98 486.10 L 629.53 503.45 L 604.71 512.41 L 586.03 537.07 L 563.57 554.42 L 589.00 549.91 L 614.42 554.42 L 600.69 584.83 L 582.01 609.49 L 592.92 576.90 L 609.25 549.14 L 620.16 581.74 L 624.97 617.12 L 635.88 649.71 L 640.68 685.09 L 618.22 702.44 L 593.40 711.40 L 568.58 702.44 L 546.13 685.09 L 562.46 712.84 L 573.37 745.43 L 554.69 720.78 L 540.96 690.36 L 522.28 715.02 L 499.83 732.37 L 481.15 707.72 L 467.42 677.30 L 492.84 672.79 L 518.26 677.30 L 523.07 712.68 L 521.46 748.63 L 532.37 716.04 L 548.70 688.29 L 574.12 692.80 L 597.95 706.06 L 575.49 688.71 L 556.81 664.05 L 531.99 655.10 L 509.54 637.74 L 514.34 602.36 L 525.25 569.77 L 550.67 574.29 L 574.50 587.55 L 555.82 612.20 L 533.36 629.55 L 508.55 620.60 L 486.09 603.24 L 511.51 607.76 L 535.34 621.02 L 516.66 596.36 L 502.93 565.95 L 501.32 530.00 L 506.12 494.62 L 522.45 522.37 L 533.36 554.97 L 514.69 579.62 L 492.23 596.97 L 478.50 627.39 L 459.82 652.04 L 483.65 638.78 L 509.07 634.27 L 486.61 651.62 L 461.79 660.58 L 460.19 624.63 L 464.99 589.25 L 442.53 606.60 L 417.71 615.56 L 392.89 606.60 L 370.44 589.25 L 351.76 564.59 L 338.03 534.18 L 363.45 529.67 L 388.87 534.18 L 412.70 520.92 L 438.12 516.41 L 413.30 507.45 L 390.85 490.10 L 372.17 465.44 L 358.44 435.03 L 356.83 399.08 L 361.63 363.70 L 366.43 399.08 L 364.82 435.03 L 342.37 417.68 L 323.69 393.02 L 334.60 360.43 L 350.93 332.68 L 349.32 296.73 L 354.13 261.35 L 340.39 291.76 L 321.72 316.42 L 332.63 349.01 L 337.43 384.39 L 342.23 349.01 L 353.14 316.42 L 334.46 291.76 L 320.73 261.35 L 346.15 256.83 L 371.57 261.35 L 382.48 228.76 L 398.82 201.00 L 415.15 228.76 L 426.06 261.35 L 424.45 225.40 L 429.25 190.02 L 434.06 225.40 L 432.45 261.35 L 409.99 244.00 L 391.31 219.34 L 396.11 183.96 L 407.02 151.37 L 432.45 155.88 L 456.27 169.14 L 437.59 193.80 L 415.14 211.15 L 440.56 206.64 L 465.98 211.15 L 447.30 235.81 L 424.85 253.16 L 411.12 283.57 L 392.44 308.23 L 417.86 312.74 L 441.69 326.00 L 458.02 353.75 L 468.93 386.35 L 494.35 381.83 L 519.77 386.35 L 497.32 368.99 L 478.64 344.34 L 489.55 376.93 L 494.35 412.31 L 471.90 429.66 L 447.08 438.62 L 451.88 403.24 L 462.79 370.65 L 467.59 406.03 L 465.98 441.97 L 452.25 472.39 L 433.57 497.04 L 408.75 488.09 L 386.30 470.73 L 391.10 435.35 L 402.01 402.76 L 418.34 430.51 L 429.25 463.11 L 410.58 438.45 L 396.84 408.04 L 374.39 425.39 L 349.57 434.35 L 335.84 464.76 L 317.16 489.42 L 294.71 506.77 L 269.89 515.73 L 295.31 520.24 L 319.13 533.50 L 305.40 563.91 L 286.73 588.57 L 264.27 571.22 L 245.59 546.56 L 271.01 551.07 L 294.84 564.33 L 276.16 588.99 L 253.70 606.34 L 279.13 601.83 L 304.55 606.34 L 315.46 573.75 L 331.79 546.00 L 306.97 537.04 L 284.52 519.69 L 300.85 547.44 L 311.76 580.03 L 298.03 610.44 L 279.35 635.10 L 256.90 617.75 L 238.22 593.09 L 249.13 560.50 L 265.46 532.75 L 276.37 565.34 L 281.17 600.72 L 258.72 618.07 L 233.90 627.03 L 232.29 591.08 L 237.09 555.70 L 214.64 573.05 L 189.82 582.01 L 171.14 557.35 L 157.41 526.94 L 143.68 557.35 L 125.00 582.01 L 148.82 568.75 L 174.25 564.24 L 172.64 528.29 L 177.44 492.91 L 202.86 488.39 L 228.28 492.91 L 205.83 510.26 L 181.01 519.22 L 179.40 483.27 L 184.20 447.89 L 209.62 443.37 L 235.05 447.89 L 216.37 423.23 L 202.64 392.82 L 188.91 423.23 L 170.23 447.89" stroke="#f85149" fill="none" stroke-width="2" stroke-linecap="round" stroke-linejoin="round"/>
<circle class="start-point" cx="622.8956144128271" cy="414.4459295051426" r="5" fill="#f85149"/>
<text x="632.8956144128271" y="404.4459295051426" font-family="monospace" font-size="10" fill="#f85149">START</text>

    <circle cx="170.22817574463969" cy="447.8880163137312" r="4" fill="#f85149" opacity="0">
        <animate attributeName="opacity" from="0" to="1" begin="6.0s" dur="0.5s" fill="freeze"/>
    </circle>

</svg>