<svg width="900" height="900" xmlns="http://www.w3.org/2000/svg">
<style>
    .main-path {
        stroke-dasharray: 45138;
        stroke-dashoffset: 45138;
        animation: draw 12s ease-out forwards;
    }
    @keyframes draw {
        to { stroke-dashoffset: 0; }
    }
    .pulse {
        animation: pulse 1s ease-in-out infinite;
    }
    @keyframes pulse {
        0%, 100% { r: 6; opacity: 1; }
        50% { r: 10; opacity: 0.7; }
    }
    .glow {
        filter: drop-shadow(0 0 8px #f85149);
    }
    </style>
<rect width="100%" height="100%" fill="#0d1117"/>
<text x="20" y="30" font-family="monospace" font-size="18" fill="#f85149">👯 Twin Primes + p·ln(2) — The Natural Frequency</text>
<text x="20" y="52" font-family="monospace" font-size="12" fill="#8b949e">α = ln(2) = 0.693147 | 2 = difference between twins (p, p+2)</text>
<g stroke="#21262d" stroke-width="0.5">
<line x1="60.0" y1="60" x2="60.0" y2="840"/>
<line x1="60" y1="60.0" x2="840" y2="60.0"/>
<line x1="146.66666666666669" y1="60" x2="146.66666666666669" y2="840"/>
<line x1="60" y1="146.66666666666669" x2="840" y2="146.66666666666669"/>
<line x1="233.33333333333334" y1="60" x2="233.33333333333334" y2="840"/>
<line x1="60" y1="233.33333333333334" x2="840" y2="233.33333333333334"/>
<line x1="320.0" y1="60" x2="320.0" y2="840"/>
<line x1="60" y1="320.0" x2="840" y2="320.0"/>
<line x1="406.6666666666667" y1="60" x2="406.6666666666667" y2="840"/>
<line x1="60" y1="406.6666666666667" x2="840" y2="406.6666666666667"/>
<line x1="493.3333333333333" y1="60" x2="493.3333333333333" y2="840"/>
<line x1="60" y1="493.3333333333333" x2="840" y2="493.3333333333333"/>
<line x1="580.0" y1="60" x2="580.0" y2="840"/>
<line x1="60" y1="580.0" x2="840" y2="580.0"/>
<line x1="666.6666666666666" y1="60" x2="666.6666666666666" y2="840"/>
<line x1="60" y1="666.6666666666666" x2="840" y2="666.6666666666666"/>
<line x1="753.3333333333334" y1="60" x2="753.3333333333334" y2="840"/>
<line x1="60" y1="753.3333333333334" x2="840" y2="753.3333333333334"/>
<line x1="840.0" y1="60" x2="840.0" y2="840"/>
<line x1="60" y1="840.0" x2="840" y2="840.0"/>
</g>
<path class="main-path glow" d="M 380.2 250.7 L 400.0 239.9 L 378.0 235.1 L 391.5 253.2 L 375.5 269.1 L 398.0 267.6 L 402.7 289.6 L 413.6 269.9 L 431.7 256.5 L 409.2 254.7 L 389.5 243.7 L 397.2 264.9 L 415.1 278.7 L 410.6 256.6 L 415.7 234.6 L 397.5 247.8 L 420.0 246.7 L 402.2 232.8 L 413.5 213.2 L 392.2 220.6 L 414.1 226.1 L 401.1 207.6 L 397.0 185.4 L 385.6 204.8 L 405.8 194.8 L 383.9 189.1 L 366.5 174.9 L 370.3 197.1 L 348.9 204.1 L 369.6 212.9 L 357.0 194.2 L 354.3 216.6 L 342.5 235.8 L 364.0 229.0 L 342.3 222.9 L 354.7 241.8 L 358.1 264.1 L 370.2 245.0 L 349.7 254.4 L 371.3 260.7 L 349.0 263.8 L 367.9 276.1 L 347.6 266.3 L 356.5 287.1 L 356.0 309.6 L 371.2 292.9 L 349.4 298.6 L 369.6 308.6 L 385.1 292.2 L 362.6 294.5 L 344.3 281.3 L 349.5 303.2 L 357.1 282.0 L 337.5 293.0 L 326.8 312.9 L 347.9 304.9 L 339.9 283.8 L 332.1 304.9 L 336.9 327.0 L 347.7 307.2 L 348.6 329.7 L 362.7 312.1 L 382.9 302.0 L 361.0 296.4 L 363.5 274.0 L 346.9 289.4 L 369.2 285.5 L 349.9 273.9 L 338.1 293.1 L 359.6 286.3 L 350.4 265.7 L 343.9 287.3 L 328.9 304.2 L 351.3 301.2 L 368.5 286.7 L 346.0 286.3 L 325.6 276.6 L 334.6 297.3 L 338.4 275.1 L 321.0 289.4 L 329.6 310.3 L 336.7 288.9 L 353.0 304.5 L 351.0 282.1 L 364.4 263.9 L 342.3 268.8 L 320.3 264.2 L 333.9 282.2 L 338.7 304.2 L 349.5 284.4 L 347.9 261.9 L 334.4 279.9 L 350.7 264.4 L 328.2 265.4 L 329.1 287.9 L 343.2 270.3 L 321.7 277.4 L 342.6 286.1 L 337.0 307.9 L 355.5 295.1 L 372.7 309.8 L 369.3 287.4 L 375.6 265.8 L 356.6 278.0 L 334.3 274.7 L 349.0 291.8 L 346.1 269.5 L 333.6 288.3 L 352.4 300.8 L 346.4 279.1 L 333.6 297.6 L 355.5 292.0 L 371.8 307.6 L 369.7 285.1 L 391.6 279.9 L 371.6 269.5 L 349.5 264.9 L 363.2 282.8 L 384.4 290.6 L 373.5 270.8 L 378.4 248.8 L 360.3 262.2 L 382.8 260.9 L 364.9 247.1 L 344.0 238.7 L 354.3 258.8 L 335.9 271.9 L 358.3 274.1 L 360.6 251.6 L 344.2 267.1 L 338.6 288.9 L 357.2 276.1 L 379.4 272.1 L 360.0 260.5 L 339.6 270.2 L 361.3 276.3 L 346.4 259.3 L 346.6 281.9 L 324.2 278.6 L 339.0 295.7 L 335.9 273.3 L 323.6 292.2 L 306.8 277.1 L 309.6 299.5 L 320.7 319.1 L 325.2 297.0 L 346.4 304.7 L 335.4 285.0 L 327.4 306.1 L 347.3 295.4 L 324.8 293.5 L 340.5 309.7 L 356.8 294.0 L 334.2 295.2 L 315.9 308.3 L 338.3 310.5 L 347.0 289.6 L 326.8 299.7 L 304.2 300.4 L 321.7 314.7 L 343.4 321.1 L 331.3 302.1 L 331.0 324.6 L 346.0 307.7 L 366.2 317.8 L 357.5 297.0 L 364.9 275.6 L 345.4 286.9 L 325.5 276.3 L 333.5 297.3 L 313.7 308.3 L 335.8 313.0 L 327.9 334.1 L 347.7 323.3 L 325.2 321.5 L 341.0 337.6 L 336.6 315.5 L 325.4 335.1 L 307.1 348.3 L 329.6 350.3 L 349.6 340.0 L 327.7 334.7 L 350.1 337.2 L 334.8 320.6 L 349.1 303.1 L 326.8 307.0 L 324.0 329.4 L 340.8 314.3 L 362.4 307.6 L 341.7 298.5 L 319.4 302.0 L 338.5 314.0 L 350.6 294.9 L 329.0 301.4 L 307.2 307.5 L 327.6 317.1 L 347.0 305.6 L 324.8 301.6 L 302.4 303.8 L 320.8 316.9 L 312.5 295.9 L 305.0 317.2 L 326.1 309.2 L 304.9 301.4 L 288.9 285.4 L 290.6 307.9 L 286.1 285.8 L 275.0 305.5 L 276.2 328.0 L 290.0 310.2 L 268.7 317.6 L 289.6 326.0 L 278.2 345.4 L 299.6 338.2 L 283.0 353.5 L 305.5 352.9 L 286.3 341.1 L 293.1 362.6 L 315.7 362.4 L 298.5 347.8 L 288.9 327.3 L 282.7 349.0 L 268.0 366.2 L 290.4 362.8 L 307.4 348.0 L 284.8 348.1 L 264.3 338.6 L 273.7 359.2 L 283.4 338.8 L 262.7 347.9 L 244.1 335.0 L 249.7 356.9 L 272.3 357.9 L 255.9 342.4 L 277.2 349.9 L 266.1 330.3 L 264.7 352.8 L 280.5 336.7 L 296.6 320.9 L 274.1 322.3 L 253.0 314.1 L 263.6 334.1 L 250.6 315.6 L 248.3 338.1 L 267.0 325.3 L 244.5 322.8 L 225.2 311.1 L 232.2 332.6 L 251.1 344.8 L 244.8 323.1 L 259.4 340.3 L 259.7 317.8 L 281.9 321.4 L 267.5 304.1 L 261.6 282.3 L 251.8 302.6 L 237.7 285.0 L 236.8 307.5 L 250.4 325.5 L 251.9 303.0 L 268.0 287.2 L 245.4 288.6 L 249.4 310.8 L 261.0 291.4 L 241.6 279.8 L 248.6 301.3 L 233.5 284.5 L 234.0 307.1 L 256.5 306.7 L 239.2 292.2 L 216.9 289.3 L 231.8 306.2 L 219.4 325.0 L 241.1 318.9 L 263.4 322.5 L 248.9 305.2 L 264.0 288.4 L 241.6 291.2 L 227.4 273.6 L 226.6 296.2 L 231.1 274.1 L 213.2 287.8 L 205.5 309.0 L 225.3 298.1 L 247.8 296.3 L 229.6 282.9 L 209.4 292.9 L 231.2 298.6 L 222.3 319.3 L 242.6 309.5 L 222.0 300.3 L 231.6 320.8 L 219.5 301.7 L 216.1 324.0 L 231.1 307.1 L 208.8 310.0 L 204.9 332.3 L 222.4 318.0 L 240.1 304.0 L 217.6 302.9 L 225.5 324.1 L 233.4 302.9 L 228.6 280.8 L 217.7 300.6 L 206.5 320.2 L 227.8 312.8 L 205.9 307.4 L 218.9 325.8 L 223.0 348.0 L 234.5 328.5 L 219.2 311.9 L 219.8 334.5 L 232.5 353.1 L 235.2 330.7 L 247.0 311.5 L 225.4 318.3 L 242.3 303.3 L 219.7 303.6 L 222.8 281.2 L 205.9 296.1 L 199.8 274.4 L 190.1 294.8 L 172.8 309.3 L 195.4 309.6 L 216.4 301.3 L 195.1 293.9 L 190.3 271.8 L 179.5 291.6 L 189.9 311.6 L 195.1 289.7 L 173.2 284.3 L 186.3 302.7 L 207.2 311.2 L 197.0 291.1 L 203.7 312.7 L 212.7 291.9 L 193.9 304.4 L 216.3 307.3 L 225.6 286.8 L 205.1 296.2 L 182.5 296.1 L 199.6 310.9 L 193.4 289.2 L 183.8 309.7 L 182.8 332.2 L 198.3 315.8 L 218.1 326.7 L 210.3 305.5 L 220.8 325.5 L 225.9 303.5 L 206.5 292.1 L 213.7 313.5 L 191.3 310.9 L 206.5 327.5 L 228.8 330.8 L 214.1 313.7 L 207.9 292.0 L 198.4 312.5 L 215.1 327.6 L 212.4 305.2 L 192.2 295.0 L 200.8 315.9 L 178.8 321.2 L 198.9 331.6 L 180.8 318.0 L 185.6 340.1 L 208.0 342.0 L 192.3 325.8 L 196.7 348.0 L 207.9 328.4 L 222.8 345.3 L 222.6 322.8 L 210.4 303.8 L 207.2 326.2 L 229.6 329.4 L 214.8 312.3 L 226.6 331.6 L 230.3 309.4 L 215.0 326.0 L 237.4 323.4 L 258.9 330.5 L 247.3 311.1 L 246.4 333.7 L 261.9 317.2 L 284.4 319.1 L 268.6 303.0 L 286.9 289.8 L 264.5 287.7 L 255.9 308.6 L 276.0 298.5 L 276.5 321.0 L 290.9 303.7 L 311.3 293.9 L 289.5 287.9 L 292.4 265.6 L 275.6 280.6 L 290.5 297.5 L 290.3 274.9 L 281.4 254.2 L 274.5 275.7 L 255.1 287.2 L 277.3 291.2 L 270.0 312.5 L 289.5 301.2 L 311.6 305.6 L 297.8 287.8 L 284.4 269.7 L 282.7 292.2 L 281.5 269.7 L 267.6 287.5 L 257.5 267.3 L 251.9 289.1 L 268.5 273.9 L 246.0 274.5 L 265.2 286.3 L 258.4 264.8 L 236.9 271.5 L 257.6 280.5 L 267.1 301.0 L 273.3 279.3 L 264.4 258.6 L 257.5 280.1 L 275.0 265.8 L 252.4 265.1 L 271.0 278.0 L 265.4 256.1 L 244.1 248.6 L 255.2 268.2 L 256.7 245.7 L 240.8 261.8 L 227.3 243.7 L 225.7 266.2 L 239.3 248.3 L 217.2 252.9 L 236.5 264.6 L 229.6 243.1 L 246.6 258.0 L 243.5 235.7 L 233.9 256.1 L 254.5 247.0 L 276.0 253.8 L 264.3 234.6 L 279.9 218.3 L 257.5 220.4 L 236.2 212.9 L 247.3 232.5 L 242.7 254.6 L 260.7 240.9 L 271.5 260.7 L 276.3 238.7 L 289.9 220.6 L 267.8 225.4 L 287.2 237.0 L 280.2 215.5 L 259.6 224.9 L 281.3 231.3 L 293.8 212.5 L 272.0 218.5 L 287.6 202.2 L 265.1 204.3 L 247.3 218.2 L 269.9 219.4 L 277.6 198.2 L 257.9 209.1 L 241.8 225.0 L 264.4 223.5 L 241.9 221.3 L 257.4 237.7 L 253.4 215.5 L 241.9 234.9 L 250.8 214.2 L 230.5 224.0 L 252.9 226.8 L 237.8 210.0 L 258.4 219.2 L 248.9 198.8 L 234.2 181.6 L 234.1 204.2 L 213.8 194.4 L 222.7 215.1 L 222.1 237.7 L 237.3 221.0 L 256.9 209.8 L 234.8 205.4 L 219.1 189.2 L 220.3 211.8 L 216.2 189.6 L 204.8 209.0 L 216.9 228.1 L 220.2 205.7 L 203.6 190.5 L 206.2 212.9 L 188.5 226.9 L 211.0 228.0 L 213.2 250.4 L 226.3 232.0 L 215.9 212.0 L 210.6 233.9 L 188.1 234.5 L 205.5 248.9 L 224.3 236.4 L 201.9 233.5 L 181.0 241.8 L 202.3 249.3 L 218.5 264.9 L 216.5 242.4 L 202.7 224.6 L 201.4 247.1 L 190.9 267.1 L 211.9 258.9 L 196.0 274.9 L 218.5 273.2 L 196.4 277.8 L 216.1 288.8 L 223.5 310.1 L 231.9 289.2 L 211.0 280.7 L 221.2 300.8 L 223.6 278.4 L 207.1 293.8 L 229.5 296.5 L 214.3 279.8 L 207.5 258.2 L 198.6 279.0 L 204.8 257.3 L 185.9 269.6 L 173.1 288.2 L 195.0 282.5 L 174.0 290.9 L 195.3 298.3 L 187.2 277.2 L 179.6 298.4 L 197.6 312.0 L 192.9 289.9 L 174.5 303.0 L 196.9 305.2 L 216.4 316.6 L 209.1 295.2 L 203.6 317.1 L 222.1 304.2 L 210.5 323.5 L 231.9 316.5 L 254.3 313.8 L 235.6 301.2 L 246.7 281.5 L 225.4 289.2 L 213.9 308.5 L 235.3 301.5 L 249.6 284.0 L 227.3 287.8 L 226.9 265.3 L 212.4 282.6 L 234.0 276.0 L 213.4 266.9 L 233.6 277.0 L 224.9 256.1 L 202.4 258.2 L 220.8 271.3 L 210.4 291.4 L 231.4 283.0 L 249.5 296.5 L 244.7 274.5 L 265.8 266.5 L 244.6 258.7 L 266.8 254.6 L 247.4 243.1 L 246.8 220.6 L 232.4 238.0 L 217.7 255.1 L 240.0 251.8 L 246.4 273.4 L 255.8 252.9 L 249.1 274.5 L 268.3 262.5 L 290.5 266.3 L 276.2 248.9 L 295.6 237.3 L 273.4 233.3 L 253.7 244.3 L 275.7 248.9 L 297.8 254.0 L 284.4 235.7 L 281.7 258.2 L 298.4 243.0 L 304.4 221.2 L 285.6 233.8 L 276.1 213.3 L 269.9 235.0 L 292.2 238.7 L 277.8 221.3 L 294.3 236.7 L 291.9 214.3 L 313.2 221.8 L 302.0 202.2 L 306.6 180.1 L 288.7 193.8 L 266.1 194.7 L 283.8 208.8 L 306.2 211.1 L 290.8 194.6 L 296.7 172.8 L 278.0 185.4 L 278.0 208.0 L 292.8 191.0 L 271.1 197.2 L 291.5 206.7 L 270.0 199.9 L 281.8 219.1 L 293.2 238.6 L 297.4 216.4 L 288.9 195.5 L 281.6 216.8 L 299.8 230.1 L 294.7 208.1 L 272.7 213.1 L 292.6 223.7 L 288.0 201.7 L 277.0 221.4 L 259.2 207.6 L 263.6 229.7 L 252.3 249.2 L 273.6 241.9 L 253.4 251.9 L 275.2 257.6 L 292.6 271.9 L 288.8 249.7 L 301.4 268.4 L 304.2 246.0 L 289.6 263.3 L 311.9 259.8 L 332.5 250.4 L 310.8 244.1 L 314.0 221.7 L 297.0 236.5 L 275.3 242.8 L 295.8 252.2 L 310.8 235.4 L 288.4 238.2 L 266.9 231.5 L 278.7 250.7 L 263.2 267.1 L 285.7 264.9 L 266.1 276.1 L 288.2 280.5 L 292.7 258.3 L 274.8 272.1 L 278.9 294.3 L 290.4 274.9 L 289.6 252.3 L 275.4 269.9 L 293.1 255.9 L 270.6 254.8 L 268.4 232.4 L 255.3 250.7 L 234.1 258.4 L 255.1 266.5 L 269.1 248.8 L 246.9 253.0 L 246.1 230.5 L 231.9 248.1 L 253.4 241.1 L 232.6 232.3 L 210.0 232.2 L 227.0 247.1 L 209.7 261.6 L 232.3 261.9 L 235.1 284.3 L 247.6 265.5 L 264.3 280.7 L 261.7 258.3 L 267.2 280.2 L 277.4 260.1 L 297.1 271.0 L 289.3 249.8 L 276.1 231.5 L 274.1 254.0 L 271.7 276.5 L 288.2 261.1 L 310.8 260.4 L 293.4 246.1 L 312.5 258.1 L 305.9 236.5 L 299.6 258.2 L 318.6 245.9 L 296.0 245.9 L 313.0 260.7 L 324.7 280.0 L 328.5 257.8 L 349.5 249.4 L 328.2 242.0 L 310.1 228.4 L 314.9 250.5 L 298.6 266.1 L 321.1 265.0 L 301.0 275.2 L 322.9 280.7 L 307.5 264.2 L 308.3 286.7 L 285.9 284.1 L 301.1 300.8 L 316.0 317.7 L 315.8 295.2 L 336.3 304.8 L 327.1 284.1 L 323.5 306.4 L 340.8 291.9 L 326.4 274.5 L 325.9 297.1 L 317.2 276.3 L 310.2 297.8 L 302.7 319.1 L 322.3 307.8 L 342.1 318.6 L 334.2 297.5 L 329.3 319.5 L 347.4 306.0 L 363.3 322.1 L 361.8 299.5 L 384.3 301.5 L 368.6 285.3 L 346.2 282.7 L 361.4 299.3 L 370.8 319.9 L 377.2 298.2 L 358.3 285.8 L 364.4 307.5 L 344.2 297.4 L 352.9 318.3 L 357.0 296.1 L 339.4 310.1 L 349.8 290.1 L 328.8 298.4 L 350.9 302.9 L 337.1 285.0 L 332.1 263.0 L 321.5 282.9 L 303.5 296.6 L 326.0 298.0 L 304.9 305.9 L 326.1 313.8 L 347.1 322.1 L 336.6 302.1 L 322.4 319.6 L 344.6 315.7 L 361.5 330.7 L 358.6 308.3 L 349.7 287.6 L 342.8 309.0 L 348.5 330.9 L 358.5 310.6 L 379.4 302.0 L 358.0 294.8 L 377.7 283.9 L 355.6 279.2 L 357.1 256.7 L 341.2 272.8 L 325.0 288.5 L 347.6 287.2 L 333.4 304.8 L 355.6 300.8 L 358.3 278.4 L 341.6 293.5 L 363.9 290.0 L 344.7 278.1 L 338.3 256.4 L 329.0 277.0 L 332.2 299.3 L 344.4 280.4 L 329.8 263.1 L 329.5 285.7 L 307.3 282.0 L 321.7 299.3 L 308.6 317.7 L 330.5 312.4 L 317.0 294.4 L 315.4 316.9 L 333.6 303.6 L 311.1 301.7 L 291.5 290.5 L 299.0 311.8 L 316.8 325.7 L 312.5 303.6 L 306.6 325.3 L 325.3 312.8 L 344.3 300.6 L 321.9 297.3 L 334.5 278.6 L 312.7 284.6 L 294.9 298.4 L 317.4 299.6 L 318.7 277.1 L 303.0 293.2 L 325.5 294.9 L 309.6 278.9 L 327.8 265.6 L 305.3 263.7 L 285.3 274.2 L 307.3 279.4 L 329.8 278.3 L 312.1 264.3 L 294.7 250.0 L 298.5 272.3 L 276.8 266.1 L 289.1 285.0 L 282.0 306.4 L 301.4 294.9 L 283.6 308.8 L 306.2 309.9 L 297.9 330.9 L 317.9 320.5 L 339.8 326.0 L 326.8 307.5 L 340.3 289.4 L 318.3 294.2 L 316.4 316.7 L 332.6 300.9 L 343.8 281.3 L 322.5 288.8 L 332.3 309.1 L 338.2 287.3 L 329.0 266.7 L 322.4 288.3 L 300.1 284.9 L 314.7 302.1 L 324.8 281.9 L 303.9 290.6 L 306.1 313.0 L 319.2 294.6 L 303.3 310.6 L 325.8 309.0 L 324.2 286.5 L 310.7 304.5 L 288.1 305.1 L 305.5 319.4 L 309.1 341.7 L 321.0 322.5 L 343.6 322.6 L 326.6 307.8 L 326.2 330.3 L 341.3 313.5 L 343.5 336.0 L 356.5 317.5 L 336.7 306.7 L 344.6 327.9 L 342.9 350.4 L 358.9 334.5 L 373.3 351.9 L 373.8 329.3 L 362.1 310.0 L 358.3 332.2 L 345.6 350.8 L 367.4 345.1 L 382.7 328.6 L 360.3 331.0 L 344.5 347.1 L 367.0 345.3 L 385.0 331.7 L 362.5 330.2 L 342.6 319.5 L 350.6 340.6 L 373.1 339.2 L 355.2 325.5 L 370.6 342.0 L 369.7 319.4 L 384.1 302.0 L 361.8 305.8 L 347.0 322.8 L 369.4 319.7 L 369.1 342.2 L 384.1 325.3 L 403.5 313.9 L 381.3 309.8 L 403.9 311.0 L 387.6 295.3 L 385.9 272.8 L 372.5 291.0 L 352.7 301.9 L 374.8 306.6 L 366.8 327.7 L 386.6 317.0 L 365.3 324.3 L 386.2 332.8 L 396.2 353.0 L 401.9 331.1 L 416.2 313.6 L 393.9 317.5 L 393.5 295.0 L 379.0 312.3 L 360.0 324.4 L 382.3 327.7 L 385.7 305.4 L 368.5 320.0 L 354.5 302.3 L 353.5 324.8 L 343.1 344.9 L 364.1 336.5 L 344.4 347.5 L 366.4 352.1 L 382.6 336.4 L 360.1 337.7 L 379.7 348.9 L 372.2 327.6 L 394.4 323.5 L 374.9 312.1 L 358.3 327.3 L 380.9 326.7 L 377.7 304.3 L 365.4 323.3 L 384.4 335.6 L 378.1 313.9 L 387.9 293.6 L 367.2 302.6 L 361.4 280.8 L 351.5 301.0 L 341.2 321.1 L 362.1 312.7 L 372.3 332.9 L 377.8 311.0 L 368.7 331.6 L 389.1 322.0 L 389.1 344.5 L 403.9 327.5 L 381.4 329.8 L 399.9 342.8 L 411.3 362.3 L 415.5 340.1 L 410.9 318.0 L 399.9 337.7 L 422.3 340.0 L 406.9 323.6 L 391.7 306.8 L 392.2 329.4 L 370.5 335.6 L 391.0 345.1 L 412.8 339.5 L 392.6 329.4 L 410.4 315.5 L 387.9 314.4 L 371.8 298.6 L 373.6 321.1 L 389.3 337.3 L 388.1 314.8 L 409.6 307.9 L 388.8 299.0 L 405.7 284.1 L 383.1 284.3 L 383.2 306.9 L 397.9 289.8 L 375.4 289.5 L 392.3 304.5 L 414.3 309.3 L 400.8 291.2 L 396.1 269.1 L 385.2 288.9 L 386.7 311.4 L 400.3 293.5 L 390.5 273.1 L 384.6 294.9 L 364.0 285.7 L 373.5 306.2 L 376.7 283.8 L 359.7 298.6 L 382.0 295.5 L 363.1 283.2 L 365.9 305.6 L 378.4 286.9 L 368.4 307.1 L 389.2 298.4 L 369.7 309.6 L 391.8 313.9 L 393.3 336.5 L 406.9 318.4 L 385.7 326.1 L 406.8 334.2 L 396.9 313.9 L 391.1 335.7 L 368.7 333.0 L 383.8 349.7 L 364.9 362.1 L 387.3 365.1 L 375.0 384.0 L 396.7 377.8 L 376.6 367.5 L 385.1 388.4 L 389.4 366.3 L 371.6 380.2 L 379.7 401.3 L 387.4 380.1 L 366.2 372.2 L 377.1 392.0 L 372.1 414.0 L 390.3 400.6 L 370.1 410.8 L 392.0 416.3 L 397.6 394.5 L 379.1 407.3 L 356.7 404.6 L 371.8 421.3 L 353.0 433.8 L 375.4 436.7 L 358.3 422.1 L 361.6 444.4 L 364.6 466.8 L 377.0 447.9 L 356.3 456.9 L 377.9 463.7 L 389.5 483.0 L 393.4 460.8 L 385.9 482.1 L 405.5 470.9 L 425.3 481.7 L 417.4 460.5 L 412.5 482.6 L 430.7 469.1 L 435.0 491.3 L 446.2 471.7 L 426.1 482.0 L 448.0 487.4 L 432.6 470.9 L 433.4 493.4 L 453.8 483.8 L 432.1 477.7 L 446.9 460.7 L 424.6 463.8 L 445.0 473.4 L 435.8 452.8 L 441.5 474.6 L 451.5 454.4 L 470.0 467.4 L 464.6 445.5 L 448.2 430.0 L 450.4 452.4 L 448.2 474.9 L 464.5 459.4 L 485.9 452.1 L 465.0 443.6 L 442.8 447.7 L 462.2 459.1 L 484.6 455.7 L 465.5 443.7 L 442.9 443.8 L 460.0 458.5 L 442.9 473.2 L 465.5 473.3 L 484.6 461.3 L 462.2 457.9 L 439.7 456.7 L 456.0 472.4 L 478.0 467.6 L 458.2 456.7 L 468.9 476.6 L 473.9 454.6 L 472.7 432.1 L 458.8 449.9 L 436.6 454.0 L 456.1 465.4 L 441.9 482.9 L 464.1 479.0 L 446.8 464.5 L 450.4 486.8 L 469.4 474.7 L 447.1 471.4 L 464.0 486.4 L 461.0 464.0 L 467.7 442.4 L 448.5 454.3 L 446.0 431.9 L 433.2 450.5 L 447.2 468.2 L 448.2 445.7 L 443.5 467.7 L 461.6 454.1 L 482.6 462.3 L 472.1 442.4 L 490.3 429.1 L 467.9 427.1 L 484.4 411.8 L 461.9 412.5 L 439.3 412.8 L 456.5 427.4 L 450.1 405.8 L 440.8 426.3 L 418.9 431.9 L 439.1 442.0 L 461.6 443.7 L 445.7 427.7 L 425.7 438.2 L 447.7 443.3 L 452.9 421.4 L 434.6 434.5 L 441.7 455.9 L 450.3 435.1 L 428.6 428.9 L 441.0 447.8 L 426.3 430.6 L 426.1 453.2 L 417.1 432.5 L 410.4 454.0 L 429.0 466.8 L 423.3 444.9 L 443.3 455.4 L 435.0 434.4 L 413.0 429.5 L 426.4 447.6 L 414.6 466.8 L 436.1 460.1 L 458.7 460.4 L 441.8 445.4 L 422.5 457.1 L 444.8 460.9 L 443.3 438.4 L 429.7 456.3 L 409.7 466.9 L 431.7 472.0 L 410.9 463.4 L 421.0 483.6 L 423.5 461.1 L 406.9 476.4 L 390.0 491.4 L 412.6 491.1 L 396.0 475.9 L 398.6 498.3 L 399.7 475.8 L 384.1 492.1 L 406.1 487.0 L 386.1 476.4 L 375.5 496.3 L 396.5 488.2 L 378.0 501.2 L 400.5 503.5 L 402.9 481.1 L 386.4 496.4 L 380.7 518.3 L 399.3 505.5 L 380.2 493.5 L 386.7 515.1 L 392.9 536.8 L 402.5 516.4 L 383.3 528.2 L 405.5 531.9 L 391.8 514.0 L 390.5 536.5 L 405.8 553.1 L 405.1 530.5 L 404.8 508.0 L 390.2 525.2 L 369.8 515.5 L 378.9 536.2 L 378.5 558.8 L 393.6 542.0 L 376.0 556.1 L 398.5 557.0 L 394.2 579.1 L 412.0 565.2 L 423.1 584.9 L 427.6 562.7 L 419.5 541.7 L 411.8 562.9 L 392.0 552.1 L 399.9 573.2 L 384.0 557.1 L 385.5 579.7 L 407.9 582.3 L 392.7 565.6 L 404.9 546.6 L 383.2 553.0 L 371.5 533.7 L 367.7 555.9 L 387.2 544.5 L 365.0 540.4 L 346.5 527.4 L 351.9 549.3 L 369.9 535.7 L 347.4 534.2 L 365.5 547.7 L 360.7 525.6 L 339.3 532.9 L 360.2 541.4 L 382.4 545.3 L 368.2 527.8 L 362.5 506.0 L 352.5 526.2 L 330.4 530.9 L 350.2 541.8 L 369.7 553.0 L 362.3 531.7 L 341.0 539.0 L 361.9 547.5 L 376.4 564.8 L 376.8 542.2 L 355.9 550.8 L 377.3 558.0 L 357.4 547.4 L 365.5 568.5 L 388.0 566.9 L 370.0 553.3 L 392.4 555.7 L 377.0 539.2 L 379.6 561.6 L 392.4 543.0 L 388.3 565.2 L 405.9 551.1 L 391.9 533.4 L 390.9 556.0 L 404.0 537.6 L 382.1 542.9 L 377.5 520.8 L 366.5 540.5 L 386.1 551.6 L 378.6 530.3 L 382.5 552.6 L 394.1 533.2 L 406.1 514.1 L 384.5 520.7 L 399.6 503.9 L 377.2 506.7 L 354.8 509.0 L 373.2 522.0 L 357.2 506.1 L 358.9 528.6 L 381.4 526.9 L 363.3 513.5 L 385.4 518.4 L 371.9 500.2 L 354.1 486.4 L 358.5 508.5 L 357.8 486.0 L 343.6 503.5 L 328.4 486.7 L 328.9 509.3 L 350.6 515.5 L 338.3 496.6 L 332.3 474.8 L 322.5 495.2 L 318.6 517.4 L 336.2 503.2 L 316.5 514.3 L 338.7 518.7 L 316.2 517.2 L 332.1 533.1 L 352.1 522.5 L 330.1 517.5 L 327.5 539.9 L 344.1 524.6 L 334.4 504.2 L 328.4 526.0 L 322.4 504.2 L 312.7 524.6 L 291.6 516.7 L 302.3 536.5 L 279.8 537.7 L 297.6 551.6 L 287.8 531.2 L 281.9 553.0 L 278.4 530.7 L 266.4 549.8 L 286.9 540.3 L 265.2 534.1 L 274.6 513.6 L 254.1 522.9 L 244.0 543.1 L 264.9 534.4 L 276.4 553.8 L 280.4 531.6 L 258.4 536.7 L 278.4 547.2 L 257.2 539.4 L 268.0 559.2 L 276.2 538.1 L 256.3 548.7 L 260.5 570.8 L 271.8 551.3 L 289.4 565.5 L 285.4 543.3 L 292.2 564.8 L 301.2 544.1 L 279.5 550.6 L 300.1 559.9 L 314.9 576.9 L 314.9 554.3 L 294.2 563.3 L 315.7 570.1 L 293.7 575.3 L 313.7 585.7 L 333.5 596.6 L 325.7 575.4 L 348.2 577.4 L 332.5 561.2 L 350.1 575.3 L 346.0 553.1 L 363.6 539.0 L 341.1 538.1 L 321.6 549.5 L 343.8 553.7 L 336.4 575.0 L 355.9 563.8 L 342.6 545.6 L 340.8 568.1 L 363.2 570.0 L 347.5 553.8 L 325.0 553.9 L 342.1 568.6 L 334.7 589.9 L 354.2 578.7 L 352.0 601.1 L 368.4 585.6 L 381.3 604.1 L 383.7 581.7 L 386.5 559.3 L 369.7 574.3 L 352.6 589.1 L 375.2 589.1 L 354.6 598.3 L 376.1 604.9 L 366.4 625.2 L 387.1 616.3 L 408.0 607.7 L 386.6 600.5 L 408.6 595.7 L 388.8 584.9 L 369.2 573.7 L 376.7 595.0 L 383.7 616.4 L 392.5 595.6 L 412.8 585.8 L 391.0 579.9 L 373.7 565.4 L 377.3 587.7 L 357.1 577.7 L 365.8 598.5 L 374.1 619.5 L 381.6 598.2 L 386.9 576.3 L 368.5 589.3 L 379.9 569.9 L 358.6 577.1 L 380.4 582.7 L 367.6 564.1 L 358.6 543.4 L 351.8 565.0 L 331.6 555.0 L 340.4 575.8 L 339.7 598.4 L 355.0 581.8 L 333.1 587.3 L 353.3 597.5 L 330.7 596.5 L 347.1 612.0 L 341.8 590.0 L 331.4 610.1 L 309.9 616.9 L 330.7 625.8 L 315.6 642.6 L 338.0 639.8 L 348.1 619.7 L 327.2 628.2 L 346.9 617.1 L 324.7 612.6 L 314.0 632.5 L 335.1 624.5 L 313.0 628.9 L 332.6 640.1 L 322.3 620.0 L 316.9 641.9 L 317.6 664.5 L 331.8 647.0 L 354.1 643.2 L 334.9 631.5 L 349.4 614.2 L 327.1 617.7 L 346.0 605.4 L 323.7 602.3 L 304.6 590.2 L 311.1 611.8 L 291.8 623.6 L 314.1 627.3 L 307.0 648.7 L 326.4 637.2 L 346.0 626.0 L 323.8 621.6 L 310.1 603.6 L 308.7 626.2 L 322.2 608.1 L 300.2 612.9 L 305.3 590.9 L 287.0 604.2 L 273.0 621.9 L 295.2 617.7 L 276.7 630.6 L 299.1 633.0 L 301.6 610.5 L 285.0 625.9 L 279.3 647.7 L 297.9 635.0 L 315.0 649.7 L 311.8 627.4 L 297.0 610.3 L 297.0 632.9 L 275.1 638.6 L 295.4 648.6 L 274.0 641.3 L 285.4 660.8 L 281.0 682.9 L 298.8 669.1 L 303.9 647.1 L 285.6 660.4 L 277.4 681.4 L 297.4 670.9 L 313.8 655.4 L 291.2 656.4 L 310.7 667.8 L 303.5 646.4 L 297.8 668.3 L 316.4 655.5 L 320.0 677.8 L 331.9 658.6 L 329.0 636.3 L 316.5 655.1 L 294.0 657.0 L 312.3 670.3 L 330.3 683.9 L 325.6 661.8 L 348.1 660.5 L 330.3 646.7 L 351.9 653.3 L 339.9 634.2 L 362.3 631.5 L 343.6 618.9 L 325.2 605.8 L 330.6 627.7 L 322.5 606.7 L 314.8 627.9 L 336.0 620.1 L 314.8 612.1 L 325.9 592.4 L 304.7 600.0 L 320.1 616.6 L 319.2 594.0 L 341.5 590.0 L 322.1 578.5 L 342.8 587.4 L 333.0 567.1 L 313.8 555.2 L 320.5 576.7 L 298.2 580.1 L 317.3 592.2 L 333.6 607.7 L 331.4 585.3 L 344.7 567.0 L 322.7 572.1 L 321.1 594.6 L 337.1 578.7 L 350.5 596.8 L 352.3 574.3 L 330.9 581.6 L 351.8 590.1 L 370.5 577.5 L 348.1 574.8 L 365.2 560.0 L 342.7 559.9 L 364.9 563.8 L 350.6 546.3 L 367.0 561.8 L 364.8 539.3 L 351.1 557.3 L 373.2 552.7 L 391.8 540.1 L 369.4 537.4 L 390.0 528.2 L 368.4 521.6 L 378.2 501.3 L 357.5 510.3 L 375.4 496.5 L 352.8 495.2 L 345.0 516.3 L 364.8 505.5 L 354.1 485.7 L 349.1 507.7 L 368.7 518.9 L 361.3 497.6 L 376.8 513.9 L 375.8 491.4 L 384.3 470.5 L 364.2 480.7 L 352.3 461.5 L 348.7 483.8 L 327.2 476.9 L 338.9 496.2 L 359.2 506.2 L 350.4 485.4 L 355.6 507.3 L 366.0 487.3 L 344.7 494.8 L 365.7 503.1 L 345.4 513.0 L 367.3 518.8 L 385.5 532.1 L 380.4 510.1 L 364.3 494.3 L 366.1 516.8 L 345.0 508.7 L 355.7 528.6 L 334.4 536.2 L 355.4 544.4 L 344.1 563.9 L 365.4 556.6 L 386.3 565.3 L 376.2 545.1 L 355.4 553.9 L 376.9 560.9 L 397.9 552.7 L 376.7 545.1 L 354.1 546.2 L 371.9 560.1 L 349.6 563.9 L 368.9 575.6 L 360.0 596.4 L 380.3 586.5 L 363.2 571.8 L 366.5 594.1 L 379.4 575.6 L 357.5 581.1 L 335.3 577.0 L 349.4 594.6 L 347.2 572.2 L 334.1 590.6 L 316.2 576.9 L 320.8 599.0 L 304.4 614.5 L 326.9 613.5 L 307.5 602.0 L 314.6 623.4 L 311.1 601.1 L 299.2 620.3 L 314.0 637.3 L 314.0 614.7 L 310.2 637.0 L 327.6 622.6 L 305.2 625.2 L 323.8 637.9 L 315.2 617.1 L 308.0 638.5 L 323.8 654.6 L 322.5 632.1 L 299.9 633.3 L 317.8 647.2 L 310.4 625.8 L 302.0 646.8 L 323.4 639.7 L 302.6 631.0 L 323.0 621.5 L 301.3 615.3 L 284.1 629.9 L 306.7 630.1 L 318.3 649.5 L 322.2 627.2 L 313.5 606.4 L 306.4 627.8 L 291.0 644.4 L 313.5 642.0 L 317.7 664.1 L 329.0 644.6 L 308.9 654.8 L 330.8 660.3 L 343.6 678.9 L 346.1 656.4 L 325.4 647.4 L 335.2 667.8 L 354.3 679.7 L 347.7 658.2 L 337.8 678.4 L 358.5 669.6 L 336.3 665.7 L 350.5 683.2 L 339.5 702.9 L 360.7 695.2 L 338.5 699.3 L 357.9 710.8 L 377.0 698.7 L 354.7 695.3 L 361.5 673.8 L 342.3 685.6 L 332.5 706.0 L 353.2 697.0 L 350.8 674.6 L 337.9 693.1 L 357.8 703.8 L 349.8 682.7 L 328.6 690.6 L 349.8 698.5 L 360.4 718.4 L 365.4 696.4 L 379.1 678.5 L 357.0 683.0 L 373.7 667.8 L 351.1 668.4 L 372.9 662.3 L 352.5 652.7 L 356.6 630.5 L 338.9 644.6 L 358.8 655.2 L 350.8 634.1 L 352.2 611.6 L 336.4 627.7 L 358.4 622.9 L 338.6 612.0 L 350.1 592.6 L 328.7 599.8 L 306.2 597.3 L 321.6 613.9 L 336.3 596.7 L 314.0 600.1 L 310.6 622.4 L 327.8 607.7 L 313.2 590.5 L 312.9 613.1 L 325.5 594.3 L 303.7 600.2 L 298.5 578.3 L 288.0 598.3 L 269.8 584.9 L 274.8 606.9 L 252.5 609.9 L 271.3 622.3 L 283.2 641.4 L 286.8 619.2 L 267.4 630.8 L 289.7 634.7 L 311.8 638.9 L 297.9 621.2 L 291.3 599.6 L 282.1 620.2 L 265.2 635.1 L 287.8 635.0 L 278.7 614.3 L 272.0 635.9 L 259.0 654.3 L 280.9 648.9 L 303.1 653.1 L 289.1 635.4 L 267.8 628.0 L 279.0 647.5 L 265.0 665.2 L 287.2 661.1 L 268.2 648.9 L 274.6 670.6 L 265.1 691.0 L 285.7 681.8 L 306.4 673.0 L 285.0 666.0 L 263.6 658.7 L 274.9 678.2 L 254.5 687.7 L 276.2 694.0 L 254.3 699.7 L 274.6 709.7 L 288.9 727.2 L 289.5 704.6 L 305.0 688.1 L 282.5 690.4 L 305.1 691.9 L 289.0 676.0 L 278.4 696.0 L 299.5 687.8 L 304.4 709.9 L 315.1 690.0 L 333.2 676.4 L 310.6 674.9 L 309.0 652.4 L 295.5 670.4 L 279.7 654.3 L 281.1 676.9 L 291.0 697.1 L 296.8 675.3 L 309.0 694.3 L 312.2 672.0 L 331.0 684.4 L 325.0 662.7 L 318.2 684.2 L 337.4 672.4 L 350.7 654.2 L 328.7 659.3 L 306.6 654.7 L 320.3 672.6 L 318.7 695.1 L 334.7 679.2 L 348.0 697.4 L 349.9 674.9 L 359.8 695.1 L 365.6 673.3 L 385.0 661.8 L 362.8 657.8 L 384.7 652.4 L 364.7 642.1 L 385.8 634.2 L 364.7 626.3 L 386.9 622.2 L 367.4 610.8 L 352.4 593.9 L 352.7 616.4 L 333.6 628.5 L 355.9 631.9 L 358.4 654.3 L 371.2 635.8 L 363.0 614.7 L 355.5 636.0 L 335.6 625.4 L 343.6 646.5 L 339.2 624.3 L 328.0 644.0 L 336.6 623.1 L 316.4 633.3 L 335.1 620.6 L 312.7 617.9 L 298.0 635.1 L 320.3 631.8 L 301.8 618.9 L 307.4 640.8 L 299.0 619.8 L 291.6 641.1 L 296.7 663.1 L 307.2 643.1 L 325.4 656.5 L 320.4 634.5 L 340.4 624.0 L 318.5 618.8 L 297.2 626.2 L 318.1 634.6 L 333.7 650.9 L 332.6 628.4 L 330.0 650.8 L 346.7 635.6 L 363.7 620.8 L 341.1 620.9 L 319.4 627.0 L 339.8 636.6 L 356.4 652.0 L 354.0 629.5 L 332.7 637.0 L 353.7 645.3 L 370.6 630.4 L 348.0 630.6 L 364.6 645.9 L 362.1 623.5 L 342.5 634.6 L 364.6 639.0 L 380.7 623.1 L 358.2 624.6 L 364.0 602.8 L 345.3 615.5 L 322.9 612.6 L 337.9 629.5 L 354.8 614.5 L 332.3 614.7 L 328.9 592.4 L 316.8 611.5 L 310.4 633.1 L 329.4 621.0 L 315.2 603.5 L 314.5 626.0 L 325.9 645.5 L 330.0 623.2 L 337.9 644.4 L 345.8 623.2 L 325.6 633.3 L 347.4 638.9 L 356.9 618.4 L 336.3 627.7 L 357.7 635.0 L 346.3 615.5 L 323.8 614.1 L 339.9 629.9 L 321.9 616.2 L 326.5 638.3 L 339.2 657.0 L 341.8 634.6 L 363.6 640.6 L 351.1 621.8 L 362.7 641.1 L 366.6 618.9 L 359.1 640.2 L 378.7 629.1 L 373.8 607.0 L 363.1 626.9 L 364.7 649.4 L 378.2 631.3 L 377.3 608.8 L 363.2 626.4 L 342.5 617.4 L 352.2 637.8 L 330.6 644.3 L 351.2 653.5 L 345.0 631.8 L 335.5 652.3 L 353.1 638.2 L 330.5 637.3 L 308.0 636.0 L 324.2 651.7 L 310.8 669.9 L 332.8 664.9 L 355.4 664.2 L 337.9 649.9 L 323.6 667.4 L 345.8 663.6 L 328.6 649.0 L 332.1 671.3 L 341.3 650.7 L 320.8 660.2 L 340.0 648.2 L 317.7 644.7 L 340.2 645.3 L 323.6 630.1 L 334.0 610.1 L 313.0 618.4 L 299.8 636.6 L 321.7 631.5 L 323.5 654.0 L 336.9 635.9 L 338.5 613.4 L 322.5 629.4 L 345.1 628.6 L 327.5 614.4 L 347.9 604.7 L 326.2 598.7 L 341.1 615.6 L 340.9 593.0 L 360.0 580.9 L 337.7 577.6 L 323.2 560.2 L 322.8 582.8 L 324.3 560.3 L 308.4 576.3 L 316.3 555.2 L 296.5 565.9 L 288.9 544.7 L 280.7 565.7 L 299.0 552.6 L 276.5 550.5 L 294.3 564.5 L 290.0 542.3 L 274.5 525.9 L 275.5 548.5 L 261.0 531.2 L 260.6 553.7 L 278.1 539.5 L 255.5 538.8 L 235.3 528.8 L 244.0 549.6 L 236.8 571.0 L 256.2 559.6 L 245.0 540.0 L 240.7 562.2 L 260.6 572.8 L 252.5 551.7 L 275.0 553.5 L 259.2 537.4 L 255.3 515.2 L 243.6 534.5 L 253.2 555.0 L 259.4 533.3 L 256.0 555.6 L 273.2 540.9 L 268.0 519.0 L 257.5 539.0 L 239.7 552.8 L 262.2 554.0 L 248.6 536.0 L 247.1 558.5 L 251.6 580.6 L 262.7 560.9 L 283.7 569.0 L 273.1 549.1 L 253.1 559.6 L 275.1 564.8 L 296.4 557.3 L 275.4 549.0 L 268.9 527.4 L 259.7 548.0 L 280.5 539.2 L 259.1 532.2 L 251.9 553.6 L 271.3 542.1 L 292.4 550.2 L 281.8 530.3 L 264.3 516.0 L 268.1 538.2 L 290.4 534.5 L 271.2 522.7 L 293.3 526.9 L 279.3 509.2 L 256.9 507.0 L 272.4 523.4 L 254.9 509.1 L 258.8 531.4 L 270.8 550.4 L 274.2 528.1 L 251.7 529.9 L 269.9 543.3 L 288.0 529.8 L 265.5 528.1 L 270.6 506.1 L 252.3 519.4 L 274.7 522.2 L 259.6 505.4 L 263.1 527.7 L 275.1 508.6 L 265.9 488.0 L 259.4 509.6 L 281.8 507.1 L 263.2 494.3 L 279.4 510.0 L 277.4 487.5 L 285.0 466.2 L 265.3 477.3 L 287.8 478.7 L 271.7 462.9 L 260.0 482.2 L 281.5 475.3 L 287.7 497.0 L 297.3 476.6 L 316.0 489.1 L 310.1 467.3 L 299.5 487.3 L 320.6 479.1 L 343.1 480.4 L 327.0 464.7 L 313.1 482.5 L 335.2 478.1 L 329.7 500.0 L 348.2 487.1 L 367.0 474.6 L 344.6 471.7 L 323.7 480.2 L 345.0 487.5 L 361.4 503.1 L 359.2 480.6 L 380.4 488.3 L 369.5 468.6 L 392.0 467.2 L 374.1 453.5 L 368.6 475.4 L 387.1 462.5 L 366.7 472.2 L 388.4 478.2 L 411.0 478.1 L 393.9 463.4 L 403.7 443.1 L 383.0 452.0 L 404.9 446.6 L 384.8 436.3 L 392.4 457.5 L 400.6 436.5 L 420.2 447.8 L 412.8 426.4 L 405.8 405.0 L 397.0 425.8 L 379.5 440.0 L 402.0 440.7 L 402.9 418.2 L 387.5 434.7 L 368.9 421.8 L 374.5 443.7 L 358.5 427.7 L 360.1 450.2 L 382.1 455.3 L 368.8 437.1 L 364.3 414.9 L 353.2 434.6 L 368.8 451.0 L 367.8 428.4 L 345.5 432.0 L 364.6 443.9 L 376.7 424.8 L 355.1 431.3 L 334.0 423.2 L 344.6 443.1 L 360.2 459.5 L 359.1 436.9 L 342.1 422.1 L 345.2 444.4 L 339.3 422.6 L 329.5 442.9 L 348.8 431.3 L 326.6 427.4 L 343.1 442.8 L 340.7 420.4 L 319.6 412.3 L 330.2 432.2 L 323.0 410.8 L 314.4 431.7 L 305.5 452.4 L 325.8 442.6 L 319.9 420.9 L 310.1 441.2 L 295.9 423.6 L 295.1 446.2 L 303.0 467.3 L 310.9 446.2 L 329.5 433.3 L 307.0 430.9 L 329.6 430.5" stroke="#f85149" fill="none" stroke-width="2" stroke-linecap="round"/>
<circle class="pulse" cx="380.1904357410486" cy="250.71930262312617" r="6" fill="#3fb950"/>
<text x="392.1904357410486" y="242.71930262312617" font-family="monospace" font-size="11" fill="#3fb950">START (3,5)</text>
<circle cx="329.5769190737621" cy="430.45638992688083" r="6" fill="#f85149" opacity="0">
        <animate attributeName="opacity" from="0" to="1" begin="12s" dur="0.5s" fill="freeze"/>
    </circle>
<text x="20" y="840" font-family="monospace" font-size="12" fill="#8b949e">N = 2000 twin primes</text>
<text x="20" y="860" font-family="monospace" font-size="14" fill="#f85149" font-weight="bold">|S|/√N = 0.1850 — MINIMAL!</text>
<text x="20" y="880" font-family="monospace" font-size="11" fill="#58a6ff">Phase shift Δφ = -4π·ln(2) ≈ -139° → near triple symmetry</text>
<text x="620" y="820" font-family="monospace" font-size="11" fill="#a371f7">🔬 Why ln(2)?</text>
<text x="620" y="840" font-family="monospace" font-size="10" fill="#8b949e">• 2 = twin difference</text>
<text x="620" y="855" font-family="monospace" font-size="10" fill="#8b949e">• Δφ ≈ -120° = 2π/3</text>
<text x="620" y="870" font-family="monospace" font-size="10" fill="#8b949e">• Triple symmetry → cancel</text>
<text x="620" y="888" font-family="monospace" font-size="11" fill="#3fb950">🎯 Q3 for twins!</text>
</svg>