<svg width="900" height="900" xmlns="http://www.w3.org/2000/svg">
<rect width="100%" height="100%" fill="#1a1a2e"/>
<text x="20" y="30" font-family="monospace" font-size="18" fill="#eee">MAJOR ARC (α=0.02): Twins follow the resonance</text>
<rect x="20" y="55" width="20" height="3" fill="#4ecdc4"/>
<text x="50" y="60" font-family="monospace" font-size="12" fill="#ccc">All primes</text>
<rect x="20" y="80" width="20" height="3" fill="#ff6b6b"/>
<text x="50" y="85" font-family="monospace" font-size="12" fill="#ccc">Twin primes only</text>
<path d="M 603.50 296.34 L 627.61 304.39 L 650.76 316.30 L 670.91 335.32 L 686.78 360.25 L 691.44 392.04 L 689.88 424.33 L 676.54 451.65 L 658.39 473.81 L 634.27 481.85 L 612.46 466.26 L 594.31 444.11 L 592.74 411.82 L 603.34 382.54 L 619.21 357.61 L 642.36 345.70 L 665.51 357.61 L 676.11 386.89 L 680.78 418.67 L 667.44 445.99 L 645.62 461.58 L 621.50 469.63 L 599.69 454.04 L 586.35 426.72 L 591.01 394.93 L 614.16 383.02 L 638.86 387.08 L 662.01 398.99 L 677.88 423.92 L 688.48 453.20 L 686.92 485.49 L 662.80 477.45 L 644.65 455.30 L 643.09 423.00 L 647.76 391.22 L 672.46 387.16 L 697.16 391.22 L 713.03 416.15 L 711.46 448.44 L 698.12 475.76 L 674.01 483.81 L 652.19 468.22 L 634.04 446.07 L 644.64 416.79 L 660.51 391.86 L 683.66 379.95 L 708.36 375.89 L 713.03 407.68 L 688.91 415.73 L 664.80 407.68 L 642.98 392.09 L 629.64 364.77 L 634.30 332.98 L 644.90 303.70 L 669.61 307.76 L 685.48 332.69 L 683.91 364.99 L 665.76 387.14 L 643.95 402.73 L 619.83 394.68 L 601.68 372.53 L 588.34 345.21 L 604.21 320.28 L 620.08 345.21 L 624.75 376.99 L 623.18 409.29 L 609.84 436.61 L 591.69 414.46 L 590.13 382.16 L 613.28 370.25 L 637.98 366.20 L 661.13 378.11 L 671.73 407.39 L 658.39 434.71 L 634.27 442.75 L 612.46 427.17 L 599.11 399.85 L 603.78 368.06 L 626.93 356.15 L 651.63 360.20 L 662.23 389.48 L 644.08 411.63 L 622.26 427.22 L 604.11 405.07 L 590.77 377.75 L 595.44 345.96 L 611.31 321.03 L 636.01 316.98 L 651.88 341.91 L 656.55 373.69 L 654.98 405.99 L 641.64 433.31 L 619.82 417.72 L 618.26 385.43 L 628.86 356.15 L 653.56 352.09 L 676.71 364.00 L 687.31 393.28 L 665.49 408.87 L 641.38 416.92 L 651.98 387.64 L 675.13 375.73 L 691.00 400.66 L 689.44 432.96 L 671.29 455.11 L 649.47 470.69 L 625.35 462.65 L 623.79 430.35 L 639.66 405.42 L 664.36 401.37 L 689.06 405.42 L 704.93 430.35 L 703.37 462.65 L 690.03 489.97 L 671.88 512.12 L 653.73 489.97 L 664.33 460.69 L 680.20 435.76 L 703.35 423.85 L 726.50 435.76 L 737.10 465.04 L 741.76 496.82 L 717.65 504.87 L 693.53 496.82 L 680.19 469.50 L 690.79 440.22 L 715.50 444.28 L 726.10 473.56 L 707.95 495.71 L 683.83 487.66 L 670.49 460.34 L 675.16 428.55 L 691.03 403.62 L 715.73 407.68 L 731.60 432.61 L 736.26 464.39 L 718.11 486.54 L 694.00 494.59 L 692.44 462.30 L 715.58 450.39 L 726.19 479.66 L 730.85 511.45 L 709.03 527.04 L 684.92 535.09 L 660.80 527.04 L 638.98 511.45 L 643.65 479.66 L 666.80 491.58 L 682.67 516.51 L 693.27 545.79 L 691.71 578.08 L 667.59 570.03 L 649.44 547.88 L 636.10 520.56 L 634.54 488.27 L 650.41 513.20 L 655.07 544.99 L 636.92 567.14 L 615.11 551.55 L 613.54 519.25 L 624.14 489.98 L 647.29 478.06 L 670.44 489.98 L 657.10 517.30 L 635.28 532.88 L 611.17 524.84 L 597.83 497.52 L 608.43 468.24 L 631.58 456.33 L 642.18 485.60 L 640.61 517.90 L 622.47 540.05 L 600.65 555.64 L 582.50 533.49 L 569.16 506.17 L 573.82 474.38 L 598.52 470.33 L 623.23 474.38 L 627.89 506.17 L 626.33 538.46 L 608.18 560.61 L 606.61 528.32 L 617.22 499.04 L 633.09 474.11 L 656.23 462.19 L 679.38 474.11 L 689.98 503.39 L 676.64 530.71 L 652.53 538.75 L 630.71 523.16 L 655.41 527.22 L 678.56 539.13 L 677.00 571.43 L 655.18 587.02 L 637.03 564.86 L 635.47 532.57 L 651.34 507.64 L 676.04 511.69 L 674.47 543.99 L 661.13 571.31 L 637.02 579.36 L 615.20 563.77 L 597.05 541.62 L 595.49 509.32 L 620.19 505.27 L 630.79 534.54 L 606.67 526.50 L 584.86 510.91 L 571.52 483.59 L 576.18 451.80 L 586.78 422.52 L 609.93 410.61 L 634.63 414.67 L 657.78 426.58 L 673.65 451.51 L 655.50 473.66 L 633.68 489.25 L 609.57 481.20 L 614.23 512.99 L 600.89 540.31 L 576.78 548.36 L 558.63 526.21 L 583.33 522.15 L 593.93 551.43 L 569.82 559.48 L 545.70 551.43 L 523.88 535.84 L 510.54 508.52 L 515.21 476.74 L 538.36 464.82 L 563.06 468.88 L 586.21 480.79 L 596.81 510.07 L 574.99 525.66 L 556.84 503.51 L 543.50 476.19 L 541.94 443.89 L 546.60 412.11 L 562.47 387.17 L 587.17 383.12 L 591.84 414.90 L 567.72 422.95 L 549.57 400.80 L 565.44 375.87 L 590.15 371.81 L 613.29 383.72 L 623.89 413.00 L 610.55 440.32 L 588.74 455.91 L 566.92 440.32 L 553.58 413.00 L 576.73 401.09 L 601.43 405.15 L 617.30 430.08 L 627.90 459.36 L 626.34 491.65 L 608.19 513.80 L 586.37 529.39 L 562.25 521.34 L 560.69 489.05 L 576.56 513.98 L 575.00 546.28 L 561.66 573.60 L 543.51 595.75 L 559.38 570.82 L 582.53 558.90 L 607.23 554.85 L 617.83 584.13 L 596.01 599.72 L 571.90 607.76 L 558.55 580.44 L 569.16 551.16 L 592.30 539.25 L 615.45 551.16 L 626.05 580.44 L 601.94 572.40 L 588.60 545.07 L 587.03 512.78 L 591.70 480.99 L 616.40 485.05 L 621.07 516.84 L 596.95 524.88 L 578.80 502.73 L 601.95 490.82 L 606.62 522.61 L 593.28 549.93 L 571.46 565.51 L 547.34 573.56 L 523.23 565.51 L 501.41 549.93 L 506.07 518.14 L 530.78 522.20 L 546.65 547.13 L 545.08 579.42 L 526.93 557.27 L 513.59 529.95 L 538.29 525.90 L 562.99 529.95 L 538.88 538.00 L 517.06 522.41 L 515.50 490.12 L 531.37 465.18 L 554.52 453.27 L 579.22 449.22 L 602.37 461.13 L 607.03 492.91 L 593.69 520.23 L 569.58 512.19 L 547.76 496.60 L 552.42 464.81 L 575.57 476.72 L 574.01 509.02 L 555.86 531.17 L 537.71 509.02 L 524.37 481.70 L 522.81 449.40 L 527.47 417.62 L 552.17 413.56 L 556.84 445.35 L 555.28 477.64 L 533.46 462.05 L 515.31 439.90 L 513.75 407.61 L 524.35 378.33 L 540.22 353.40 L 563.37 365.31 L 568.03 397.09 L 546.21 381.51 L 569.36 393.42 L 585.23 418.35 L 583.67 450.64 L 561.85 466.23 L 560.29 433.94 L 564.95 402.15 L 580.82 377.22 L 605.52 381.28 L 592.18 408.60 L 574.03 430.75 L 549.92 438.80 L 531.77 416.64 L 530.21 384.35 L 546.08 359.42 L 569.23 347.51 L 579.83 376.78 L 584.49 408.57 L 571.15 381.25 L 575.82 349.46 L 586.42 320.18 L 609.57 308.27 L 634.27 312.33 L 650.14 337.26 L 628.32 352.85 L 604.20 344.80 L 586.06 322.65 L 572.71 295.33 L 577.38 263.55 L 593.25 238.61 L 617.95 234.56 L 622.62 266.34 L 609.28 293.66 L 585.16 301.71 L 583.60 269.42 L 594.20 240.14 L 617.35 228.23 L 627.95 257.50 L 614.61 284.83 L 590.49 292.87 L 566.38 284.83 L 589.53 296.74 L 567.71 312.33 L 549.56 290.18 L 554.22 258.39 L 570.09 233.46 L 594.79 229.40 L 619.50 233.46 L 635.37 258.39 L 613.55 242.80 L 624.15 213.52 L 640.02 188.59 L 650.62 217.87 L 637.28 245.19 L 615.46 260.78 L 602.12 233.46 L 625.27 221.55 L 641.14 246.48 L 651.74 275.76 L 650.18 308.05 L 628.36 323.64 L 604.24 315.59 L 590.90 288.27 L 589.34 255.98 L 594.01 224.19 L 609.88 199.26 L 634.58 195.20 L 650.45 220.14 L 655.11 251.92 L 653.55 284.22 L 635.40 306.37 L 613.58 290.78 L 595.43 268.63 L 606.03 239.35 L 630.73 235.29 L 653.88 247.21 L 640.54 274.53 L 616.43 266.48 L 621.09 234.69 L 631.69 205.42 L 654.84 193.50 L 679.54 197.56 L 702.69 209.47 L 684.54 231.62 L 671.20 204.30 L 669.64 172.01 L 685.51 147.07 L 710.21 151.13 L 726.08 176.06 L 730.75 207.85 L 708.93 192.26 L 707.37 159.96 L 730.51 148.05 L 753.66 159.96 L 764.26 189.24 L 750.92 216.56 L 726.81 208.52 L 731.47 176.73 L 754.62 188.64 L 770.49 213.58 L 768.93 245.87 L 750.78 268.02 L 728.96 283.61 L 753.66 279.55 L 778.36 283.61 L 783.03 315.39 L 764.88 337.55 L 740.77 345.59 L 739.20 313.30 L 749.80 284.02 L 774.50 279.96 L 779.17 311.75 L 765.83 339.07 L 744.01 323.48 L 730.67 296.16 L 735.34 264.38 L 745.94 293.65 L 727.79 315.80 L 705.97 331.39 L 704.41 299.10 L 702.84 331.39 L 689.50 358.71 L 671.35 380.87 L 653.20 358.71 L 651.64 326.42 L 662.24 297.14 L 685.39 309.05 L 695.99 338.33 L 682.65 365.65 L 660.83 381.24 L 639.01 365.65 L 663.71 369.71 L 686.86 381.62 L 702.73 406.55 L 713.33 435.83 L 691.52 451.42 L 716.22 447.36 L 740.92 451.42 L 756.79 476.35 L 755.23 508.65 L 737.08 530.80 L 712.96 538.85 L 691.14 523.26 L 672.99 501.11 L 688.86 476.17 L 712.01 464.26 L 722.61 493.54 L 727.28 525.33 L 705.46 540.91 L 681.35 548.96 L 686.01 517.18 L 696.61 487.90 L 712.48 512.83 L 710.92 545.12 L 697.58 517.80 L 722.28 513.75 L 738.15 538.68 L 742.82 570.47 L 741.25 602.76 L 727.91 630.08 L 709.76 652.23 L 720.36 622.95 L 745.06 618.90 L 749.73 650.68 L 736.39 678.00 L 712.27 669.96 L 690.46 654.37 L 677.11 627.05 L 681.78 595.26 L 692.38 565.98 L 715.53 554.07 L 731.40 579.00 L 742.00 608.28 L 720.18 623.87 L 702.03 601.72 L 688.69 574.40 L 704.56 549.47 L 720.43 574.40 L 718.87 606.69 L 705.53 634.01 L 681.41 642.06 L 663.26 619.91 L 661.70 587.62 L 677.57 562.68 L 688.17 591.96 L 666.35 607.55 L 642.24 615.60 L 618.12 607.55 L 628.73 578.27 L 651.87 566.36 L 676.58 570.42 L 687.18 599.70 L 669.03 621.85 L 644.91 613.80 L 631.57 586.48 L 636.24 554.69 L 640.90 586.48 L 627.56 613.80 L 609.41 635.95 L 587.59 620.36 L 603.46 595.43 L 626.61 583.52 L 649.76 595.43 L 627.94 611.02 L 603.83 619.06 L 590.49 591.74 L 613.64 579.83 L 638.34 583.89 L 661.49 595.80 L 659.92 628.09 L 635.81 620.05 L 617.66 597.90 L 622.32 566.11 L 638.19 591.04 L 642.86 622.83 L 629.52 650.15 L 611.37 672.30 L 587.25 680.35 L 565.44 664.76 L 547.29 642.61 L 563.16 617.67 L 586.31 605.76 L 572.97 633.08 L 577.63 601.30 L 602.33 605.35 L 625.48 617.27 L 641.35 642.20 L 639.79 674.49 L 621.64 696.64 L 599.82 712.23 L 575.71 704.19 L 600.41 700.13 L 625.11 704.19 L 640.98 729.12 L 616.86 737.17 L 595.05 721.58 L 605.65 692.30 L 621.52 667.37 L 646.22 663.31 L 650.88 695.09 L 626.77 687.05 L 604.95 671.46 L 591.61 644.14 L 596.27 612.35 L 619.42 624.26 L 635.29 649.20 L 645.89 678.48 L 621.78 670.43 L 646.48 674.48 L 651.15 706.27 L 637.80 733.59 L 619.66 755.74 L 597.84 740.15 L 579.69 718.00 L 590.29 688.72 L 606.16 663.79 L 629.31 675.70 L 639.91 704.98 L 644.57 736.77 L 622.76 752.35 L 598.64 760.40 L 585.30 733.08 L 589.97 701.30 L 613.12 689.38 L 589.00 681.34 L 587.44 649.04 L 592.10 617.26 L 616.80 613.20 L 632.67 638.13 L 631.11 670.43 L 606.99 678.48 L 617.60 649.20 L 640.74 637.29 L 651.35 666.56 L 629.53 682.15 L 605.41 690.20 L 616.01 660.92 L 639.16 649.01 L 663.86 653.06 L 679.73 678.00 L 678.17 710.29 L 660.02 688.14 L 646.68 660.82 L 662.55 635.89 L 678.42 660.82 L 676.86 693.11 L 663.52 720.44 L 645.37 742.59 L 621.25 750.63 L 644.40 738.72 L 669.10 734.67 L 673.77 766.45 L 660.43 793.77 L 647.09 766.45 L 657.69 737.17 L 680.84 725.26 L 703.98 737.17 L 682.17 752.76 L 680.60 720.47 L 685.27 688.68 L 701.14 663.75 L 725.84 659.69 L 750.54 663.75 L 766.41 688.68 L 764.85 720.98 L 740.73 729.02 L 718.91 713.43 L 729.52 684.16 L 752.66 696.07 L 730.85 711.66 L 706.73 719.70 L 684.91 704.11 L 671.57 676.79 L 696.27 680.85 L 706.88 710.13 L 693.53 682.81 L 691.97 650.51 L 696.64 618.73 L 712.51 593.79 L 737.21 589.74 L 761.91 593.79 L 760.35 626.09 L 747.00 653.41 L 728.86 631.26 L 733.52 663.04 L 711.70 678.63 L 687.59 670.59 L 692.25 638.80 L 715.40 650.71 L 726.00 679.99 L 707.85 702.14 L 689.70 679.99 L 676.36 652.67 L 674.80 620.38 L 690.67 595.44 L 715.37 599.50 L 731.24 624.43 L 717.90 651.75 L 699.75 673.90 L 675.64 681.95 L 674.07 649.66 L 689.94 624.72 L 714.64 620.67 L 737.79 632.58 L 748.39 661.86 L 753.06 693.64 L 731.24 709.23 L 707.13 717.28 L 711.79 685.49 L 736.49 689.55 L 747.09 718.83 L 722.98 710.78 L 704.83 688.63 L 703.27 656.34 L 727.97 652.28 L 752.67 656.34 L 768.54 681.27 L 766.97 713.56 L 748.83 735.71 L 771.97 723.80 L 795.12 735.71 L 781.78 763.04 L 759.96 778.62 L 738.15 763.04 L 742.81 731.25 L 765.96 719.34 L 776.56 748.62 L 752.45 740.57 L 734.30 718.42 L 720.96 691.10 L 719.39 658.80 L 724.06 690.59 L 699.94 698.64 L 678.13 683.05 L 659.98 660.90 L 683.13 648.98 L 706.27 660.90 L 716.88 690.18 L 692.76 698.22 L 679.42 670.90 L 702.57 658.99 L 727.27 663.04 L 709.12 640.89 L 707.56 608.60 L 723.43 583.67 L 748.13 579.61 L 764.00 604.54 L 762.43 636.84 L 749.09 664.16 L 730.94 686.31 L 712.80 664.16 L 711.23 631.87 L 721.83 602.59 L 737.70 577.65 L 762.40 573.60 L 740.59 589.19 L 716.47 581.14 L 694.65 565.55 L 681.31 538.23 L 706.01 542.29 L 729.16 554.20 L 745.03 579.13 L 726.88 601.28 L 705.07 616.87 L 680.95 608.82 L 662.80 586.67 L 678.67 611.60 L 677.11 643.90 L 658.96 666.05 L 634.84 674.10 L 616.69 651.95 L 627.29 622.67 L 603.18 630.71 L 607.85 598.93 L 618.45 569.65 L 641.59 557.74 L 666.30 561.79 L 689.44 573.71 L 705.32 598.64 L 715.92 627.92 L 697.77 650.07 L 684.43 622.75 L 689.09 590.96 L 704.96 566.03 L 729.66 570.08 L 734.33 601.87 L 720.99 629.19 L 719.42 596.90 L 730.02 567.62 L 745.89 542.69 L 770.60 538.63 L 748.78 523.04 L 735.44 495.72 L 746.04 466.44 L 770.74 470.50 L 786.61 495.43 L 785.05 527.72 L 763.23 543.31 L 739.11 535.27 L 743.78 503.48 L 759.65 478.55 L 784.35 474.49 L 809.05 478.55 L 824.92 503.48 L 829.59 535.27 L 816.25 562.59 L 798.10 584.74 L 776.28 569.15 L 758.13 547.00 L 781.28 535.09 L 804.43 547.00 L 780.31 555.04 L 756.20 547.00 L 760.86 515.21 L 784.01 527.12 L 765.86 504.97 L 764.30 472.68 L 780.17 497.61 L 784.83 529.40 L 763.02 513.81 L 761.45 481.51 L 777.32 456.58 L 800.47 444.67 L 823.62 456.58 L 810.28 483.90 L 786.16 491.95 L 764.35 476.36 L 769.01 444.58 L 779.61 415.30 L 804.31 419.35 L 802.75 451.65 L 780.93 467.24 L 762.78 445.08 L 749.44 417.76 L 765.31 392.83 L 790.01 396.89 L 788.45 429.18 L 764.34 437.23 L 787.48 425.32 L 812.19 421.26 L 835.33 433.17 L 840.00 464.96 L 826.66 492.28 L 804.84 507.87 L 783.02 492.28 L 806.17 480.37 L 822.04 505.30 L 820.48 537.59 L 802.33 559.74 L 780.51 575.33 L 756.40 567.29 L 754.83 534.99 L 779.54 530.94 L 804.24 534.99 L 808.90 566.78 L 795.56 594.10 L 771.45 602.15 L 749.63 586.56 L 748.06 554.26 L 763.93 529.33 L 787.08 541.24 L 797.68 570.52 L 802.35 602.31 L 789.01 629.63 L 764.89 637.67 L 743.08 622.08 L 747.74 590.30 L 770.89 578.39 L 749.07 593.98 L 724.96 585.93 L 749.66 581.87 L 774.36 585.93 L 756.21 608.08 L 732.10 616.13 L 713.95 593.98 L 724.55 564.70 L 702.73 580.29 L 680.91 564.70 L 704.06 552.79 L 728.76 556.84 L 751.91 568.75 L 750.35 601.05 L 732.20 623.20 L 710.38 638.79 L 686.26 630.74 L 668.12 608.59 L 692.82 604.53 L 708.69 629.47 L 690.54 651.62 L 688.97 619.32 L 712.12 631.23 L 722.72 660.51 L 727.39 692.30 L 703.27 700.35 L 681.46 684.76 L 686.12 652.97 L 696.72 623.69 L 721.42 627.75 L 744.57 639.66 L 755.17 668.94 L 737.02 691.09 L 723.68 663.77 L 722.12 631.47 L 726.78 663.26 L 725.22 695.55 L 703.40 679.97 L 685.25 657.81 L 695.85 628.54 L 711.73 603.60 L 734.87 615.52 L 710.76 623.56 L 686.64 615.52 L 664.83 599.93 L 651.49 572.61 L 662.09 543.33 L 677.96 568.26 L 676.39 600.55 L 658.24 622.70 L 636.43 638.29 L 623.09 610.97 L 647.79 606.92 L 663.66 631.85 L 668.32 663.63 L 654.98 690.96 L 678.13 679.04 L 702.83 674.99 L 713.43 704.27 L 718.10 736.05 L 704.76 763.37 L 682.94 778.96 L 658.82 770.91 L 645.48 743.59 L 656.08 714.31 L 679.23 702.40 L 703.93 706.46 L 702.37 738.75 L 684.22 760.90 L 660.11 752.86 L 664.77 721.07 L 680.64 696.14 L 696.51 721.07 L 678.36 743.22 L 656.54 727.63 L 679.69 739.55 L 690.29 768.82 L 668.48 784.41 L 644.36 776.37 L 622.54 760.78 L 647.24 764.83 L 657.85 794.11 L 633.73 786.06 L 632.17 753.77 L 648.04 728.84 L 663.91 753.77 L 668.57 785.55 L 667.01 817.85 L 648.86 840.00 L 627.04 824.41 L 625.48 792.12 L 641.35 767.18 L 664.50 755.27 L 687.65 767.18 L 674.31 739.86 L 697.46 727.95 L 713.33 752.88 L 723.93 782.16 L 702.11 797.75 L 683.96 775.60 L 670.62 748.28 L 695.32 744.22 L 720.02 748.28 L 701.87 770.43 L 717.74 745.50 L 722.41 777.28 L 709.07 804.60 L 695.73 777.28 L 720.43 781.34 L 736.30 806.27 L 746.90 835.55 L 722.78 827.50 L 704.63 805.35 L 703.07 773.06 L 707.73 741.27 L 732.44 737.22 L 748.31 762.15 L 734.97 789.47 L 710.85 797.52 L 689.03 781.93 L 687.47 749.63 L 698.07 720.36 L 721.22 708.44 L 745.92 704.39 L 756.52 733.67 L 761.19 765.45 L 737.07 773.50 L 712.96 765.45 L 699.61 738.13 L 704.28 706.35 L 714.88 677.07 L 738.03 688.98 L 753.90 713.91 L 732.08 729.50 L 736.75 697.71 L 752.62 672.78 L 777.32 668.73 L 759.17 690.88 L 735.05 698.92 L 716.90 676.77 L 715.34 644.48 L 725.94 615.20 L 750.64 611.15 L 773.79 623.06 L 760.45 650.38 L 736.34 658.43 L 712.22 650.38 L 722.82 621.10 L 745.97 633.01 L 761.84 657.94 L 772.44 687.22 L 777.11 655.44 L 792.98 630.50 L 779.64 657.83 L 755.52 665.87 L 733.70 650.28 L 744.30 621.01 L 767.45 632.92 L 754.11 660.24 L 730.00 668.29 L 705.88 660.24 L 684.07 644.65 L 670.72 617.33 L 695.43 621.38 L 711.30 646.32 L 693.15 668.47 L 669.03 660.42 L 655.69 633.10 L 654.13 600.80 L 678.83 596.75 L 703.53 600.80 L 701.97 633.10 L 717.84 608.17" stroke="#4ecdc4" fill="none" stroke-width="1.5" opacity="0.85"/>
<path d="M 603.50 296.34 L 626.65 308.25 L 646.79 327.27 L 662.66 352.21 L 667.33 383.99 L 665.76 416.29 L 652.42 443.61 L 634.27 465.76 L 612.46 450.17 L 594.31 428.02 L 604.91 398.74 L 620.78 373.81 L 631.38 403.09 L 636.04 434.87 L 614.23 450.46 L 590.11 458.51 L 614.81 462.56 L 637.96 474.47 L 653.83 499.41 L 664.43 528.69 L 662.87 496.39 L 667.53 464.61 L 692.23 460.55 L 716.94 464.61 L 695.12 449.02 L 676.97 426.87 L 687.57 397.59 L 703.44 372.66 L 726.59 360.74 L 751.29 356.69 L 727.17 348.64 L 705.36 333.05 L 710.02 301.27 L 720.62 271.99 L 702.47 294.14 L 680.66 309.73 L 662.51 287.58 L 649.17 260.26 L 653.83 292.04 L 652.27 324.34 L 675.42 312.42 L 700.12 308.37 L 681.97 330.52 L 660.15 346.11 L 642.00 323.96 L 628.66 296.64 L 633.33 328.42 L 631.76 360.72 L 609.94 376.30 L 585.83 384.35 L 567.68 406.50 L 545.86 422.09 L 570.56 418.04 L 595.26 422.09 L 581.92 449.41 L 563.77 471.56 L 574.37 442.28 L 590.24 417.35 L 600.85 446.63 L 605.51 478.42 L 616.11 507.69 L 620.78 539.48 L 598.96 555.07 L 574.84 563.11 L 550.73 555.07 L 528.91 539.48 L 544.78 564.41 L 555.38 593.69 L 537.23 571.54 L 523.89 544.22 L 505.74 566.37 L 483.92 581.96 L 465.78 559.81 L 452.43 532.49 L 477.14 528.43 L 501.84 532.49 L 506.50 564.27 L 504.94 596.57 L 515.54 567.29 L 531.41 542.35 L 556.11 546.41 L 579.26 558.32 L 557.44 542.73 L 539.29 520.58 L 515.18 512.54 L 493.36 496.95 L 498.03 465.16 L 508.63 435.88 L 533.33 439.94 L 556.48 451.85 L 538.33 474.00 L 516.51 489.59 L 492.39 481.54 L 470.58 465.95 L 495.28 470.01 L 518.43 481.92 L 500.28 459.77 L 486.94 432.45 L 485.37 400.15 L 490.04 368.37 L 505.91 393.30 L 516.51 422.58 L 498.36 444.73 L 476.54 460.32 L 463.20 487.64 L 445.05 509.79 L 468.20 497.88 L 492.90 493.82 L 471.08 509.41 L 446.97 517.46 L 445.41 485.17 L 450.07 453.38 L 428.25 468.97 L 404.14 477.02 L 380.02 468.97 L 358.21 453.38 L 340.06 431.23 L 326.72 403.91 L 351.42 399.85 L 376.12 403.91 L 399.27 392.00 L 423.97 387.94 L 399.85 379.89 L 378.03 364.31 L 359.88 342.15 L 346.54 314.83 L 344.98 282.54 L 349.65 250.75 L 354.31 282.54 L 352.75 314.83 L 330.93 299.25 L 312.78 277.09 L 323.38 247.82 L 339.25 222.88 L 337.69 190.59 L 342.35 158.80 L 329.01 186.12 L 310.86 208.28 L 321.46 237.55 L 326.13 269.34 L 330.80 237.55 L 341.40 208.28 L 323.25 186.12 L 309.91 158.80 L 334.61 154.75 L 359.31 158.80 L 369.91 129.52 L 385.78 104.59 L 401.65 129.52 L 412.25 158.80 L 410.69 126.51 L 415.35 94.72 L 420.02 126.51 L 418.45 158.80 L 396.64 143.21 L 378.49 121.06 L 383.15 89.28 L 393.75 60.00 L 418.45 64.06 L 441.60 75.97 L 423.45 98.12 L 401.64 113.71 L 426.34 109.65 L 451.04 113.71 L 432.89 135.86 L 411.07 151.45 L 397.73 178.77 L 379.58 200.92 L 404.28 204.97 L 427.43 216.89 L 443.30 241.82 L 453.90 271.10 L 478.60 267.04 L 503.30 271.10 L 481.49 255.51 L 463.34 233.36 L 473.94 262.64 L 478.60 294.42 L 456.78 310.01 L 432.67 318.06 L 437.34 286.27 L 447.94 256.99 L 452.60 288.78 L 451.04 321.07 L 437.70 348.39 L 419.55 370.55 L 395.43 362.50 L 373.61 346.91 L 378.28 315.12 L 388.88 285.85 L 404.75 310.78 L 415.35 340.06 L 397.20 317.91 L 383.86 290.58 L 362.04 306.17 L 337.93 314.22 L 324.59 341.54 L 306.44 363.69 L 284.62 379.28 L 260.51 387.33 L 285.21 391.38 L 308.36 403.30 L 295.02 430.62 L 276.87 452.77 L 255.05 437.18 L 236.90 415.03 L 261.60 419.08 L 284.75 431.00 L 266.60 453.15 L 244.78 468.74 L 269.48 464.68 L 294.18 468.74 L 304.78 439.46 L 320.65 414.52 L 296.54 406.48 L 274.72 390.89 L 290.59 415.82 L 301.19 445.10 L 287.85 472.42 L 269.70 494.57 L 247.89 478.98 L 229.74 456.83 L 240.34 427.55 L 256.21 402.62 L 266.81 431.90 L 271.47 463.68 L 249.65 479.27 L 225.54 487.32 L 223.98 455.03 L 228.64 423.24 L 206.82 438.83 L 182.71 446.88 L 164.56 424.73 L 151.22 397.40 L 137.88 424.73 L 119.73 446.88 L 142.88 434.96 L 167.58 430.91 L 166.02 398.61 L 170.68 366.83 L 195.38 362.77 L 220.08 366.83 L 198.27 382.42 L 174.15 390.47 L 172.59 358.17 L 177.25 326.39 L 201.95 322.33 L 226.65 326.39 L 208.50 304.23 L 195.16 276.91 L 181.82 304.23 L 163.67 326.39 L 174.27 355.66 L 178.94 387.45 L 157.12 403.04 L 133.01 411.09 L 157.71 407.03 L 182.41 411.09 L 164.26 388.93 L 150.92 361.61 L 129.10 346.02 L 110.95 323.87 L 97.61 351.19 L 79.46 373.35 L 90.06 344.07 L 105.93 319.13 L 81.82 311.09 L 60.00 295.50 L 84.70 299.55 L 107.85 311.47 L 89.70 333.62 L 67.88 349.21 L 72.55 317.42 L 83.15 288.14 L 107.85 292.20 L 131.00 304.11 L 146.87 329.04 L 157.47 358.32 L 168.07 329.04 L 183.94 304.11 L 208.64 300.05 L 233.34 304.11 L 220.00 331.43 L 201.85 353.58 L 180.04 337.99 L 161.89 315.84 L 166.55 284.06 L 177.15 254.78 L 159.00 232.63 L 145.66 205.31 L 168.81 193.39 L 193.51 189.34 L 175.36 211.49 L 153.54 227.08 L 178.25 223.02 L 202.95 227.08 L 213.55 256.36 L 218.21 288.14 L 242.91 284.09 L 267.61 288.14 L 292.32 292.20 L 315.46 304.11 L 297.32 326.26 L 275.50 341.85 L 286.10 371.13 L 290.76 402.91 L 295.43 371.13 L 306.03 341.85 L 330.73 345.90 L 353.88 357.82 L 358.55 389.60 L 356.98 421.90 L 335.16 406.31 L 317.01 384.16 L 327.62 354.88 L 343.49 329.95 L 319.37 321.90 L 297.55 306.31 L 279.40 328.46 L 257.59 344.05 L 280.73 332.14 L 305.44 328.08 L 316.04 357.36 L 320.70 389.15 L 296.59 381.10 L 274.77 365.51 L 279.43 397.29 L 277.87 429.59 L 293.74 454.52 L 304.34 483.80 L 286.19 461.65 L 272.85 434.33 L 297.55 430.27 L 322.25 434.33 L 338.12 459.26 L 348.72 488.54 L 347.16 456.25 L 351.83 424.46 L 374.98 412.55 L 399.68 408.49 L 410.28 437.77 L 414.94 469.56 L 419.61 437.77 L 430.21 408.49 L 446.08 433.42 L 456.68 462.70 L 432.56 454.66 L 410.75 439.07 L 435.45 435.01 L 460.15 439.07" stroke="#ff6b6b" fill="none" stroke-width="1.5" opacity="0.85"/>
<circle cx="603.4996892034092" cy="296.3421179671914" r="5" fill="#ff6b6b"/>
</svg>