<svg width="900" height="900" xmlns="http://www.w3.org/2000/svg">
<rect width="100%" height="100%" fill="#1a1a2e"/>
<text x="20" y="30" font-family="monospace" font-size="18" fill="#eee">MINOR ARC (α=√2): Q3 spectral suppression</text>
<rect x="20" y="55" width="20" height="3" fill="#4ecdc4"/>
<text x="50" y="60" font-family="monospace" font-size="12" fill="#ccc">All primes</text>
<rect x="20" y="80" width="20" height="3" fill="#ff6b6b"/>
<text x="50" y="85" font-family="monospace" font-size="12" fill="#ccc">Twin primes only</text>
<path d="M 478.03 502.80 L 490.57 490.01 L 491.79 504.51 L 515.71 510.78 L 537.10 502.21 L 512.24 497.18 L 492.38 506.79 L 517.99 510.55 L 536.14 499.97 L 510.01 497.52 L 536.44 498.63 L 550.73 486.41 L 538.56 499.31 L 564.92 497.74 L 574.86 484.28 L 548.88 487.17 L 574.26 482.98 L 549.70 488.44 L 546.87 502.87 L 547.25 488.36 L 524.94 496.20 L 527.01 510.67 L 522.51 496.37 L 503.22 506.32 L 520.75 495.43 L 532.23 508.52 L 545.81 496.05 L 532.17 483.60 L 520.75 496.70 L 536.43 508.41 L 545.59 494.79 L 524.66 485.88 L 522.66 500.36 L 522.21 485.84 L 498.64 479.19 L 493.31 464.97 L 467.91 460.81 L 493.91 463.67 L 467.54 462.14 L 479.78 475.02 L 465.42 462.81 L 481.77 474.24 L 507.89 471.76 L 527.80 481.35 L 552.65 476.28 L 531.20 467.74 L 507.32 474.04 L 485.97 482.64 L 467.86 493.25 L 494.01 495.65 L 510.25 484.18 L 483.81 483.11 L 510.31 482.84 L 522.42 469.92 L 548.38 466.99 L 523.03 471.22 L 547.56 465.72 L 524.06 472.44 L 523.75 486.95 L 521.61 472.48 L 500.76 481.45 L 505.33 495.75 L 487.85 506.67 L 501.55 519.10 L 512.90 505.98 L 497.16 494.30 L 488.07 507.93 L 509.05 516.81 L 486.67 509.03 L 483.69 494.61 L 459.08 489.22 L 464.47 503.43 L 456.70 489.55 L 483.07 491.04 L 456.56 490.89 L 482.99 489.70 L 466.58 478.30 L 484.84 488.82 L 460.02 493.93 L 481.51 502.43 L 458.83 509.95 L 433.91 505.00 L 414.15 514.67 L 387.99 512.30 L 371.81 523.80 L 385.98 511.54 L 359.47 511.84 L 385.81 510.20 L 378.32 524.12 L 403.66 519.85 L 408.77 505.60 L 384.26 511.14 L 362.03 519.05 L 357.39 504.76 L 338.20 514.77 L 328.84 501.19 L 313.33 512.96 L 326.78 500.45 L 335.81 486.80 L 318.11 475.99 L 340.54 483.74 L 316.90 477.16 L 311.44 462.96 L 319.27 476.82 L 309.13 463.41 L 282.75 461.96 L 309.26 462.07 L 325.73 473.45 L 307.41 462.95 L 327.42 472.48 L 352.21 467.33 L 328.39 473.71 L 351.03 466.16 L 327.03 460.00 L 305.76 468.66 L 287.76 479.32 L 261.31 478.33 L 247.20 490.62 L 273.71 490.27 L 247.37 491.96 L 273.31 488.94 L 280.73 475.01 L 283.35 460.56 L 259.91 467.35 L 282.10 459.41 L 286.81 473.69 L 269.44 484.66 L 257.77 471.63 L 268.99 458.47 L 286.74 469.26 L 267.24 459.42 L 288.31 468.23 L 290.09 453.74 L 313.76 460.29 L 289.09 454.97 L 294.62 469.17 L 268.59 466.43 L 278.80 479.82 L 305.21 478.55 L 323.57 489.02 L 345.14 497.47 L 368.93 491.06 L 392.96 497.18 L 414.19 488.48 L 389.22 483.60 L 369.55 493.33 L 343.37 491.05 L 331.46 504.01 L 357.78 502.29 L 367.46 488.77 L 341.54 491.82 L 338.99 506.27 L 362.40 499.45 L 362.49 484.93 L 340.34 492.91 L 330.85 479.36 L 315.46 491.18 L 301.57 478.81 L 310.46 465.13 L 330.00 474.94 L 334.14 460.61 L 332.43 475.09 L 331.69 460.58 L 306.21 456.57 L 314.18 470.42 L 303.91 457.04 L 316.40 469.84 L 289.99 471.15 L 316.06 468.51 L 340.80 463.29 L 319.19 454.88 L 342.13 462.17 L 364.69 454.55 L 389.68 459.39 L 409.30 449.63 L 391.41 460.34 L 364.95 459.43 L 350.97 471.76 L 324.65 473.53 L 315.05 487.06 L 322.33 473.10 L 322.31 487.62 L 344.42 479.61 L 341.99 465.15 L 321.33 474.24 L 340.37 464.15 L 323.11 475.16 L 311.31 462.17 L 325.25 474.51 L 309.28 462.92 L 310.92 448.43 L 288.38 440.79 L 285.11 426.39 L 310.62 430.36 L 320.96 443.72 L 308.41 430.94 L 323.06 443.03 L 297.00 445.71 L 272.29 450.96 L 293.94 459.34 L 270.97 452.09 L 295.07 458.15 L 316.21 449.39 L 296.63 459.18 L 280.68 470.78 L 254.19 471.24 L 279.44 466.82 L 284.27 452.55 L 259.87 458.23 L 283.20 451.34 L 283.15 436.82 L 285.65 451.27 L 306.27 442.15 L 301.35 427.88 L 282.35 438.01 L 267.08 449.88 L 278.95 462.86 L 264.95 450.53 L 264.06 436.03 L 267.39 450.43 L 261.64 436.26 L 287.72 438.88 L 261.33 440.27 L 242.81 429.88 L 219.12 436.40 L 242.12 443.61 L 264.61 435.92 L 240.49 429.90 L 265.53 434.68 L 247.74 445.44 L 273.95 447.61 L 289.85 435.99 L 275.98 448.37 L 266.51 461.92 L 241.28 466.39 L 236.52 480.67 L 260.89 474.95 L 263.22 460.49 L 239.92 467.41 L 261.95 459.34 L 280.90 449.18 L 296.11 437.29 L 310.18 449.60 L 328.14 460.28 L 308.45 450.55 L 304.53 464.91 L 306.02 450.42 L 329.81 456.81 L 326.41 442.42 L 351.95 446.31 L 343.77 432.50 L 317.26 432.59 L 332.03 444.64 L 315.29 433.39 L 289.26 436.14 L 307.83 446.50 L 287.59 437.12 L 262.93 442.45 L 286.59 435.90 L 310.74 441.88 L 294.91 453.53 L 308.71 441.13 L 282.22 441.68 L 270.56 454.72 L 268.31 469.18 L 291.57 462.22 L 291.38 447.70 L 311.91 438.52 L 329.01 427.42 L 319.24 413.93 L 332.32 401.30 L 348.46 412.82 L 330.45 402.17 L 350.18 411.86 L 328.90 403.21 L 353.70 408.34 L 328.14 404.48 L 336.39 418.28 L 362.49 420.82 L 389.00 420.70 L 405.80 431.93 L 426.08 441.27 L 402.46 447.86 L 427.55 452.56 L 443.32 440.89 L 429.58 453.31 L 456.07 452.72 L 467.66 439.67 L 441.38 441.59 L 432.04 455.18 L 406.86 459.71 L 383.63 466.71 L 405.58 458.57 L 385.10 467.78 L 400.19 455.85 L 388.12 442.92 L 379.58 456.66 L 397.65 467.29 L 398.75 481.79 L 395.21 467.40 L 420.78 471.22 L 394.67 468.71 L 405.28 482.02 L 431.70 483.19 L 418.90 470.48 L 445.27 468.98 L 419.26 471.81 L 398.93 462.49 L 374.32 467.90 L 351.21 460.79 L 331.83 470.69 L 305.59 468.64 L 332.07 469.36 L 358.33 467.40 L 367.60 453.80 L 341.78 457.08 L 334.84 471.09 L 310.56 476.92 L 288.65 485.09 L 291.43 499.52 L 308.42 488.38 L 298.52 474.91 L 310.65 487.82 L 323.60 475.15 L 309.35 462.91 L 317.82 449.16 L 337.65 458.79 L 313.76 452.50 L 287.33 451.36 L 300.20 464.06 L 285.25 452.07 L 311.24 449.20 L 289.38 440.98 L 265.82 447.64 L 288.97 454.72 L 268.05 463.63 L 294.30 465.65 L 309.96 453.93 L 283.48 453.26 L 294.94 440.17 L 285.74 453.78 L 292.61 439.76 L 267.47 444.37 L 244.31 451.43 L 244.72 465.95 L 227.79 477.12 L 242.76 465.14 L 230.57 452.25 L 244.88 464.47 L 255.58 451.19 L 247.17 464.95 L 268.58 473.51 L 245.82 466.07 L 247.07 480.57 L 270.99 486.83 L 246.11 481.81 L 252.21 495.94 L 243.76 482.18 L 230.82 469.51 L 245.84 481.47 L 228.87 470.32 L 204.32 475.79 L 226.21 483.97 L 203.03 476.93 L 177.88 472.35 L 195.39 461.45 L 179.79 473.19 L 206.27 473.82 L 210.68 459.51 L 213.60 473.94 L 194.91 484.23 L 184.88 470.80 L 169.97 482.80 L 182.79 470.09 L 168.42 457.89 L 184.79 469.31 L 183.66 483.82 L 187.42 498.19 L 212.32 503.17 L 201.52 489.91 L 228.02 489.63 L 212.95 477.69 L 194.12 467.47 L 170.63 474.20 L 146.33 468.40 L 125.50 477.37 L 150.67 481.92 L 133.21 492.85 L 148.76 481.09 L 135.26 493.58 L 161.74 492.84 L 173.07 479.71 L 146.83 481.79 L 172.60 478.40 L 168.27 492.72 L 192.47 486.78 L 194.37 472.30 L 194.92 486.82 L 174.62 496.15 L 180.04 510.36 L 163.22 521.59 L 150.90 508.73 L 138.14 521.46 L 156.41 531.97 L 152.92 546.36 L 154.31 560.86 L 178.29 567.04 L 153.37 562.10 L 159.61 576.21 L 185.26 579.87 L 172.20 567.24 L 146.26 570.22 L 165.14 580.41 L 144.62 571.22 L 168.08 564.46 L 145.86 572.38 L 170.19 578.14 L 143.91 576.25 L 157.34 563.73 L 183.57 561.61 L 157.81 565.05 L 182.88 560.33 L 181.05 574.81 L 159.31 583.11 L 140.72 593.46 L 153.10 606.30 L 165.80 593.55 L 155.31 606.89 L 163.51 593.08 L 145.18 582.59 L 149.08 596.95 L 174.03 601.86 L 182.69 615.58 L 156.24 614.60 L 169.36 627.22 L 195.29 624.19 L 176.36 614.03 L 200.83 608.44 L 223.01 600.49 L 202.27 609.53 L 184.92 620.51 L 211.21 622.36 L 184.72 621.84 L 191.31 607.78 L 215.44 601.77 L 217.19 587.29 L 196.99 596.69 L 211.54 608.82 L 221.97 595.47 L 205.43 584.13 L 185.36 574.64 L 206.95 583.07 L 207.86 568.56 L 203.88 554.21 L 210.26 568.30 L 184.08 566.03 L 195.08 579.24 L 168.58 579.64 L 147.97 570.50 L 123.53 576.13 L 145.59 584.18 L 168.98 577.34 L 189.68 568.27 L 163.21 569.13 L 152.08 582.31 L 160.94 568.63 L 154.42 582.70 L 158.54 568.36 L 134.44 574.40 L 157.42 567.16 L 156.65 552.65 L 151.02 538.47 L 132.53 548.87 L 117.86 560.97 L 130.37 573.76 L 120.01 587.13 L 136.60 598.45 L 139.89 584.04 L 118.26 575.64 L 122.31 589.99 L 115.86 575.91 L 142.36 575.47 L 123.33 565.36 L 147.74 559.70 L 125.64 551.68 L 102.29 558.55 L 125.65 565.42 L 147.74 557.40 L 174.06 559.18 L 160.81 571.75 L 152.02 585.45 L 158.46 571.37 L 182.54 565.29 L 184.15 550.80 L 161.20 558.07 L 182.82 549.67 L 179.54 535.26 L 185.24 549.44 L 168.64 560.76 L 179.01 574.12 L 193.69 586.21 L 185.69 600.05 L 204.18 610.46 L 200.96 624.87 L 225.07 630.91 L 200.05 626.11 L 206.57 640.18 L 197.70 626.50 L 224.17 627.36 L 197.67 627.85 L 223.97 626.03 L 203.27 616.96 L 179.88 610.12 L 157.82 618.18 L 182.27 623.80 L 199.46 612.74 L 184.21 624.62 L 210.71 625.02 L 199.71 638.23 L 174.02 641.82 L 177.99 627.46 L 176.45 641.96 L 175.54 627.45 L 192.08 616.10 L 177.52 628.23 L 190.16 641.00 L 179.93 654.39 L 200.14 663.78 L 203.28 649.37 L 202.59 663.88 L 196.00 649.82 L 170.25 646.35 L 159.05 633.19 L 132.76 635.05 L 150.11 646.02 L 175.98 642.84 L 196.73 651.88 L 218.74 643.80 L 194.27 638.21 L 213.20 628.05 L 200.08 640.66 L 226.53 639.68 L 200.36 642.00 L 191.70 655.72 L 217.37 652.09 L 192.42 657.00 L 188.52 671.36 L 189.51 685.87 L 211.04 677.40 L 221.54 690.73 L 213.68 704.60 L 210.61 719.02 L 232.36 727.32 L 232.99 712.81 L 234.81 727.29 L 230.55 712.96 L 205.48 708.24 L 231.24 711.67 L 246.73 723.45 L 273.01 721.56 L 247.16 724.78 L 269.38 732.70 L 245.92 725.93 L 220.59 721.65 L 201.71 731.84 L 218.79 720.74 L 231.85 708.10 L 206.19 711.77 L 199.96 725.88 L 224.88 720.93 L 200.90 727.12 L 204.40 741.51 L 224.37 731.96 L 218.46 717.81 L 231.22 730.53 L 251.52 739.87 L 250.97 754.38 L 249.07 739.90 L 224.88 733.97 L 218.15 719.93 L 192.37 716.53 L 181.04 703.41 L 154.57 702.66 L 139.02 690.90 L 156.48 701.83 L 182.32 698.57 L 203.15 707.55 L 227.45 701.75 L 250.95 708.47 L 226.42 702.96 L 245.24 692.74 L 236.72 706.49 L 211.82 711.47 L 208.06 725.84 L 185.26 733.25 L 181.69 718.86 L 187.67 733.01 L 171.30 744.43 L 181.33 730.99 L 173.61 744.88 L 170.69 759.31 L 172.66 773.78 L 196.88 779.68 L 170.64 777.64 L 197.12 778.34 L 183.56 765.87 L 199.16 777.60 L 181.65 766.71 L 203.94 774.56 L 227.13 767.52 L 251.68 772.99 L 268.65 761.84 L 253.63 773.80 L 280.14 774.05 L 293.07 761.37 L 266.64 762.47 L 242.72 768.73 L 241.47 783.23 L 245.11 797.61 L 239.06 783.48 L 224.75 795.70 L 209.77 783.72 L 226.70 794.89 L 207.96 784.62 L 231.12 791.68 L 224.25 777.66 L 198.44 774.34 L 207.65 787.96 L 196.19 774.87 L 169.70 774.20 L 196.19 773.53 L 169.93 775.54 L 150.60 765.60 L 171.52 774.52 L 195.08 781.18 L 220.48 785.35 L 193.97 785.15 L 181.10 797.84 L 191.77 784.55 L 165.65 787.02 L 189.54 780.73 L 190.81 795.23 L 201.58 808.49 L 215.83 796.25 L 202.87 783.58 L 190.75 796.49 L 200.64 783.03 L 183.66 771.88 L 163.22 762.64 L 160.43 777.07 L 184.72 782.90 L 158.24 783.62 L 140.61 772.77 L 159.99 782.68 L 182.37 790.47 L 202.70 781.15 L 184.02 791.45 L 157.66 789.95 L 131.23 791.13 L 120.63 804.43 L 146.74 801.92 L 121.16 805.74 L 124.71 791.36 L 123.60 805.86 L 102.28 814.48 L 106.06 828.85 L 125.84 819.19 L 115.01 805.94 L 128.03 818.58 L 112.94 806.65 L 103.11 820.13 L 110.62 806.21 L 91.78 796.00 L 94.49 781.56 L 72.53 773.42 L 77.15 787.71 L 86.49 801.30 L 60.00 800.72 L 85.77 797.30 L 66.34 787.43 L 87.35 796.28 L 110.98 802.87 L 132.75 794.59 L 112.47 803.93 L 131.09 793.60 L 114.29 804.83 L 139.85 800.97 L 115.05 806.11 L 116.47 820.60 L 137.75 811.95 L 144.02 826.05 L 127.87 837.57 L 114.80 824.94 L 97.70 813.85 L 119.69 821.95 L 119.88 807.44 L 96.62 800.48 L 98.87 814.94 L 110.53 827.98 L 126.37 839.62 L 108.63 828.83 L 82.88 832.28 L 105.33 840.00 L 81.68 833.45 L 106.34 838.78 L 123.08 827.52 L 149.59 827.61 L 157.77 813.80 L 132.23 817.69 L 151.92 807.97 L 133.96 818.64 L 150.04 807.10 L 135.97 819.41 L 120.76 807.52 L 137.91 818.59 L 145.29 804.64 L 126.34 794.49 L 104.31 786.42 L 127.61 793.34 L 125.28 778.88 L 100.91 773.16 L 126.14 777.62 L 140.00 790.00 L 124.11 778.38 L 97.90 780.55 L 115.68 791.31 L 93.19 783.63 L 70.18 790.84 L 93.88 797.36 L 119.35 801.38 L 137.87 790.99 L 121.18 802.27 L 147.57 803.66 L 153.32 789.48 L 149.99 803.89 L 150.87 789.38 L 128.30 796.99 L 124.30 782.64 L 142.20 771.93 L 161.20 782.06 L 161.25 767.54 L 137.91 760.65 L 162.31 766.33 L 157.48 752.06 L 132.23 747.63 L 139.44 761.60 L 165.33 764.73 L 177.12 777.73 L 203.32 775.52 L 177.60 779.05 L 197.18 788.84 L 173.08 794.90 L 149.36 788.41 L 174.07 793.67 L 159.42 805.77 L 185.93 805.77 L 198.48 792.98 L 188.14 806.35 L 186.51 791.86 L 165.35 800.61 L 158.88 786.54 L 174.85 774.95 L 160.90 787.29 L 172.70 774.29 L 189.97 785.31 L 170.92 775.21 L 148.81 767.21 L 148.83 781.72 L 146.36 767.27 L 121.93 761.63 L 147.21 766.01 L 139.92 752.05 L 149.53 765.58 L 175.84 767.35 L 189.83 779.68 L 216.29 778.76 L 196.67 769.00 L 217.85 777.73 L 197.76 787.20 L 223.27 791.14 L 249.67 792.45 L 259.95 779.07 L 237.45 786.74 L 258.56 777.96 L 269.71 791.13 L 283.60 778.76 L 276.43 792.74 L 255.72 783.68 L 277.87 791.65 L 277.77 777.14 L 280.32 791.59 L 306.24 794.63 L 279.92 792.91 L 306.42 793.30 L 322.48 804.84 L 348.66 802.56 L 368.33 812.29 L 390.94 819.87 L 369.37 828.32 L 343.84 824.41 L 325.48 834.88 L 299.07 833.61 L 311.49 820.79 L 319.39 806.93 L 344.06 801.62 L 363.55 791.78 L 356.94 777.72 L 339.19 788.50 L 327.97 775.35 L 341.36 787.88 L 353.04 774.84 L 370.41 785.81 L 348.22 777.87 L 345.60 763.42 L 350.64 777.68 L 343.22 763.74 L 317.28 760.73 L 343.61 762.41 L 357.72 774.70 L 375.72 785.36 L 401.39 781.72 L 422.66 790.39 L 400.02 782.84 L 423.83 789.21 L 399.04 784.07 L 417.35 773.57 L 400.89 784.95 L 374.38 785.06 L 400.76 783.61 L 410.90 770.20 L 403.06 784.06 L 408.53 769.86 L 405.48 784.28 L 383.06 792.02 L 378.77 777.70 L 365.32 765.19 L 380.83 776.96 L 378.62 791.43 L 400.85 799.34 L 375.51 795.07 L 383.01 808.99 L 356.67 807.34 L 342.49 795.08 L 365.17 802.59 L 343.69 811.10 L 360.10 799.70 L 333.67 798.51 L 319.26 810.69 L 292.89 812.19 L 318.90 809.37 L 326.66 795.49 L 321.27 809.70 L 345.89 804.31 L 324.91 813.18 L 318.16 799.15 L 306.80 786.03 L 324.28 796.94 L 326.42 782.47 L 326.73 796.99 L 350.24 803.70 L 375.60 807.94 L 349.63 805.00 L 337.53 792.09 L 311.02 791.82 L 294.78 780.35 L 268.63 782.75 L 294.26 779.03 L 315.62 787.64 L 337.06 779.10 L 312.22 774.03 L 285.71 774.22 L 273.48 787.10 L 298.88 782.94 L 304.20 768.72 L 327.77 762.07 L 328.22 747.55 L 349.15 738.65 L 360.57 751.75 L 374.21 739.30 L 360.63 726.83 L 349.15 739.92 L 331.62 729.03 L 329.55 743.50 L 329.17 728.99 L 332.00 743.42 L 356.56 748.88 L 382.54 751.78 L 368.25 739.55 L 394.38 737.11 L 376.22 726.53 L 396.09 736.14 L 370.48 732.39 L 352.32 742.97 L 325.89 741.86 L 311.60 754.09 L 323.77 741.19 L 297.41 742.76 L 323.39 739.86 L 298.01 744.06 L 300.84 729.63 L 300.46 744.14 L 322.77 736.30 L 342.06 726.34 L 324.53 737.23 L 313.04 724.15 L 297.36 712.44 L 288.21 726.07 L 309.14 734.97 L 332.71 741.62 L 338.04 755.84 L 352.40 768.04 L 336.04 756.62 L 316.13 747.03 L 337.57 755.57 L 361.45 749.26 L 387.08 752.98 L 370.85 764.45 L 380.72 750.98 L 406.08 746.75 L 381.54 752.25 L 383.68 766.72 L 404.53 757.75 L 399.96 743.45 L 406.92 757.45 L 391.36 769.21 L 377.66 756.78 L 393.40 768.46 L 402.48 754.82 L 395.74 768.86 L 390.34 754.65 L 363.97 753.16 L 349.55 740.98 L 323.13 742.17 L 297.56 746.00 L 276.07 737.49 L 252.23 743.83 L 277.14 748.79 L 296.91 739.12 L 282.74 751.39 L 277.63 765.63 L 275.42 751.16 L 280.06 765.46 L 295.56 753.68 L 286.54 767.33 L 293.22 753.28 L 273.78 743.41 L 297.41 749.99 L 294.37 735.57 L 299.83 749.77 L 325.27 753.86 L 335.42 767.27 L 308.91 767.16 L 292.44 755.78 L 310.76 766.28 L 290.75 756.75 L 314.57 750.37 L 291.70 743.03 L 315.71 749.19 L 336.98 740.52 L 362.64 744.16 L 380.64 733.50 L 394.75 721.21 L 368.24 721.56 L 394.57 719.87 L 368.64 722.88 L 361.22 736.82 L 358.61 751.26 L 382.04 744.48 L 377.33 730.19 L 389.01 743.22 L 402.40 730.69 L 391.18 743.85 L 370.11 735.04 L 368.33 749.52 L 344.66 742.98 L 369.34 748.30 L 363.80 734.10 L 389.83 736.84 L 379.62 723.44 L 353.21 724.71 L 379.29 722.11 L 360.93 711.64 L 337.14 718.05 L 315.92 726.75 L 340.88 731.64 L 360.55 721.90 L 350.88 735.42 L 376.80 732.37 L 398.95 724.39 L 378.24 733.45 L 397.33 723.38 L 412.72 711.56 L 423.87 698.39 L 404.33 688.58 L 425.44 697.36 L 427.15 682.87 L 404.64 675.20 L 405.39 689.71 L 397.41 675.86 L 407.69 689.25 L 422.29 701.36 L 396.22 704.00 L 421.73 700.06 L 401.63 690.59 L 378.69 683.31 L 356.13 690.93 L 336.51 700.70 L 346.12 687.17" stroke="#4ecdc4" fill="none" stroke-width="1.5" opacity="0.85"/>
<path d="M 478.03 502.80 L 479.25 517.30 L 503.16 523.57 L 524.56 515.00 L 499.70 509.97 L 479.83 519.58 L 505.44 523.34 L 523.60 512.76 L 550.03 513.87 L 564.33 501.64 L 590.68 500.07 L 600.62 486.61 L 576.06 492.08 L 573.23 506.51 L 550.92 514.35 L 552.99 528.83 L 566.56 516.36 L 552.92 503.91 L 541.51 517.01 L 557.19 528.72 L 556.73 514.20 L 533.16 507.56 L 527.84 493.33 L 502.44 489.17 L 518.79 500.60 L 544.91 498.12 L 564.82 507.71 L 589.66 502.64 L 568.22 494.10 L 544.34 500.40 L 570.48 502.81 L 586.72 491.33 L 613.23 491.06 L 625.33 478.15 L 601.83 484.86 L 601.52 499.38 L 580.67 508.35 L 585.24 522.65 L 596.59 509.53 L 580.85 497.85 L 577.88 483.42 L 553.26 478.03 L 528.34 473.07 L 508.58 482.75 L 482.42 480.38 L 466.24 491.88 L 491.58 487.61 L 496.69 473.36 L 505.71 459.71 L 488.02 448.90 L 477.87 435.49 L 451.49 434.04 L 471.50 443.57 L 496.29 438.42 L 472.29 432.26 L 451.02 440.93 L 424.57 439.93 L 410.46 452.22 L 436.39 449.21 L 443.81 435.27 L 465.38 443.72 L 489.17 437.30 L 513.20 443.43 L 534.43 434.73 L 509.46 429.85 L 489.79 439.58 L 516.12 437.86 L 525.79 424.34 L 549.19 417.52 L 549.29 403.00 L 572.23 410.28 L 594.79 402.66 L 619.78 407.51 L 639.40 397.75 L 612.94 396.83 L 598.96 409.17 L 572.64 410.93 L 563.03 424.46 L 585.15 416.45 L 582.72 402.00 L 584.35 387.51 L 561.81 379.87 L 585.91 385.92 L 607.05 377.16 L 632.30 372.74 L 637.13 358.46 L 660.46 351.57 L 660.41 337.05 L 681.04 327.93 L 676.11 313.67 L 660.84 325.53 L 672.71 338.51 L 695.72 345.73 L 718.21 338.04 L 744.42 340.21 L 760.32 328.59 L 735.09 333.05 L 730.33 347.33 L 754.70 341.61 L 757.03 327.15 L 740.28 315.90 L 714.25 318.65 L 694.01 309.28 L 669.35 314.61 L 642.86 315.15 L 631.20 328.19 L 654.47 321.23 L 654.28 306.71 L 671.37 295.62 L 661.61 282.12 L 669.86 295.92 L 695.96 298.46 L 722.45 297.88 L 734.04 284.82 L 707.76 286.75 L 698.42 300.33 L 713.52 288.40 L 701.45 275.47 L 692.91 289.21 L 710.97 299.84 L 721.58 313.14 L 748.01 314.32 L 727.67 305.00 L 703.07 310.40 L 729.33 308.44 L 738.60 294.84 L 712.78 298.12 L 705.84 312.13 L 683.93 320.30 L 686.72 334.74 L 703.70 323.60 L 693.80 310.13 L 706.75 297.46 L 692.50 285.22 L 670.64 277.01 L 647.09 283.66 L 673.34 285.68 L 689.00 273.96 L 665.84 281.03 L 666.25 295.54 L 681.22 283.56 L 669.03 270.67 L 670.28 285.17 L 694.20 291.43 L 707.03 278.73 L 692.66 266.53 L 696.42 280.90 L 721.32 285.88 L 697.02 280.08 L 676.19 289.06 L 702.66 288.31 L 713.99 275.19 L 738.18 269.25 L 740.08 254.77 L 719.78 264.11 L 725.20 278.32 L 726.59 292.82 L 750.58 299.00 L 756.82 313.11 L 782.47 316.78 L 790.67 302.97 L 772.34 292.49 L 776.25 306.84 L 801.20 311.75 L 825.33 305.75 L 827.08 291.26 L 837.51 277.91 L 820.97 266.57 L 800.37 257.44 L 775.92 263.06 L 797.98 271.11 L 821.37 264.28 L 794.91 265.14 L 783.78 278.31 L 806.76 271.08 L 805.99 256.57 L 791.32 268.66 L 803.83 281.46 L 793.46 294.82 L 810.06 306.14 L 813.34 291.73 L 791.72 283.33 L 769.62 275.31 L 746.26 282.18 L 769.62 289.05 L 791.72 281.03 L 815.79 274.95 L 817.40 260.46 L 839.03 252.06 L 835.74 237.66 L 819.15 248.98 L 829.51 262.34 L 821.51 276.18 L 840.00 286.59 L 816.61 279.75 L 794.55 287.81 L 780.00 299.94 L 792.63 312.70 L 786.04 298.64 L 760.30 295.17 L 777.66 306.14 L 803.52 302.96 L 777.35 305.28 L 768.69 319.00 L 743.74 323.91 L 739.84 338.27 L 736.77 352.69 L 758.52 360.99 L 754.26 346.66 L 729.19 341.94 L 744.68 353.72 L 770.96 351.82 L 745.63 347.54 L 726.75 357.73 L 701.10 361.40 L 694.86 375.51 L 714.84 365.96 L 708.92 351.81 L 707.03 337.33 L 682.83 331.39 L 676.10 317.35 L 650.32 313.96 L 638.99 300.83 L 612.52 300.09 L 629.98 311.01 L 655.82 307.76 L 676.65 316.73 L 700.95 310.93 L 676.05 315.92 L 672.29 330.29 L 674.26 344.76 L 698.49 350.66 L 720.78 358.51 L 743.97 351.47 L 770.47 351.71 L 783.40 339.04 L 759.48 345.30 L 758.23 359.80 L 751.37 345.78 L 725.56 342.46 L 714.10 329.37 L 687.61 328.71 L 661.10 328.50 L 648.24 341.19 L 662.49 328.95 L 649.53 316.29 L 659.43 302.82 L 642.44 291.67 L 616.02 292.85 L 605.41 306.16 L 584.09 314.78 L 587.87 329.15 L 595.39 315.23 L 576.54 305.02 L 579.25 290.58 L 557.30 282.44 L 580.92 289.02 L 602.70 280.74 L 602.89 266.23 L 579.62 259.27 L 561.89 248.47 L 536.14 251.92 L 543.51 237.98 L 524.57 227.82 L 522.24 213.36 L 497.87 207.65 L 481.97 196.03 L 455.76 198.20 L 433.27 190.51 L 410.26 197.73 L 435.74 201.75 L 454.26 191.36 L 454.30 176.84 L 430.97 169.95 L 426.14 155.68 L 400.89 151.25 L 408.10 165.22 L 433.99 168.35 L 460.50 168.36 L 473.06 155.57 L 470.58 141.12 L 446.16 135.47 L 455.76 149.00 L 482.08 150.77 L 496.07 163.10 L 522.53 162.18 L 538.59 173.73 L 564.77 171.44 L 539.24 167.54 L 520.88 178.01 L 540.37 168.17 L 533.75 154.11 L 526.33 140.17 L 500.39 137.16 L 518.39 147.82 L 544.06 144.18 L 570.43 142.73 L 580.58 129.31 L 578.37 143.78 L 600.60 151.69 L 574.18 150.50 L 559.77 162.68 L 585.77 159.86 L 593.54 145.98 L 593.85 160.50 L 617.36 167.22 L 605.25 154.30 L 578.74 154.03 L 562.51 142.56 L 536.36 144.96 L 509.85 145.15 L 497.62 158.03 L 523.02 153.87 L 528.34 139.65 L 551.91 133.00 L 552.36 118.49 L 566.00 106.04 L 552.42 93.57 L 555.26 108.01 L 579.82 113.47 L 554.21 109.71 L 536.06 120.29 L 509.62 119.18 L 495.33 131.41 L 516.77 139.95 L 540.65 133.64 L 561.50 124.67 L 556.93 110.37 L 542.51 98.19 L 516.09 99.38 L 494.61 90.88 L 470.76 97.22 L 495.67 102.18 L 515.44 92.50 L 522.12 78.45 L 502.67 68.58 L 508.14 82.79 L 533.58 86.87 L 557.59 93.03 L 578.86 84.37 L 604.52 88.00 L 622.52 77.34 L 596.58 80.36 L 589.16 94.29 L 614.13 99.18 L 633.80 89.44 L 635.50 74.95 L 613.00 67.28 L 590.06 60.00 L 567.50 67.62" stroke="#ff6b6b" fill="none" stroke-width="1.5" opacity="0.85"/>
<circle cx="478.0267864284383" cy="502.7983963356112" r="5" fill="#ff6b6b"/>
</svg>