<svg width="1200" height="600" xmlns="http://www.w3.org/2000/svg">
<rect width="100%" height="100%" fill="#0d1117"/>
<text x="20" y="30" font-family="monospace" font-size="16" fill="#58a6ff">🔬 Twin Prime Phase Walk Comparison</text>
<line x1="20" y1="55" x2="50" y2="55" stroke="#3fb950" stroke-width="2"/>
<text x="60" y="59" font-family="monospace" font-size="11" fill="#8b949e">All primes (Major)</text>
<line x1="20" y1="75" x2="50" y2="75" stroke="#f85149" stroke-width="2"/>
<text x="60" y="79" font-family="monospace" font-size="11" fill="#8b949e">Twins (Major)</text>
<line x1="20" y1="95" x2="50" y2="95" stroke="#58a6ff" stroke-width="2"/>
<text x="60" y="99" font-family="monospace" font-size="11" fill="#8b949e">All primes (Minor)</text>
<line x1="20" y1="115" x2="50" y2="115" stroke="#a371f7" stroke-width="2"/>
<text x="60" y="119" font-family="monospace" font-size="11" fill="#8b949e">Twins (Minor)</text>
<path d="M 111.7 216.6 L 110.7 223.9 L 108.6 223.9 L 109.7 216.6 L 110.7 223.9 L 111.7 216.6 L 112.8 223.9 L 113.8 216.6 L 114.8 223.9 L 115.9 216.6 L 116.9 209.3 L 117.9 216.6 L 119.0 223.9 L 120.0 216.6 L 121.0 223.9 L 122.1 216.6 L 123.1 209.3 L 124.1 201.9 L 125.2 209.3 L 126.2 216.6 L 127.2 209.3 L 128.3 216.6 L 129.3 223.9 L 130.3 216.6 L 131.4 209.3 L 132.4 216.6 L 133.4 209.3 L 134.5 216.6 L 135.5 209.3 L 136.5 216.6 L 137.6 209.3 L 138.6 216.6 L 139.6 209.3 L 140.7 201.9 L 141.7 209.3 L 142.7 201.9 L 143.8 209.3 L 144.8 216.6 L 145.8 223.9 L 146.9 216.6 L 147.9 209.3 L 148.9 201.9 L 150.0 209.3 L 151.0 201.9 L 152.0 209.3 L 153.1 201.9 L 154.1 209.3 L 155.1 216.6 L 156.2 223.9 L 157.2 216.6 L 158.2 223.9 L 159.3 216.6 L 160.3 209.3 L 161.3 216.6 L 162.4 209.3 L 163.4 201.9 L 164.4 194.6 L 165.5 187.3 L 166.5 194.6 L 167.5 201.9 L 168.6 194.6 L 169.6 201.9 L 170.6 194.6 L 171.7 201.9 L 172.7 194.6 L 173.7 201.9 L 174.8 194.6 L 175.8 201.9 L 176.8 209.3 L 177.9 201.9 L 178.9 209.3 L 179.9 201.9 L 181.0 194.6 L 182.0 201.9 L 183.0 209.3 L 184.1 216.6 L 185.1 209.3 L 186.1 201.9 L 187.2 209.3 L 188.2 201.9 L 189.2 209.3 L 190.3 201.9 L 191.3 209.3 L 192.3 201.9 L 193.4 209.3 L 194.4 216.6 L 195.4 209.3 L 196.5 201.9 L 197.5 209.3 L 198.5 201.9 L 199.6 209.3 L 200.6 201.9 L 201.6 194.6 L 202.7 201.9 L 203.7 194.6 L 204.7 201.9 L 205.8 194.6 L 206.8 187.3 L 207.8 180.0 L 208.9 187.3 L 209.9 194.6 L 210.9 201.9 L 212.0 194.6 L 213.0 187.3 L 214.0 180.0 L 215.1 187.3 L 216.1 194.6 L 217.1 187.3 L 218.2 180.0 L 219.2 172.7 L 220.2 180.0 L 221.3 187.3 L 222.3 194.6 L 223.3 187.3 L 224.4 194.6 L 225.4 201.9 L 226.4 194.6 L 227.5 201.9 L 228.5 194.6 L 229.5 187.3 L 230.6 180.0 L 231.6 187.3 L 232.6 194.6 L 233.7 187.3 L 234.7 180.0 L 235.7 187.3 L 236.8 180.0 L 237.8 187.3 L 238.8 180.0 L 239.9 187.3 L 240.9 194.6 L 241.9 201.9 L 243.0 194.6 L 244.0 201.9 L 245.0 209.3 L 246.0 201.9 L 247.1 209.3 L 248.1 201.9 L 249.1 209.3 L 250.2 201.9 L 251.2 194.6 L 252.2 201.9 L 253.3 194.6 L 254.3 201.9 L 255.3 194.6 L 256.4 201.9 L 257.4 194.6 L 258.4 201.9 L 259.5 194.6 L 260.5 201.9 L 261.5 194.6 L 262.6 201.9 L 263.6 194.6 L 264.6 201.9 L 265.7 194.6 L 266.7 201.9 L 267.7 194.6 L 268.8 201.9 L 269.8 194.6 L 270.8 201.9 L 271.9 194.6 L 272.9 187.3 L 273.9 180.0 L 275.0 187.3 L 276.0 180.0 L 277.0 172.7 L 278.1 165.4 L 279.1 172.7 L 280.1 180.0 L 281.2 187.3 L 282.2 180.0 L 283.2 172.7 L 284.3 180.0 L 285.3 172.7 L 286.3 180.0 L 287.4 187.3 L 288.4 180.0 L 289.4 187.3 L 290.5 180.0 L 291.5 187.3 L 292.5 194.6 L 293.6 201.9 L 294.6 194.6 L 295.6 201.9 L 296.7 194.6 L 297.7 187.3 L 298.7 180.0 L 299.8 187.3 L 300.8 194.6 L 301.8 201.9 L 302.9 194.6 L 303.9 201.9 L 304.9 194.6 L 306.0 201.9 L 307.0 194.6 L 308.0 187.3 L 309.1 180.0 L 310.1 187.3 L 311.1 194.6 L 312.2 187.3 L 313.2 180.0 L 314.2 172.7 L 315.3 180.0 L 316.3 187.3 L 317.3 194.6 L 318.4 187.3 L 319.4 180.0 L 320.4 187.3 L 321.5 180.0 L 322.5 172.7 L 323.5 180.0 L 324.6 187.3 L 325.6 180.0 L 326.6 187.3 L 327.7 180.0 L 328.7 172.7 L 329.7 180.0 L 330.8 187.3 L 331.8 180.0 L 332.8 172.7 L 333.9 165.4 L 334.9 172.7 L 335.9 180.0 L 337.0 172.7 L 338.0 180.0 L 339.0 172.7 L 340.1 180.0 L 341.1 172.7 L 342.1 165.4 L 343.2 172.7 L 344.2 165.4 L 345.2 172.7 L 346.3 180.0 L 347.3 187.3 L 348.3 180.0 L 349.4 187.3 L 350.4 180.0 L 351.4 187.3 L 352.5 180.0 L 353.5 172.7 L 354.5 165.4 L 355.6 158.1 L 356.6 165.4 L 357.6 172.7 L 358.7 180.0 L 359.7 172.7 L 360.7 165.4 L 361.8 172.7 L 362.8 165.4 L 363.8 172.7 L 364.9 165.4 L 365.9 172.7 L 366.9 165.4 L 368.0 158.1 L 369.0 165.4 L 370.0 158.1 L 371.1 150.7 L 372.1 158.1 L 373.1 165.4 L 374.2 158.1 L 375.2 165.4 L 376.2 172.7 L 377.3 165.4 L 378.3 172.7 L 379.3 180.0 L 380.4 172.7 L 381.4 180.0 L 382.4 172.7 L 383.4 165.4 L 384.5 172.7 L 385.5 165.4 L 386.5 172.7 L 387.6 180.0 L 388.6 187.3 L 389.6 194.6 L 390.7 201.9 L 391.7 209.3 L 392.7 201.9 L 393.8 209.3 L 394.8 216.6 L 395.8 209.3 L 396.9 201.9 L 397.9 209.3 L 398.9 201.9 L 400.0 209.3 L 401.0 216.6 L 402.0 209.3 L 403.1 216.6 L 404.1 209.3 L 405.1 216.6 L 406.2 209.3 L 407.2 201.9 L 408.2 194.6 L 409.3 187.3 L 410.3 180.0 L 411.3 187.3 L 412.4 180.0 L 413.4 187.3 L 414.4 180.0 L 415.5 172.7 L 416.5 180.0 L 417.5 187.3 L 418.6 180.0 L 419.6 187.3 L 420.6 180.0 L 421.7 187.3 L 422.7 194.6 L 423.7 187.3 L 424.8 194.6 L 425.8 187.3 L 426.8 194.6 L 427.9 187.3 L 428.9 180.0 L 429.9 172.7 L 431.0 180.0 L 432.0 172.7 L 433.0 180.0 L 434.1 172.7 L 435.1 165.4 L 436.1 172.7 L 437.2 165.4 L 438.2 172.7 L 439.2 180.0 L 440.3 172.7 L 441.3 180.0 L 442.3 172.7 L 443.4 180.0 L 444.4 187.3 L 445.4 194.6 L 446.5 187.3 L 447.5 180.0 L 448.5 187.3 L 449.6 180.0 L 450.6 187.3 L 451.6 180.0 L 452.7 187.3 L 453.7 180.0 L 454.7 187.3 L 455.8 180.0 L 456.8 187.3 L 457.8 194.6 L 458.9 201.9 L 459.9 194.6 L 460.9 187.3 L 462.0 194.6 L 463.0 187.3 L 464.0 180.0 L 465.1 187.3 L 466.1 194.6 L 467.1 187.3 L 468.2 180.0 L 469.2 187.3 L 470.2 194.6 L 471.3 187.3 L 472.3 194.6 L 473.3 201.9 L 474.4 194.6 L 475.4 187.3 L 476.4 180.0 L 477.5 172.7 L 478.5 165.4 L 479.5 172.7 L 480.6 165.4 L 481.6 158.1 L 482.6 150.7 L 483.7 158.1 L 484.7 165.4 L 485.7 158.1 L 486.8 165.4 L 487.8 172.7 L 488.8 165.4 L 489.9 172.7 L 490.9 165.4 L 491.9 158.1 L 493.0 165.4 L 494.0 172.7 L 495.0 165.4 L 496.1 158.1 L 497.1 165.4 L 498.1 158.1 L 499.2 165.4 L 500.2 158.1 L 501.2 150.7 L 502.3 158.1 L 503.3 150.7 L 504.3 158.1 L 505.4 150.7 L 506.4 158.1 L 507.4 165.4 L 508.5 172.7 L 509.5 165.4 L 510.5 172.7 L 511.6 165.4 L 512.6 158.1 L 513.6 165.4 L 514.7 158.1 L 515.7 165.4 L 516.7 172.7 L 517.8 165.4 L 518.8 172.7 L 519.8 165.4 L 520.9 172.7 L 521.9 165.4 L 522.9 172.7 L 523.9 165.4 L 525.0 158.1 L 526.0 165.4 L 527.0 172.7 L 528.1 165.4 L 529.1 172.7 L 530.1 165.4 L 531.2 172.7 L 532.2 165.4 L 533.2 158.1 L 534.3 165.4 L 535.3 172.7 L 536.3 165.4 L 537.4 158.1 L 538.4 165.4 L 539.4 158.1 L 540.5 150.7 L 541.5 143.4 L 542.5 150.7 L 543.6 143.4 L 544.6 136.1 L 545.6 143.4 L 546.7 136.1 L 547.7 128.8 L 548.7 121.5 L 549.8 128.8 L 550.8 121.5 L 551.8 128.8 L 552.9 121.5 L 553.9 128.8 L 554.9 121.5 L 556.0 128.8 L 557.0 121.5 L 558.0 128.8 L 559.1 136.1 L 560.1 143.4 L 561.1 150.7 L 562.2 143.4 L 563.2 136.1 L 564.2 143.4 L 565.3 136.1 L 566.3 143.4 L 567.3 136.1 L 568.4 143.4 L 569.4 136.1 L 570.4 143.4 L 571.5 150.7 L 572.5 158.1 L 573.5 150.7 L 574.6 143.4 L 575.6 136.1 L 576.6 143.4 L 577.7 136.1 L 578.7 143.4 L 579.7 136.1 L 580.8 143.4 L 581.8 136.1 L 582.8 143.4 L 583.9 150.7 L 584.9 143.4 L 585.9 150.7 L 587.0 158.1 L 588.0 165.4 L 589.0 172.7 L 590.1 165.4 L 591.1 158.1 L 592.1 165.4 L 593.2 172.7 L 594.2 165.4 L 595.2 158.1 L 596.3 165.4 L 597.3 158.1 L 598.3 165.4 L 599.4 158.1 L 600.4 165.4 L 601.4 158.1 L 602.5 150.7 L 603.5 158.1 L 604.5 150.7 L 605.6 158.1 L 606.6 150.7 L 607.6 158.1 L 608.7 150.7 L 609.7 158.1 L 610.7 150.7 L 611.8 158.1 L 612.8 165.4 L 613.8 172.7 L 614.9 165.4 L 615.9 172.7 L 616.9 165.4 L 618.0 158.1 L 619.0 165.4 L 620.0 172.7 L 621.1 165.4 L 622.1 172.7 L 623.1 180.0 L 624.2 172.7 L 625.2 180.0 L 626.2 172.7 L 627.3 180.0 L 628.3 187.3 L 629.3 180.0 L 630.4 172.7 L 631.4 180.0 L 632.4 187.3 L 633.5 194.6 L 634.5 187.3 L 635.5 180.0 L 636.6 187.3 L 637.6 180.0 L 638.6 187.3 L 639.7 194.6 L 640.7 187.3 L 641.7 194.6 L 642.8 187.3 L 643.8 194.6 L 644.8 201.9 L 645.9 209.3 L 646.9 201.9 L 647.9 194.6 L 649.0 201.9 L 650.0 194.6 L 651.0 201.9 L 652.1 194.6 L 653.1 187.3 L 654.1 180.0 L 655.2 187.3 L 656.2 180.0 L 657.2 187.3 L 658.3 180.0 L 659.3 187.3 L 660.3 180.0 L 661.4 187.3 L 662.4 180.0 L 663.4 187.3 L 664.4 194.6 L 665.5 187.3 L 666.5 180.0 L 667.5 187.3 L 668.6 180.0 L 669.6 172.7 L 670.6 180.0 L 671.7 187.3 L 672.7 180.0 L 673.7 187.3 L 674.8 180.0 L 675.8 172.7 L 676.8 180.0 L 677.9 172.7 L 678.9 165.4 L 679.9 158.1 L 681.0 165.4 L 682.0 172.7 L 683.0 165.4 L 684.1 172.7 L 685.1 180.0 L 686.1 172.7 L 687.2 165.4 L 688.2 158.1 L 689.2 165.4 L 690.3 172.7 L 691.3 180.0 L 692.3 172.7 L 693.4 180.0 L 694.4 172.7 L 695.4 165.4 L 696.5 172.7 L 697.5 165.4 L 698.5 172.7 L 699.6 180.0 L 700.6 187.3 L 701.6 180.0 L 702.7 172.7 L 703.7 180.0 L 704.7 172.7 L 705.8 180.0 L 706.8 172.7 L 707.8 180.0 L 708.9 172.7 L 709.9 165.4 L 710.9 172.7 L 712.0 165.4 L 713.0 172.7 L 714.0 165.4 L 715.1 158.1 L 716.1 165.4 L 717.1 172.7 L 718.2 165.4 L 719.2 172.7 L 720.2 165.4 L 721.3 172.7 L 722.3 180.0 L 723.3 172.7 L 724.4 165.4 L 725.4 158.1 L 726.4 150.7 L 727.5 143.4 L 728.5 150.7 L 729.5 158.1 L 730.6 165.4 L 731.6 158.1 L 732.6 150.7 L 733.7 143.4 L 734.7 136.1 L 735.7 143.4 L 736.8 136.1 L 737.8 143.4 L 738.8 150.7 L 739.9 143.4 L 740.9 150.7 L 741.9 143.4 L 743.0 136.1 L 744.0 143.4 L 745.0 150.7 L 746.1 158.1 L 747.1 150.7 L 748.1 158.1 L 749.2 165.4 L 750.2 172.7 L 751.2 180.0 L 752.3 172.7 L 753.3 180.0 L 754.3 172.7 L 755.4 165.4 L 756.4 172.7 L 757.4 180.0 L 758.5 187.3 L 759.5 180.0 L 760.5 172.7 L 761.6 165.4 L 762.6 158.1 L 763.6 150.7 L 764.7 158.1 L 765.7 165.4 L 766.7 158.1 L 767.8 150.7 L 768.8 158.1 L 769.8 165.4 L 770.9 158.1 L 771.9 165.4 L 772.9 158.1 L 774.0 150.7 L 775.0 158.1 L 776.0 165.4 L 777.1 158.1 L 778.1 165.4 L 779.1 172.7 L 780.2 165.4 L 781.2 158.1 L 782.2 150.7 L 783.3 158.1 L 784.3 165.4 L 785.3 158.1 L 786.4 150.7 L 787.4 158.1 L 788.4 150.7 L 789.5 143.4 L 790.5 150.7 L 791.5 158.1 L 792.6 150.7 L 793.6 158.1 L 794.6 150.7 L 795.7 158.1 L 796.7 165.4 L 797.7 172.7 L 798.8 165.4 L 799.8 158.1 L 800.8 165.4 L 801.8 158.1 L 802.9 165.4 L 803.9 158.1 L 804.9 150.7 L 806.0 158.1 L 807.0 165.4 L 808.0 158.1 L 809.1 150.7 L 810.1 143.4 L 811.1 150.7 L 812.2 158.1 L 813.2 165.4 L 814.2 172.7 L 815.3 165.4 L 816.3 158.1 L 817.3 165.4 L 818.4 158.1 L 819.4 165.4 L 820.4 158.1 L 821.5 165.4 L 822.5 172.7 L 823.5 180.0 L 824.6 172.7 L 825.6 180.0 L 826.6 172.7 L 827.7 165.4 L 828.7 158.1 L 829.7 150.7 L 830.8 158.1 L 831.8 150.7 L 832.8 143.4 L 833.9 136.1 L 834.9 143.4 L 835.9 136.1 L 837.0 143.4 L 838.0 136.1 L 839.0 128.8 L 840.1 121.5 L 841.1 114.2 L 842.1 106.9 L 843.2 114.2 L 844.2 121.5 L 845.2 114.2 L 846.3 121.5 L 847.3 128.8 L 848.3 136.1 L 849.4 128.8 L 850.4 136.1 L 851.4 143.4 L 852.5 136.1 L 853.5 128.8 L 854.5 136.1 L 855.6 128.8 L 856.6 121.5 L 857.6 128.8 L 858.7 121.5 L 859.7 114.2 L 860.7 121.5 L 861.8 128.8 L 862.8 121.5 L 863.8 128.8 L 864.9 136.1 L 865.9 143.4 L 866.9 136.1 L 868.0 143.4 L 869.0 136.1 L 870.0 143.4 L 871.1 136.1 L 872.1 143.4 L 873.1 150.7 L 874.2 143.4 L 875.2 150.7 L 876.2 143.4 L 877.3 150.7 L 878.3 143.4 L 879.3 150.7 L 880.4 158.1 L 881.4 150.7 L 882.4 158.1 L 883.5 150.7 L 884.5 143.4 L 885.5 150.7 L 886.6 143.4 L 887.6 150.7 L 888.6 158.1 L 889.7 165.4 L 890.7 158.1 L 891.7 165.4 L 892.8 158.1 L 893.8 150.7 L 894.8 143.4 L 895.9 150.7 L 896.9 158.1 L 897.9 165.4 L 899.0 158.1 L 900.0 150.7 L 901.0 158.1 L 902.1 165.4 L 903.1 158.1 L 904.1 150.7 L 905.2 158.1 L 906.2 150.7 L 907.2 158.1 L 908.3 150.7 L 909.3 143.4 L 910.3 150.7 L 911.4 143.4 L 912.4 136.1 L 913.4 143.4 L 914.5 136.1 L 915.5 128.8 L 916.5 136.1 L 917.6 128.8 L 918.6 121.5 L 919.6 128.8 L 920.7 136.1 L 921.7 128.8 L 922.7 121.5 L 923.8 128.8 L 924.8 136.1 L 925.8 143.4 L 926.9 136.1 L 927.9 143.4 L 928.9 136.1 L 930.0 128.8 L 931.0 136.1 L 932.0 128.8 L 933.1 136.1 L 934.1 128.8 L 935.1 136.1 L 936.2 143.4 L 937.2 136.1 L 938.2 128.8 L 939.3 136.1 L 940.3 128.8 L 941.3 136.1 L 942.3 143.4 L 943.4 136.1 L 944.4 143.4 L 945.4 150.7 L 946.5 143.4 L 947.5 136.1 L 948.5 128.8 L 949.6 136.1 L 950.6 143.4 L 951.6 136.1 L 952.7 128.8 L 953.7 136.1 L 954.7 128.8 L 955.8 121.5 L 956.8 114.2 L 957.8 106.9 L 958.9 114.2 L 959.9 121.5 L 960.9 114.2 L 962.0 106.9 L 963.0 114.2 L 964.0 121.5 L 965.1 128.8 L 966.1 136.1 L 967.1 128.8 L 968.2 136.1 L 969.2 143.4 L 970.2 150.7 L 971.3 143.4 L 972.3 150.7 L 973.3 158.1 L 974.4 150.7 L 975.4 158.1 L 976.4 150.7 L 977.5 143.4 L 978.5 150.7 L 979.5 158.1 L 980.6 150.7 L 981.6 158.1 L 982.6 150.7 L 983.7 143.4 L 984.7 150.7 L 985.7 158.1 L 986.8 150.7 L 987.8 143.4 L 988.8 150.7 L 989.9 158.1 L 990.9 165.4 L 991.9 158.1 L 993.0 150.7 L 994.0 158.1 L 995.0 165.4 L 996.1 172.7 L 997.1 165.4 L 998.1 172.7 L 999.2 165.4 L 1000.2 172.7 L 1001.2 180.0 L 1002.3 172.7 L 1003.3 180.0 L 1004.3 172.7 L 1005.4 165.4 L 1006.4 172.7 L 1007.4 165.4 L 1008.5 172.7 L 1009.5 165.4 L 1010.5 172.7 L 1011.6 165.4 L 1012.6 172.7 L 1013.6 165.4 L 1014.7 172.7 L 1015.7 165.4 L 1016.7 172.7 L 1017.8 165.4 L 1018.8 158.1 L 1019.8 150.7 L 1020.9 158.1 L 1021.9 165.4 L 1022.9 158.1 L 1024.0 165.4 L 1025.0 158.1 L 1026.0 150.7 L 1027.1 143.4 L 1028.1 150.7 L 1029.1 143.4 L 1030.2 150.7 L 1031.2 158.1 L 1032.2 150.7 L 1033.3 143.4 L 1034.3 136.1 L 1035.3 143.4 L 1036.4 150.7 L 1037.4 143.4 L 1038.4 136.1 L 1039.5 128.8 L 1040.5 136.1 L 1041.5 143.4 L 1042.6 136.1 L 1043.6 143.4 L 1044.6 150.7 L 1045.7 143.4 L 1046.7 136.1 L 1047.7 128.8 L 1048.8 121.5 L 1049.8 114.2 L 1050.8 121.5 L 1051.9 114.2 L 1052.9 121.5 L 1053.9 128.8 L 1055.0 121.5 L 1056.0 114.2 L 1057.0 121.5 L 1058.1 114.2 L 1059.1 121.5 L 1060.1 128.8 L 1061.2 121.5 L 1062.2 128.8 L 1063.2 136.1 L 1064.3 128.8 L 1065.3 121.5 L 1066.3 114.2 L 1067.4 121.5 L 1068.4 114.2 L 1069.4 121.5 L 1070.5 128.8 L 1071.5 121.5 L 1072.5 128.8 L 1073.6 121.5 L 1074.6 128.8 L 1075.6 136.1 L 1076.7 143.4 L 1077.7 150.7 L 1078.7 158.1 L 1079.8 150.7 L 1080.8 143.4 L 1081.8 136.1 L 1082.8 143.4 L 1083.9 150.7 L 1084.9 143.4 L 1085.9 136.1 L 1087.0 143.4 L 1088.0 136.1 L 1089.0 143.4 L 1090.1 136.1 L 1091.1 128.8 L 1092.1 121.5 L 1093.2 128.8 L 1094.2 121.5 L 1095.2 114.2 L 1096.3 121.5 L 1097.3 114.2 L 1098.3 121.5 L 1099.4 128.8 L 1100.4 121.5 L 1101.4 114.2 L 1102.5 106.9 L 1103.5 114.2 L 1104.5 121.5 L 1105.6 114.2 L 1106.6 121.5 L 1107.6 128.8 L 1108.7 121.5 L 1109.7 114.2 L 1110.7 121.5 L 1111.8 114.2 L 1112.8 121.5 L 1113.8 128.8 L 1114.9 121.5 L 1115.9 128.8 L 1116.9 121.5 L 1118.0 128.8 L 1119.0 136.1 L 1120.0 128.8 L 1121.1 136.1 L 1122.1 143.4 L 1123.1 136.1 L 1124.2 143.4 L 1125.2 150.7 L 1126.2 143.4 L 1127.3 136.1 L 1128.3 128.8 L 1129.3 121.5 L 1130.4 114.2 L 1131.4 106.9 L 1132.4 114.2 L 1133.5 121.5 L 1134.5 114.2 L 1135.5 121.5 L 1136.6 114.2 L 1137.6 106.9 L 1138.6 99.5 L 1139.7 92.2" stroke="#3fb950" fill="none" stroke-width="1.5" opacity="0.8"/>
<path d="M 111.7 216.6 L 109.7 216.6 L 110.7 209.3 L 111.7 216.6 L 112.8 209.3 L 113.8 216.6 L 114.8 209.3 L 115.9 216.6 L 116.9 209.3 L 117.9 216.6 L 119.0 209.3 L 120.0 216.6 L 121.0 209.3 L 122.1 216.6 L 123.1 209.3 L 124.1 216.6 L 125.2 209.3 L 126.2 216.6 L 127.2 209.3 L 128.3 216.6 L 129.3 209.3 L 130.3 216.6 L 131.4 209.3 L 132.4 216.6 L 133.4 209.3 L 134.5 216.6 L 135.5 209.3 L 136.5 216.6 L 137.6 209.3 L 138.6 216.6 L 139.6 209.3 L 140.7 216.6 L 141.7 209.3 L 142.7 216.6 L 143.8 209.3 L 144.8 216.6 L 145.8 209.3 L 146.9 216.6 L 147.9 209.3 L 148.9 216.6 L 150.0 209.3 L 151.0 216.6 L 152.0 209.3 L 153.1 216.6 L 154.1 209.3 L 155.1 216.6 L 156.2 209.3 L 157.2 216.6 L 158.2 209.3 L 159.3 216.6 L 160.3 209.3 L 161.3 216.6 L 162.4 209.3 L 163.4 216.6 L 164.4 209.3 L 165.5 216.6 L 166.5 209.3 L 167.5 216.6 L 168.6 209.3 L 169.6 216.6 L 170.6 209.3 L 171.7 216.6 L 172.7 209.3 L 173.7 216.6 L 174.8 209.3 L 175.8 216.6 L 176.8 209.3 L 177.9 216.6 L 178.9 209.3 L 179.9 216.6 L 181.0 209.3 L 182.0 216.6 L 183.0 209.3 L 184.1 216.6 L 185.1 209.3 L 186.1 216.6 L 187.2 209.3 L 188.2 216.6 L 189.2 209.3 L 190.3 216.6 L 191.3 209.3 L 192.3 216.6 L 193.4 209.3 L 194.4 216.6 L 195.4 209.3 L 196.5 216.6 L 197.5 209.3 L 198.5 216.6 L 199.6 209.3 L 200.6 216.6 L 201.6 209.3 L 202.7 216.6 L 203.7 209.3 L 204.7 216.6 L 205.8 209.3 L 206.8 216.6 L 207.8 209.3 L 208.9 216.6 L 209.9 209.3 L 210.9 216.6 L 212.0 209.3 L 213.0 216.6 L 214.0 209.3 L 215.1 216.6 L 216.1 209.3 L 217.1 216.6 L 218.2 209.3 L 219.2 216.6 L 220.2 209.3 L 221.3 216.6 L 222.3 209.3 L 223.3 216.6 L 224.4 209.3 L 225.4 216.6 L 226.4 209.3 L 227.5 216.6 L 228.5 209.3 L 229.5 216.6 L 230.6 209.3 L 231.6 216.6 L 232.6 209.3 L 233.7 216.6 L 234.7 209.3 L 235.7 216.6 L 236.8 209.3 L 237.8 216.6 L 238.8 209.3 L 239.9 216.6 L 240.9 209.3 L 241.9 216.6 L 243.0 209.3 L 244.0 216.6 L 245.0 209.3 L 246.0 216.6 L 247.1 209.3 L 248.1 216.6 L 249.1 209.3 L 250.2 216.6 L 251.2 209.3 L 252.2 216.6 L 253.3 209.3 L 254.3 216.6 L 255.3 209.3 L 256.4 216.6 L 257.4 209.3 L 258.4 216.6 L 259.5 209.3 L 260.5 216.6 L 261.5 209.3 L 262.6 216.6 L 263.6 209.3 L 264.6 216.6 L 265.7 209.3 L 266.7 216.6 L 267.7 209.3 L 268.8 216.6 L 269.8 209.3 L 270.8 216.6 L 271.9 209.3 L 272.9 216.6 L 273.9 209.3 L 275.0 216.6 L 276.0 209.3 L 277.0 216.6 L 278.1 209.3 L 279.1 216.6 L 280.1 209.3 L 281.2 216.6 L 282.2 209.3 L 283.2 216.6 L 284.3 209.3 L 285.3 216.6 L 286.3 209.3 L 287.4 216.6 L 288.4 209.3 L 289.4 216.6 L 290.5 209.3 L 291.5 216.6 L 292.5 209.3 L 293.6 216.6 L 294.6 209.3 L 295.6 216.6 L 296.7 209.3 L 297.7 216.6 L 298.7 209.3 L 299.8 216.6 L 300.8 209.3 L 301.8 216.6 L 302.9 209.3 L 303.9 216.6 L 304.9 209.3 L 306.0 216.6 L 307.0 209.3 L 308.0 216.6 L 309.1 209.3 L 310.1 216.6 L 311.1 209.3 L 312.2 216.6 L 313.2 209.3 L 314.2 216.6 L 315.3 209.3 L 316.3 216.6 L 317.3 209.3 L 318.4 216.6 L 319.4 209.3 L 320.4 216.6 L 321.5 209.3 L 322.5 216.6 L 323.5 209.3 L 324.6 216.6 L 325.6 209.3 L 326.6 216.6 L 327.7 209.3 L 328.7 216.6 L 329.7 209.3 L 330.8 216.6 L 331.8 209.3 L 332.8 216.6 L 333.9 209.3 L 334.9 216.6 L 335.9 209.3 L 337.0 216.6 L 338.0 209.3 L 339.0 216.6 L 340.1 209.3 L 341.1 216.6 L 342.1 209.3 L 343.2 216.6 L 344.2 209.3 L 345.2 216.6 L 346.3 209.3 L 347.3 216.6 L 348.3 209.3 L 349.4 216.6 L 350.4 209.3 L 351.4 216.6 L 352.5 209.3 L 353.5 216.6 L 354.5 209.3 L 355.6 216.6 L 356.6 209.3 L 357.6 216.6 L 358.7 209.3 L 359.7 216.6 L 360.7 209.3 L 361.8 216.6 L 362.8 209.3 L 363.8 216.6 L 364.9 209.3 L 365.9 216.6 L 366.9 209.3 L 368.0 216.6 L 369.0 209.3 L 370.0 216.6 L 371.1 209.3 L 372.1 216.6 L 373.1 209.3 L 374.2 216.6 L 375.2 209.3 L 376.2 216.6 L 377.3 209.3 L 378.3 216.6 L 379.3 209.3 L 380.4 216.6 L 381.4 209.3 L 382.4 216.6 L 383.4 209.3 L 384.5 216.6 L 385.5 209.3 L 386.5 216.6 L 387.6 209.3 L 388.6 216.6 L 389.6 209.3 L 390.7 216.6 L 391.7 209.3 L 392.7 216.6 L 393.8 209.3 L 394.8 216.6 L 395.8 209.3 L 396.9 216.6 L 397.9 209.3 L 398.9 216.6 L 400.0 209.3 L 401.0 216.6 L 402.0 209.3 L 403.1 216.6 L 404.1 209.3 L 405.1 216.6 L 406.2 209.3 L 407.2 216.6 L 408.2 209.3 L 409.3 216.6 L 410.3 209.3 L 411.3 216.6 L 412.4 209.3 L 413.4 216.6 L 414.4 209.3 L 415.5 216.6 L 416.5 209.3 L 417.5 216.6 L 418.6 209.3 L 419.6 216.6 L 420.6 209.3 L 421.7 216.6 L 422.7 209.3 L 423.7 216.6 L 424.8 209.3 L 425.8 216.6 L 426.8 209.3 L 427.9 216.6 L 428.9 209.3 L 429.9 216.6 L 431.0 209.3 L 432.0 216.6 L 433.0 209.3 L 434.1 216.6 L 435.1 209.3 L 436.1 216.6 L 437.2 209.3 L 438.2 216.6 L 439.2 209.3 L 440.3 216.6 L 441.3 209.3 L 442.3 216.6 L 443.4 209.3 L 444.4 216.6 L 445.4 209.3 L 446.5 216.6 L 447.5 209.3 L 448.5 216.6 L 449.6 209.3 L 450.6 216.6 L 451.6 209.3 L 452.7 216.6 L 453.7 209.3 L 454.7 216.6 L 455.8 209.3 L 456.8 216.6 L 457.8 209.3 L 458.9 216.6 L 459.9 209.3 L 460.9 216.6 L 462.0 209.3 L 463.0 216.6 L 464.0 209.3 L 465.1 216.6 L 466.1 209.3 L 467.1 216.6 L 468.2 209.3 L 469.2 216.6 L 470.2 209.3 L 471.3 216.6 L 472.3 209.3 L 473.3 216.6 L 474.4 209.3 L 475.4 216.6 L 476.4 209.3 L 477.5 216.6 L 478.5 209.3 L 479.5 216.6 L 480.6 209.3 L 481.6 216.6 L 482.6 209.3 L 483.7 216.6 L 484.7 209.3 L 485.7 216.6 L 486.8 209.3 L 487.8 216.6 L 488.8 209.3 L 489.9 216.6 L 490.9 209.3 L 491.9 216.6 L 493.0 209.3 L 494.0 216.6 L 495.0 209.3 L 496.1 216.6 L 497.1 209.3 L 498.1 216.6 L 499.2 209.3 L 500.2 216.6 L 501.2 209.3 L 502.3 216.6 L 503.3 209.3 L 504.3 216.6 L 505.4 209.3 L 506.4 216.6 L 507.4 209.3 L 508.5 216.6 L 509.5 209.3 L 510.5 216.6 L 511.6 209.3 L 512.6 216.6 L 513.6 209.3 L 514.7 216.6 L 515.7 209.3 L 516.7 216.6 L 517.8 209.3 L 518.8 216.6 L 519.8 209.3 L 520.9 216.6 L 521.9 209.3 L 522.9 216.6 L 523.9 209.3 L 525.0 216.6 L 526.0 209.3 L 527.0 216.6 L 528.1 209.3 L 529.1 216.6 L 530.1 209.3 L 531.2 216.6 L 532.2 209.3 L 533.2 216.6 L 534.3 209.3 L 535.3 216.6 L 536.3 209.3 L 537.4 216.6 L 538.4 209.3 L 539.4 216.6 L 540.5 209.3 L 541.5 216.6 L 542.5 209.3 L 543.6 216.6 L 544.6 209.3 L 545.6 216.6 L 546.7 209.3 L 547.7 216.6 L 548.7 209.3 L 549.8 216.6 L 550.8 209.3 L 551.8 216.6 L 552.9 209.3 L 553.9 216.6 L 554.9 209.3 L 556.0 216.6 L 557.0 209.3 L 558.0 216.6 L 559.1 209.3 L 560.1 216.6 L 561.1 209.3 L 562.2 216.6 L 563.2 209.3 L 564.2 216.6 L 565.3 209.3 L 566.3 216.6 L 567.3 209.3 L 568.4 216.6 L 569.4 209.3 L 570.4 216.6 L 571.5 209.3 L 572.5 216.6 L 573.5 209.3 L 574.6 216.6 L 575.6 209.3 L 576.6 216.6 L 577.7 209.3 L 578.7 216.6 L 579.7 209.3 L 580.8 216.6 L 581.8 209.3 L 582.8 216.6 L 583.9 209.3 L 584.9 216.6 L 585.9 209.3 L 587.0 216.6 L 588.0 209.3 L 589.0 216.6 L 590.1 209.3 L 591.1 216.6 L 592.1 209.3 L 593.2 216.6 L 594.2 209.3 L 595.2 216.6 L 596.3 209.3 L 597.3 216.6 L 598.3 209.3 L 599.4 216.6 L 600.4 209.3 L 601.4 216.6 L 602.5 209.3 L 603.5 216.6 L 604.5 209.3 L 605.6 216.6 L 606.6 209.3 L 607.6 216.6 L 608.7 209.3 L 609.7 216.6 L 610.7 209.3 L 611.8 216.6 L 612.8 209.3 L 613.8 216.6 L 614.9 209.3 L 615.9 216.6 L 616.9 209.3 L 618.0 216.6 L 619.0 209.3 L 620.0 216.6 L 621.1 209.3 L 622.1 216.6 L 623.1 209.3 L 624.2 216.6 L 625.2 209.3" stroke="#f85149" fill="none" stroke-width="1.5" opacity="0.8"/>
<path d="M 111.7 216.6 L 110.4 210.2 L 112.4 207.8 L 110.6 203.2 L 110.9 211.6 L 108.9 211.5 L 110.2 218.0 L 108.4 222.4 L 110.4 224.9 L 109.5 232.5 L 109.8 240.9 L 111.2 234.7 L 111.5 226.4 L 113.5 229.0 L 112.7 221.2 L 114.7 219.1 L 116.1 213.0 L 116.5 204.7 L 114.7 208.9 L 113.8 216.4 L 112.1 211.4 L 112.3 219.8 L 113.5 226.6 L 111.7 230.7 L 110.7 238.1 L 112.2 232.1 L 113.4 238.9 L 113.9 230.7 L 115.8 233.8 L 115.1 225.8 L 117.1 224.2 L 115.3 228.0 L 114.6 220.0 L 113.0 214.7 L 113.1 223.1 L 111.2 226.8 L 113.1 230.1 L 115.2 228.8 L 116.7 223.2 L 117.8 230.3 L 119.7 233.7 L 121.8 232.6 L 120.2 227.0 L 120.8 218.9 L 118.9 222.3 L 118.4 214.2 L 117.2 221.2 L 118.3 228.4 L 120.3 227.6 L 120.3 236.0 L 121.9 230.7 L 122.9 238.0 L 124.8 241.9 L 124.3 233.7 L 125.9 228.6 L 126.6 220.6 L 126.2 212.4 L 124.7 206.4 L 124.6 214.8 L 125.5 222.3 L 123.6 225.1 L 125.4 229.3 L 125.2 237.7 L 124.8 229.4 L 126.9 229.1 L 125.5 222.9 L 127.2 218.1 L 125.9 224.6 L 125.6 233.0 L 123.6 235.4 L 125.4 239.9 L 124.0 246.3 L 123.7 254.7 L 124.6 247.0 L 124.3 238.6 L 123.0 232.2 L 124.8 227.8 L 125.7 220.2 L 124.3 226.4 L 123.0 219.8 L 123.8 227.6 L 122.3 233.7 L 124.4 234.1 L 125.1 242.0 L 126.1 234.6 L 126.0 226.2 L 128.0 226.8 L 129.8 222.7 L 127.8 224.4 L 127.7 216.0 L 126.2 221.9 L 125.0 215.0 L 123.0 216.6 L 125.0 217.5 L 124.5 225.7 L 125.6 218.4 L 127.2 223.8 L 129.2 224.9 L 130.3 217.7 L 128.3 219.0 L 128.8 227.1 L 130.4 232.7 L 129.8 240.8 L 130.3 248.9 L 131.8 254.6 L 131.9 246.2 L 130.8 238.9 L 132.0 232.0 L 132.1 223.6 L 131.1 216.3 L 130.4 224.2 L 130.9 232.5 L 132.3 238.4 L 130.7 243.5 L 132.7 245.3 L 134.0 238.5 L 136.0 240.5 L 135.0 233.0 L 137.0 230.2 L 138.3 223.6 L 138.5 215.2 L 136.8 220.0 L 137.1 228.3 L 135.1 228.5 L 133.3 233.3 L 135.3 230.8 L 136.7 237.1 L 135.8 229.4 L 137.2 223.1 L 135.4 227.6 L 134.5 235.2 L 134.8 243.6 L 132.7 243.3 L 134.7 246.0 L 136.7 243.9 L 136.9 252.3 L 137.3 244.0 L 139.2 246.8 L 137.2 246.3 L 136.5 238.4 L 134.4 237.7 L 135.6 244.5 L 134.6 251.8 L 136.6 250.2 L 136.7 258.6 L 138.2 252.8 L 140.1 256.0 L 138.1 255.1 L 138.6 246.9 L 136.7 250.6 L 136.1 242.5 L 137.3 249.6 L 135.4 253.1 L 137.3 256.6 L 136.1 263.7 L 135.6 255.6 L 137.6 254.5 L 135.6 253.1 L 135.1 245.0 L 135.0 253.4 L 133.0 251.8 L 131.1 255.0 L 129.9 261.8 L 130.6 253.9 L 132.4 257.9 L 134.4 257.3 L 136.1 252.3 L 134.2 255.1 L 132.9 261.8 L 133.8 269.3 L 131.9 272.0 L 130.6 278.6 L 132.6 278.3 L 133.6 285.9 L 134.4 278.1 L 134.0 269.8 L 135.8 265.2 L 133.8 262.9 L 133.5 254.5 L 132.1 260.9 L 131.8 269.3 L 133.9 269.4 L 133.5 277.7 L 135.3 273.3 L 136.1 281.1 L 137.8 285.9 L 139.9 286.2 L 137.9 283.5 L 135.9 285.5 L 134.5 291.6 L 133.0 297.5 L 135.1 298.1 L 135.8 306.1 L 135.7 297.6 L 137.5 293.8 L 138.6 286.5 L 138.5 278.0 L 138.0 286.2 L 139.5 291.6 L 138.0 297.2 L 137.5 305.4 L 138.1 313.5 L 139.2 306.3 L 139.2 297.9 L 137.3 294.3 L 137.3 285.9 L 135.3 286.8 L 136.8 292.6 L 135.2 297.9 L 134.5 305.9 L 136.4 302.7 L 137.6 295.8 L 139.1 301.6 L 139.2 293.2 L 141.2 294.8 L 142.5 288.0 L 140.4 288.7 L 138.8 293.7 L 139.2 302.0 L 140.6 308.2 L 142.6 310.3 L 140.8 305.9 L 140.0 313.7 L 137.9 313.7 L 139.9 311.4 L 140.2 319.7 L 141.5 313.4 L 142.9 319.8 L 144.8 322.3 L 143.1 317.6 L 144.5 311.4 L 142.5 311.2 L 140.7 315.5 L 140.9 323.9 L 139.1 328.1 L 141.1 330.9 L 140.1 338.4 L 142.1 336.5 L 142.3 344.9 L 143.5 351.6 L 145.6 349.8 L 146.0 341.6 L 145.0 348.9 L 146.2 355.8 L 148.1 359.0 L 147.0 366.3 L 147.1 374.7 L 147.6 366.6 L 149.5 369.9 L 148.0 364.5 L 149.5 358.9 L 148.4 366.0 L 146.8 360.4 L 144.8 359.2 L 145.9 366.3 L 144.0 369.7 L 142.8 376.7 L 144.9 375.7 L 146.5 370.3 L 148.3 374.1 L 146.4 377.2 L 145.2 384.1 L 143.7 378.2 L 143.6 386.6 L 145.3 381.6 L 146.2 389.0 L 147.0 381.2 L 149.1 380.7 L 149.8 372.9 L 147.9 375.6 L 146.5 369.4 L 147.4 377.0 L 149.1 381.4 L 151.2 381.3 L 152.9 376.6 L 151.6 370.2 L 149.6 367.8 L 150.5 360.1 L 148.5 362.4 L 148.2 370.7 L 146.2 372.9 L 145.8 381.2 L 146.7 373.7 L 148.5 369.5 L 147.1 375.5 L 146.6 383.8 L 144.7 380.8 L 145.4 388.7 L 143.4 390.4 L 145.0 395.5 L 144.5 403.8 L 146.1 409.0 L 148.2 409.9 L 150.0 406.2 L 148.9 399.1 L 148.4 407.3 L 146.8 412.8 L 148.8 414.0 L 150.9 415.4 L 152.8 412.0 L 150.7 413.0 L 149.1 418.3 L 148.1 411.1 L 147.4 419.1 L 145.6 415.2 L 147.1 421.1 L 149.1 422.7 L 149.6 430.9 L 150.8 424.1 L 152.8 425.9 L 150.7 426.4 L 149.8 418.9 L 148.0 414.7 L 146.3 419.6 L 148.3 421.6 L 147.5 429.4 L 149.5 426.8 L 150.9 433.0 L 152.8 430.5 L 151.1 426.1 L 150.2 418.4 L 149.4 426.1 L 149.6 434.4 L 147.6 434.4 L 148.9 440.8 L 148.0 448.4 L 149.4 442.2 L 147.7 437.3 L 147.9 445.7 L 145.8 445.2 L 144.0 449.3 L 146.0 447.5 L 148.0 450.6 L 147.3 442.6 L 149.3 441.0 L 147.2 440.2 L 145.6 434.9 L 145.7 443.3 L 143.6 442.3 L 145.5 445.7 L 147.6 444.3 L 149.1 438.7 L 150.3 445.8 L 152.3 444.6 L 150.7 439.1 L 149.2 433.4 L 147.2 432.0 L 148.2 439.2 L 150.1 443.0 L 148.9 449.9 L 148.8 458.3 L 148.4 450.1 L 146.9 444.2 L 148.5 439.1 L 146.5 437.4 L 144.6 440.4 L 144.1 432.1 L 142.7 426.1 L 140.7 429.0 L 139.4 435.7 L 139.3 444.1 L 138.9 435.8 L 140.9 435.5 L 142.7 430.7 L 142.3 422.4 L 142.0 430.7 L 142.9 438.4 L 140.9 440.8 L 140.7 432.4 L 138.7 434.6 L 137.4 428.0 L 138.2 435.8 L 136.2 437.8 L 134.7 443.9 L 136.8 444.4 L 138.6 440.2 L 140.4 436.2 L 140.3 427.8 L 138.8 433.7 L 136.8 435.2 L 138.8 436.1 L 138.3 444.3 L 139.9 449.7 L 138.0 446.3 L 138.0 437.8 L 136.4 443.4 L 135.3 436.2 L 135.9 444.4 L 137.4 450.0 L 139.5 451.3 L 138.9 459.4 L 140.8 456.0 L 141.3 464.2 L 142.8 469.9 L 141.8 462.6 L 143.7 459.4 L 141.8 455.6 L 139.8 456.4 L 138.8 449.1 L 138.1 457.1 L 136.0 457.7 L 138.0 459.5 L 137.3 467.4 L 137.5 459.0 L 139.4 456.2 L 139.6 447.8 L 137.9 452.7 L 137.1 460.4 L 135.4 456.1 L 135.7 464.4 L 134.9 472.2 L 135.2 463.8 L 137.2 466.2 L 139.1 463.8 L 137.1 463.7 L 135.3 468.2 L 134.5 460.5 L 132.7 464.8 L 134.7 462.7 L 136.0 469.4 L 138.0 472.1 L 140.0 470.2 L 137.9 469.7 L 137.2 461.8 L 135.1 461.1 L 137.2 459.5 L 137.3 467.9 L 138.4 474.8 L 140.4 478.0 L 139.7 470.0 L 138.1 464.6 L 138.2 473.0 L 136.3 476.6 L 138.3 475.4 L 138.3 483.8 L 137.8 475.7 L 139.8 474.6 L 137.8 473.2 L 136.6 480.2 L 136.5 488.6 L 138.3 492.5 L 137.1 499.3 L 137.0 507.8 L 135.6 501.8 L 136.3 493.9 L 134.4 496.8 L 132.4 494.8 L 133.2 487.0 L 134.9 491.4 L 134.6 483.1 L 132.6 480.8 L 130.6 483.2 L 130.3 474.8 L 128.3 472.4 L 126.4 474.7 L 128.4 474.8 L 128.1 483.2 L 129.0 475.6 L 129.9 468.1 L 127.9 470.1 L 127.7 461.7 L 126.3 467.7 L 127.0 475.6 L 128.7 480.8 L 128.6 472.3 L 127.4 465.5 L 125.4 462.3 L 123.4 463.9 L 123.3 455.5 L 122.2 448.5 L 121.6 456.7 L 123.2 462.1 L 121.7 467.7 L 122.3 475.8 L 123.4 468.7 L 125.4 469.9 L 124.3 462.8 L 124.4 454.3 L 122.8 459.7 L 120.7 460.7 L 119.1 466.0 L 119.2 457.6 L 120.4 450.8 L 118.8 455.9 L 117.8 448.5 L 117.1 456.4 L 115.3 452.3 L 115.7 460.5 L 116.1 468.8 L 116.3 460.4 L 114.5 456.1 L 112.5 456.3 L 111.6 448.7 L 110.7 456.4 L 109.0 451.9 L 106.9 452.0 L 108.3 458.4 L 110.3 460.7 L 110.5 469.1 L 111.9 462.8 L 111.1 455.0 L 112.5 448.8 L 110.4 448.5 L 109.6 440.7 L 110.9 447.4 L 112.9 450.2 L 111.9 457.6 L 112.1 466.1 L 112.5 457.8 L 111.8 449.9 L 110.1 444.8 L 109.4 436.8 L 107.4 436.0 L 108.6 442.9 L 106.7 446.7 L 108.2 441.0 L 108.8 432.9 L 110.7 436.2 L 109.1 430.8 L 109.7 422.7 L 108.5 429.8 L 108.5 438.2 L 109.6 445.4 L 110.7 452.6 L 112.6 456.3 L 112.0 448.2 L 113.7 442.9 L 112.5 449.7 L 111.0 443.9 L 108.9 442.2 L 108.8 450.6 L 110.5 445.6 L 112.2 449.7 L 110.2 447.7 L 111.0 439.9 L 109.1 442.6 L 107.7 436.4 L 109.4 440.8 L 108.1 447.3 L 109.8 442.6 L 108.5 436.2 L 110.2 431.7 L 111.1 424.1 L 109.1 426.3 L 108.8 418.0 L 107.5 411.5 L 107.2 419.8 L 108.9 424.6 L 107.5 430.8 L 107.3 422.4 L 107.1 414.0 L 105.2 411.0 L 105.9 418.9 L 103.9 420.6 L 102.4 426.5 L 101.9 434.7 L 103.8 430.8 L 104.8 423.5 L 105.9 416.3 L 103.8 417.7 L 102.3 423.3 L 100.3 424.6 L 98.7 430.1 L 99.3 438.3 L 100.4 431.2 L 100.4 422.8 L 98.6 419.1 L 97.5 411.8 L 96.9 419.8 L 95.0 416.0 L 93.0 416.8 L 94.9 413.7 L 95.3 422.0 L 96.6 415.2 L 94.8 411.1 L 95.1 419.4 L 93.5 424.2 L 92.7 432.0 L 94.6 429.4 L 96.0 435.6 L 96.3 427.2 L 98.2 424.7 L 96.5 420.3 L 96.8 411.9 L 95.9 404.2 L 95.0 411.9 L 93.0 411.8 L 94.3 418.3 L 93.4 425.9 L 93.7 434.3 L 94.0 425.9 L 93.1 433.4 L 91.0 432.9 L 92.2 439.6 L 91.3 447.0 L 92.7 441.1 L 93.2 432.9 L 95.2 431.2 L 94.6 423.2 L 93.0 417.9 L 91.1 421.6 L 91.1 430.0 L 92.7 424.4 L 91.1 418.9 L 89.1 417.6 L 89.7 409.5 L 89.1 401.4 L 87.6 395.7 L 86.4 402.6 L 88.5 401.8 L 89.5 409.1 L 88.0 403.2 L 86.0 401.5 L 86.7 393.5 L 84.8 396.5 L 84.3 388.3 L 83.1 394.9 L 85.1 394.5 L 85.9 386.7 L 85.5 378.4 L 86.4 370.6 L 85.0 377.1 L 84.8 385.5 L 85.6 393.1 L 87.4 388.6 L 89.4 388.7 L 88.1 382.3 L 89.9 377.9 L 90.8 370.3 L 88.8 372.4 L 87.4 378.6 L 87.0 386.9 L 85.0 388.9 L 83.6 395.0 L 84.3 402.9 L 86.4 403.5 L 86.3 395.0 L 84.8 400.9 L 84.3 409.1 L 82.4 406.0 L 81.9 414.2 L 82.9 406.9 L 80.9 408.2 L 80.9 399.8 L 79.3 405.3 L 78.2 398.2 L 76.3 394.6 L 76.9 402.8 L 78.9 404.1 L 78.3 412.2 L 78.4 403.7 L 77.7 411.7 L 75.6 412.3 L 74.0 417.4 L 74.4 425.7 L 73.5 418.2 L 71.7 414.0 L 71.9 405.6 L 70.1 401.2 L 70.5 409.5 L 68.4 409.8 L 66.7 414.5 L 68.6 412.0 L 70.0 405.5 L 72.0 407.9 L 71.1 400.2 L 73.1 397.9 L 71.3 402.3 L 70.4 410.0 L 70.7 418.3 L 68.6 418.1 L 66.9 422.4 L 68.8 425.1 L 69.0 433.5 L 70.4 427.4 L 72.5 425.4 L 72.9 417.2 L 71.9 424.6 L 73.8 427.7 L 72.8 435.0 L 72.9 443.4 L 74.8 446.6 L 74.1 438.6 L 72.5 433.3 L 70.5 432.3 L 68.6 436.0 L 67.5 443.1 L 67.5 451.6 L 67.0 443.4 L 69.0 442.4 L 67.0 441.0 L 66.5 432.8 L 66.4 441.2 L 68.2 445.1 L 68.9 437.2 L 70.7 441.2 L 70.3 432.9 L 72.3 432.4 L 70.9 426.3 L 69.0 429.0 L 67.7 435.5 L 69.7 435.3 L 71.5 439.7 L 73.6 439.5 L 75.3 434.9 L 73.9 441.3 L 72.0 438.8 L 74.0 439.0 L 73.7 447.3 L 74.6 439.8 L 74.4 431.4 L 73.2 424.7 L 71.2 421.8 L 72.9 426.9 L 74.9 427.5 L 74.5 435.7 L 76.3 431.7 L 76.2 423.3 L 75.0 416.4 L 76.8 412.5 L 74.9 409.4 L 72.9 411.0 L 70.8 412.4 L 69.3 418.0 L 71.4 419.1 L 70.8 427.2 L 72.9 428.4 L 71.7 421.3 L 73.6 417.8 L 73.7 409.4 L 72.1 414.8 L 71.4 422.9 L 69.6 419.2 L 70.8 412.3 L 70.9 403.8 L 69.9 396.5 L 71.8 393.4 L 69.7 394.1 L 68.7 386.7 L 70.0 380.1 L 72.0 377.4 L 70.2 373.1 L 68.1 373.3 L 68.4 364.9 L 66.7 369.6 L 65.8 362.0 L 65.0 369.7 L 62.9 369.8 L 64.9 367.5 L 66.2 361.1 L 67.6 367.6 L 66.8 359.8 L 68.1 353.6 L 68.5 345.3 L 69.8 351.9 L 68.0 356.1 L 69.9 358.9 L 72.0 357.0 L 69.9 356.3 L 70.4 348.1 L 69.3 355.4 L 67.3 354.6 L 65.4 358.4 L 64.4 365.6 L 65.9 359.9 L 66.4 351.8 L 64.9 346.3 L 66.4 340.7 L 67.0 332.6 L 65.1 336.2 L 64.0 343.3 L 62.4 337.7 L 60.4 336.4 L 61.5 343.6 L 60.3 350.6 L 62.4 349.6 L 64.2 353.3 L 66.3 352.4 L 65.1 359.3 L 63.6 353.4 L 61.7 356.4 L 63.3 351.4 L 64.1 343.6 L 63.7 335.2 L 65.5 339.7 L 64.2 346.1 L 65.9 350.7 L 64.6 344.3 L 62.6 341.8 L 63.5 334.2 L 63.2 325.8 L 64.0 333.6 L 65.7 338.4 L 67.8 338.7 L 68.5 346.5 L 69.5 339.0 L 71.6 339.5 L 72.5 332.0 L 71.1 338.0 L 69.1 335.0 L 69.8 342.9 L 68.4 348.8 L 70.2 344.9 L 70.1 336.5 L 72.0 332.7 L 70.1 329.3 L 70.7 337.4 L 68.6 338.7 L 70.7 339.9 L 72.6 336.4 L 73.1 344.5 L 73.2 336.1 L 71.1 337.0 L 70.1 329.8 L 68.2 325.9 L 66.2 326.7 L 67.7 332.6 L 69.7 334.2 L 70.1 342.5 L 72.2 344.2 L 71.2 336.8 L 72.4 330.1 L 72.6 321.7 L 71.6 314.2 L 69.9 310.0 L 71.3 316.1 L 73.3 318.2 L 73.6 326.5 L 75.0 332.8 L 75.3 324.4 L 74.4 316.8 L 72.6 312.3 L 70.6 312.4 L 69.7 304.7 L 70.0 313.1 L 71.4 306.8 L 71.7 298.5 L 72.1 290.2 L 70.3 294.4 L 71.6 301.1 L 69.8 305.2 L 71.8 303.4 L 73.0 310.3 L 72.4 302.2 L 72.4 310.7 L 74.5 309.4 L 74.5 317.8 L 76.0 312.2 L 77.9 315.7 L 80.0 314.5 L 78.4 309.0 L 76.4 307.7 L 77.0 299.6 L 74.9 298.2 L 76.8 301.9 L 78.4 296.7 L 76.9 290.8 L 76.5 282.6 L 75.0 276.6 L 74.9 285.0 L 76.7 289.1 L 78.7 288.7 L 79.7 296.2 L 80.4 288.4 L 82.5 288.1 L 81.1 281.9 L 79.1 279.8 L 78.8 271.4 L 79.6 279.1 L 77.7 281.5 L 79.4 286.2 L 79.1 277.8 L 80.0 270.2 L 78.0 272.3 L 76.7 265.8 L 76.4 274.1 L 74.4 276.0 L 75.3 268.6 L 77.0 273.6 L 76.8 265.2 L 78.9 265.8 L 77.0 262.8 L 75.8 256.0 L 73.9 252.8 L 71.8 254.4 L 73.4 259.6 L 75.3 255.9 L 77.3 256.9 L 75.4 253.5 L 76.6 246.4 L 76.5 237.9 L 75.9 246.0 L 77.8 242.7 L 79.3 248.4 L 79.4 239.9 L 78.4 232.7 L 80.3 229.5 L 81.5 222.6 L 81.6 214.1 L 80.9 222.1 L 81.3 230.3 L 79.3 231.0 L 78.5 238.9 L 79.0 247.2 L 79.1 238.7 L 77.4 234.5 L 78.6 227.9 L 77.8 235.7 L 79.2 241.9 L 78.4 249.7 L 80.4 247.3 L 81.8 241.0 L 80.9 233.3 L 79.2 228.5 L 79.5 236.9 L 79.7 245.3 L 80.1 237.0 L 78.0 236.5 L 77.3 228.6 L 75.6 223.5 L 77.6 226.6 L 76.5 233.9 L 78.6 232.3 L 80.1 226.5 L 82.0 229.7 L 80.4 224.3 L 78.3 223.4 L 78.8 215.2 L 78.2 207.1 L 78.2 215.6 L 77.7 207.5 L 79.3 202.1 L 77.2 200.7 L 76.0 207.6 L 74.0 206.0 L 75.1 213.3 L 74.9 221.8 L 76.6 216.6 L 75.1 210.6 L 74.9 219.0 L 77.0 218.8 L 78.7 214.0 L 80.8 213.8 L 80.5 205.5 L 79.1 199.1 L 78.8 207.4 L 80.9 207.6 L 80.5 215.9 L 81.3 223.7 L 82.3 216.1 L 84.3 216.4 L 82.4 213.7 L 82.2 205.3 L 80.9 198.6 L 79.0 195.8 L 80.6 200.8 L 79.2 206.8 L 78.7 215.0 L 80.5 211.0 L 82.2 216.2 L 82.1 207.7 L 80.1 204.6 L 81.2 197.3 L 81.1 188.8 L 79.9 181.9 L 79.4 190.1 L 81.0 195.5 L 79.5 201.1 L 80.6 194.0 L 78.7 190.4 L 79.8 183.3 L 79.9 174.9 L 81.4 180.6 L 79.8 185.9 L 81.7 182.7 L 82.9 175.8 L 84.4 181.7 L 83.3 174.3 L 85.3 171.3 L 83.6 176.4 L 82.9 184.3 L 81.1 180.2 L 83.1 182.1 L 84.4 175.5 L 85.8 181.6 L 86.0 173.2 L 85.2 181.0 L 83.4 176.5 L 83.7 184.9 L 85.0 191.3 L 87.0 193.8 L 88.4 187.6 L 87.6 179.8 L 88.9 186.4 L 90.8 189.2 L 89.9 196.7 L 91.9 194.8 L 92.1 203.2 L 94.1 201.4 L 95.6 195.5 L 94.9 187.5" stroke="#58a6ff" fill="none" stroke-width="1.5" opacity="0.8"/>
<path d="M 111.7 216.6 L 113.7 214.2 L 112.0 209.6 L 112.3 218.0 L 110.2 217.9 L 111.6 224.3 L 109.8 228.8 L 111.8 231.3 L 112.0 239.7 L 113.4 233.5 L 115.4 236.1 L 114.6 228.3 L 115.0 220.0 L 113.2 224.2 L 111.5 219.3 L 111.7 227.7 L 112.9 234.5 L 113.4 226.3 L 115.3 229.3 L 114.6 221.4 L 113.0 216.0 L 113.1 224.5 L 111.2 228.2 L 113.1 231.5 L 115.1 230.3 L 113.6 224.8 L 114.2 216.7 L 112.3 220.1 L 111.7 212.0 L 110.6 219.0 L 110.5 227.4 L 112.1 222.2 L 114.0 226.1 L 113.5 217.8 L 112.0 211.9 L 111.9 220.3 L 109.9 223.1 L 111.7 227.3 L 113.8 227.0 L 112.4 220.8 L 110.4 223.2 L 112.2 227.7 L 110.7 233.8 L 112.8 234.3 L 113.5 242.2 L 114.5 234.7 L 114.4 226.3 L 112.9 232.2 L 114.0 225.0 L 112.0 226.3 L 113.5 232.0 L 113.5 223.6 L 112.5 216.2 L 111.8 224.2 L 110.2 229.3 L 112.2 231.0 L 114.2 233.0 L 113.3 225.5 L 113.5 217.1 L 111.8 221.9 L 109.7 221.3 L 110.9 228.1 L 109.9 235.4 L 111.9 233.8 L 112.0 242.2 L 113.5 236.4 L 114.1 228.2 L 112.2 231.9 L 110.3 235.5 L 112.2 238.9 L 110.9 245.5 L 113.0 245.2 L 113.9 252.8 L 114.7 245.0 L 116.4 240.4 L 114.4 238.1 L 114.1 229.7 L 112.8 236.1 L 112.5 244.5 L 114.2 240.1 L 112.8 246.0 L 114.8 246.6 L 115.4 254.7 L 116.5 247.6 L 114.5 248.5 L 116.0 254.3 L 115.3 262.3 L 117.2 259.1 L 118.7 264.9 L 118.8 256.5 L 120.1 249.6 L 118.0 250.3 L 118.3 258.7 L 119.7 252.3 L 121.0 246.1 L 119.0 245.9 L 117.2 250.1 L 119.1 252.9 L 118.2 260.3 L 120.2 258.4 L 118.1 257.2 L 119.2 264.3 L 118.1 271.3 L 120.2 270.3 L 118.7 264.4 L 118.6 272.8 L 119.5 280.3 L 120.3 272.4 L 121.0 264.6 L 119.1 267.3 L 120.0 259.6 L 118.0 261.9 L 116.0 258.9 L 116.8 266.9 L 114.7 268.6 L 116.4 273.7 L 115.2 266.7 L 114.7 274.8 L 113.1 280.4 L 115.2 281.6 L 114.1 274.3 L 113.4 282.3 L 113.9 290.5 L 115.1 283.7 L 113.4 288.6 L 115.4 290.7 L 114.6 298.4 L 116.6 295.8 L 118.6 293.3 L 116.8 288.8 L 116.0 281.2 L 115.1 288.8 L 113.0 288.8 L 114.4 295.2 L 116.3 298.3 L 115.6 290.3 L 114.0 285.0 L 114.1 293.4 L 116.1 292.2 L 114.6 286.7 L 112.5 285.3 L 113.6 292.5 L 115.2 287.4 L 113.2 285.6 L 111.8 291.7 L 113.8 292.2 L 113.7 283.8 L 112.2 289.6 L 112.2 281.2 L 110.7 286.7 L 110.0 294.8 L 111.9 291.4 L 113.9 288.2 L 112.0 284.4 L 111.0 277.1 L 110.3 285.0 L 110.5 276.6 L 108.8 281.5 L 107.0 277.1 L 107.4 285.5 L 109.3 288.7 L 108.7 280.7 L 107.1 275.2 L 107.1 283.7 L 107.8 275.8 L 105.9 278.6 L 107.7 283.0 L 107.3 274.7 L 108.3 267.2 L 106.3 269.2 L 106.1 260.8 L 104.6 266.9 L 106.3 272.0 L 106.2 263.6 L 105.0 256.6 L 104.5 264.8 L 105.1 272.9 L 106.2 265.7 L 108.2 266.9 L 107.1 259.8 L 107.1 251.4 L 105.5 256.8 L 104.6 249.4 L 103.8 257.3 L 102.0 253.2 L 102.5 261.5 L 101.6 253.9 L 100.7 261.6 L 98.7 261.7 L 100.0 268.0 L 100.3 276.4 L 101.7 270.1 L 103.1 263.8 L 101.0 263.6 L 98.9 262.8 L 100.1 269.7 L 102.0 273.4 L 101.5 265.2 L 101.3 273.7 L 103.0 268.6 L 103.8 260.8 L 101.8 263.5 L 102.7 255.9 L 100.7 258.2 L 99.4 251.7 L 99.0 260.0 L 97.1 257.0 L 97.8 264.9 L 97.3 273.1 L 99.2 269.3 L 100.2 262.0 L 98.2 263.5 L 98.8 271.6 L 99.9 264.5 L 98.8 257.2 L 98.2 265.3 L 98.6 273.5 L 99.9 266.7 L 99.1 274.5 L 101.0 271.8 L 102.4 278.1 L 102.7 269.7 L 104.6 267.2 L 102.9 262.7 L 102.0 255.0 L 101.2 262.7 L 99.1 262.6 L 100.4 269.1 L 98.4 268.6 L 99.6 275.3 L 99.7 283.7 L 101.2 278.1 L 100.0 285.1 L 102.1 284.2 L 102.8 276.2 L 100.9 279.2 L 99.6 285.9 L 101.7 285.5 L 103.7 285.6 L 102.4 279.1 L 103.3 271.5 L 101.3 273.7 L 101.2 265.3 L 99.7 271.1 L 99.7 262.7 L 98.1 268.2 L 96.3 264.7 L 96.8 272.8 L 95.1 268.4 L 95.4 276.8 L 97.4 279.1 L 96.5 271.4 L 94.8 275.8 L 96.7 278.4 L 96.9 286.8 L 98.4 280.7 L 100.3 283.9 L 99.6 275.9 L 101.4 279.9 L 101.0 271.7 L 99.7 278.3 L 101.8 278.0 L 101.3 286.2 L 103.1 282.2 L 105.0 278.3 L 103.0 275.2 L 101.5 280.8 L 103.6 281.9 L 105.6 283.1 L 104.5 276.0 L 104.5 267.5 L 102.9 273.0 L 104.9 270.3 L 103.1 266.0 L 103.4 257.6 L 101.7 262.3 L 100.8 254.7 L 99.9 262.4 L 98.2 266.6 L 100.1 269.4 L 100.7 261.3 L 98.8 264.8 L 96.8 263.6 L 97.9 270.7 L 96.7 277.7 L 98.8 276.7 L 99.5 284.5 L 100.5 277.0 L 98.5 274.0 L 99.2 282.0 L 97.4 278.5 L 98.0 286.6 L 95.9 287.4 L 97.4 293.3 L 99.4 295.0 L 98.4 287.6 L 99.8 293.9 L 100.1 285.5 L 100.5 277.2 L 98.7 281.4 L 98.7 289.9 L 100.2 284.3 L 102.3 283.1 L 100.7 277.5 L 99.3 271.5 L 99.1 279.9 L 100.1 287.5 L 100.8 279.6 L 102.9 279.4 L 101.5 273.2 L 103.2 277.8 L 103.0 269.4 L 103.9 261.9 L 101.9 264.0 L 100.6 257.4 L 100.2 265.7 L 101.9 270.7 L 101.7 262.3 L 99.7 263.9 L 101.3 269.1 L 100.7 277.2 L 102.6 273.9 L 104.1 279.6 L 104.2 271.1 L 102.4 266.4 L 102.7 274.8 L 101.7 282.1 L 103.7 280.5 L 105.3 275.1 L 103.2 273.7 L 101.2 272.1 L 102.3 279.5 L 102.1 287.9 L 103.8 282.7 L 102.4 276.3 L 102.1 284.7 L 102.9 292.5 L 103.8 284.9 L 103.4 293.1 L 105.2 289.1 L 106.8 294.3 L 106.7 285.9 L 105.6 278.9 L 105.0 287.1 L 106.5 293.2 L 106.7 284.8 L 105.7 292.3 L 107.7 290.4 L 107.8 298.8 L 109.3 293.1 L 108.2 300.1 L 110.2 299.1 L 111.2 306.6 L 111.9 298.7 L 112.7 306.5 L 113.6 299.0 L 115.7 299.5 L 114.4 292.8 L 116.1 298.1 L 116.0 289.6 L 114.9 282.4 L 114.3 290.4 L 116.3 292.1 L 115.3 284.7 L 113.5 289.2 L 115.5 291.7 L 113.4 291.2 L 114.7 297.9 L 116.6 301.0 L 115.9 293.0 L 116.9 300.5 L 117.7 292.7 L 119.4 287.9 L 117.4 285.8 L 115.4 283.5 L 116.2 291.1 L 118.1 287.1 L 116.1 284.1 L 114.1 285.7 L 115.7 290.9 L 115.2 299.1 L 117.1 295.4 L 118.2 288.2 L 116.1 289.5 L 117.5 283.2 L 115.4 283.1 L 115.6 291.5 L 117.0 285.3 L 116.0 292.7 L 118.0 291.1 L 119.1 298.2 L 119.7 290.1 L 121.8 289.1 L 120.3 283.4 L 121.9 278.1 L 119.8 276.6 L 117.8 275.1 L 118.8 282.4 L 120.9 282.7 L 119.6 276.1 L 119.2 284.3 L 121.0 280.3 L 119.8 273.4 L 119.3 281.6 L 121.2 278.1 L 119.3 274.5 L 117.5 270.4 L 117.9 278.7 L 115.8 278.8 L 117.2 285.1 L 116.2 292.6 L 118.3 290.7 L 119.7 284.8 L 117.7 284.1 L 115.8 287.9 L 117.7 291.1 L 119.6 294.5 L 119.0 286.4 L 117.9 293.4 L 119.9 292.4 L 118.6 298.9 L 120.7 298.7 L 122.4 294.2 L 120.4 291.8 L 118.4 293.9 L 120.1 298.7 L 122.2 299.6 L 121.0 292.6 L 119.1 289.2 L 119.7 297.3 L 121.6 294.0 L 119.8 290.3 L 117.7 291.1 L 119.2 296.9 L 119.6 288.6 L 117.8 292.8 L 115.8 291.4 L 116.8 298.6 L 118.7 302.5 L 118.2 294.3 L 116.9 301.0 L 119.0 300.5 L 117.0 297.8 L 117.8 305.6 L 116.4 311.7 L 118.4 312.2 L 117.2 305.3 L 116.7 313.5 L 118.8 314.6 L 117.6 307.6 L 118.7 300.4 L 116.7 301.7 L 118.1 308.0 L 118.3 299.7 L 120.3 302.9 L 119.6 294.9 L 120.7 302.0 L 121.3 294.0 L 123.0 289.3 L 121.0 287.0 L 119.7 280.6 L 119.4 289.0 L 119.2 280.5 L 117.8 286.6 L 119.6 282.8 L 117.7 279.6 L 117.0 287.6 L 118.9 284.4 L 120.2 277.6 L 118.1 278.3 L 118.4 269.9 L 116.6 274.6 L 115.8 282.3 L 117.8 279.9 L 118.1 271.6 L 116.4 275.9 L 118.4 274.2 L 116.7 269.1 L 117.3 261.0 L 115.4 264.5 L 113.9 258.9 L 113.9 267.4 L 113.5 259.1 L 112.2 265.6 L 111.7 273.8 L 113.5 270.0 L 114.1 278.1 L 115.2 271.0 L 117.2 273.7 L 116.4 265.9 L 114.8 260.6 L 114.9 269.0 L 113.7 275.9 L 115.7 275.1 L 115.7 283.5 L 117.3 278.2 L 118.9 283.3 L 118.8 274.9 L 118.2 282.9 L 120.1 279.6 L 118.4 284.7" stroke="#a371f7" fill="none" stroke-width="1.5" opacity="0.8"/>
<circle cx="111.74802606657205" cy="216.56578853852807" r="4" fill="#f85149"/>
</svg>