<svg width="900" height="900" xmlns="http://www.w3.org/2000/svg">
<rect width="100%" height="100%" fill="#1a1a2e"/>
<text x="20" y="30" font-family="monospace" font-size="18" fill="#eee">Twin Primes: Different resonance frequencies</text>
<rect x="20" y="55" width="20" height="3" fill="#e74c3c"/>
<text x="50" y="60" font-family="monospace" font-size="12" fill="#ccc">α=0.0100</text>
<rect x="20" y="80" width="20" height="3" fill="#f39c12"/>
<text x="50" y="85" font-family="monospace" font-size="12" fill="#ccc">α=0.0200</text>
<rect x="20" y="105" width="20" height="3" fill="#2ecc71"/>
<text x="50" y="110" font-family="monospace" font-size="12" fill="#ccc">α=0.0500</text>
<rect x="20" y="130" width="20" height="3" fill="#9b59b6"/>
<text x="50" y="135" font-family="monospace" font-size="12" fill="#ccc">α=0.1667</text>
<path d="M 147.39 252.60 L 151.33 257.54 L 155.13 265.69 L 158.76 276.92 L 161.84 293.73 L 164.58 312.95 L 166.51 336.06 L 167.99 360.58 L 166.99 386.12 L 165.52 410.64 L 162.14 424.76 L 158.51 435.99 L 155.13 421.86 L 152.05 405.05 L 151.05 379.51 L 150.55 353.35 L 154.55 355.01 L 158.48 359.95 L 162.10 371.18 L 165.48 385.31 L 162.74 404.53 L 159.66 421.34 L 155.66 422.99 L 151.67 421.34 L 152.66 395.80 L 154.13 371.28 L 157.51 357.15 L 161.14 345.92 L 165.07 340.98 L 169.07 339.32 L 168.56 365.49 L 167.57 391.03 L 164.48 407.84 L 161.10 421.96 L 159.63 397.45 L 158.63 371.91 L 160.11 347.39 L 162.04 324.28 L 165.12 341.09 L 167.86 360.31 L 163.93 365.25 L 159.93 366.91 L 161.41 391.43 L 162.40 416.97 L 160.93 441.49 L 159.00 464.59 L 155.92 447.78 L 153.17 428.56 L 154.17 454.10 L 154.67 480.26 L 153.20 455.75 L 152.20 430.21 L 156.20 428.55 L 160.19 430.21 L 162.12 453.31 L 163.60 477.83 L 160.22 491.96 L 156.59 503.19 L 153.21 489.06 L 150.13 472.25 L 153.51 486.38 L 156.59 503.19 L 157.59 528.73 L 158.09 554.89 L 157.59 581.05 L 156.59 606.59 L 152.97 595.37 L 149.59 581.24 L 151.06 556.72 L 152.99 533.61 L 154.47 558.13 L 155.46 583.67 L 153.99 608.19 L 152.06 631.30 L 148.06 632.95 L 144.07 631.30 L 140.98 614.49 L 138.24 595.27 L 141.62 581.14 L 145.25 569.91 L 141.25 568.25 L 137.32 563.31 L 136.32 588.85 L 134.85 613.37 L 135.35 587.21 L 136.35 561.67 L 139.43 544.86 L 142.81 530.73 L 146.81 532.38 L 150.74 537.33 L 152.21 561.84 L 153.21 587.38 L 152.71 613.55 L 151.71 639.09 L 147.72 637.43 L 143.78 632.49 L 145.26 607.97 L 147.19 584.87 L 149.93 565.64 L 153.01 548.83 L 156.63 560.06 L 160.01 574.19 L 161.49 598.71 L 162.48 624.25 L 160.55 601.14 L 159.08 576.62 L 163.01 571.68 L 167.01 570.03 L 168.00 595.57 L 168.51 621.73 L 171.25 602.51 L 174.33 585.70 L 173.34 560.16 L 172.83 534.00 L 173.34 507.83 L 174.33 482.29 L 172.86 506.81 L 170.93 529.92 L 166.93 531.57 L 162.94 529.92 L 166.87 524.98 L 170.87 523.32 L 170.36 549.48 L 169.37 575.02 L 170.84 550.51 L 172.77 527.40 L 175.51 508.18 L 178.60 491.37 L 181.68 508.18 L 184.42 527.40 L 183.43 552.94 L 181.95 577.46 L 178.57 591.59 L 174.95 602.82 L 172.21 622.04 L 169.12 638.85 L 167.20 615.74 L 165.72 591.22 L 169.10 605.35 L 172.19 622.16 L 169.10 638.97 L 165.72 653.10 L 167.20 628.58 L 169.12 605.47 L 165.13 607.13 L 161.13 605.47 L 164.51 591.34 L 168.14 580.11 L 164.51 568.89 L 161.13 554.76 L 163.87 535.53 L 166.96 518.73 L 170.04 535.53 L 172.78 554.76 L 171.79 580.30 L 170.31 604.82 L 173.40 588.01 L 176.78 573.88 L 180.78 575.53 L 184.71 580.48 L 183.23 555.96 L 182.24 530.42 L 186.23 528.76 L 190.23 530.42 L 191.70 554.93 L 192.70 580.48 L 190.77 557.37 L 189.30 532.85 L 185.30 531.19 L 181.37 526.25 L 177.75 515.02 L 174.37 500.90 L 178.36 499.24 L 182.36 500.90 L 181.36 526.44 L 179.89 550.95 L 176.51 536.82 L 173.42 520.02 L 172.43 494.47 L 171.93 468.31 L 175.01 451.50 L 178.39 437.37 L 175.31 420.57 L 172.56 401.34 L 170.64 378.24 L 169.16 353.72 L 168.66 379.88 L 167.66 405.42 L 164.58 422.23 L 161.20 436.36 L 157.58 425.13 L 154.20 411.00 L 155.67 386.48 L 157.60 363.38 L 156.60 337.83 L 156.10 311.67 L 154.17 288.56 L 152.70 264.05 L 153.70 289.59 L 154.20 315.75 L 150.20 314.09 L 146.27 309.15 L 148.20 332.26 L 149.67 356.78 L 148.68 382.32 L 147.20 406.84 L 151.20 408.49 L 155.13 413.43 L 156.60 437.95 L 157.60 463.49 L 153.60 465.15 L 149.61 463.49 L 152.99 449.36 L 156.61 438.14 L 156.11 464.30 L 155.11 489.84 L 151.49 478.61 L 148.11 464.48 L 150.04 487.59 L 151.51 512.11 L 150.52 537.65 L 149.04 562.17 L 145.66 576.30 L 142.04 587.52 L 138.66 573.40 L 135.58 556.59 L 134.58 531.05 L 134.08 504.88 L 131.34 524.11 L 128.25 540.91 L 129.25 566.46 L 129.75 592.62 L 131.22 568.10 L 133.15 544.99 L 135.08 568.10 L 136.56 592.62 L 132.62 597.56 L 128.63 599.21 L 125.89 618.44 L 122.80 635.25 L 118.81 636.90 L 114.81 635.25 L 115.81 660.79 L 116.31 686.95 L 119.05 667.73 L 122.13 650.92 L 126.13 649.26 L 130.13 650.92 L 128.65 675.44 L 126.72 698.54 L 124.79 675.44 L 123.32 650.92 L 126.70 665.05 L 129.79 681.86 L 130.78 707.40 L 131.28 733.56 L 135.28 731.90 L 139.27 733.56 L 137.80 758.08 L 135.87 781.18 L 136.87 755.64 L 138.34 731.13 L 140.27 754.23 L 141.74 778.75 L 138.36 792.88 L 134.74 804.11 L 135.24 777.95 L 136.24 752.41 L 140.23 754.06 L 144.17 759.00 L 145.64 783.52 L 146.64 809.06 L 143.55 825.87 L 140.17 840.00 L 136.17 838.34 L 132.24 833.40 L 128.62 822.18 L 125.24 808.05 L 121.86 822.18 L 118.24 833.40 L 114.24 835.06 L 110.25 833.40 L 108.32 810.30 L 106.84 785.78 L 107.84 760.24 L 109.31 735.72 L 112.40 718.91 L 115.78 704.78 L 114.30 729.30 L 112.38 752.41 L 116.31 747.46 L 120.30 745.81 L 118.83 721.29 L 117.83 695.75 L 121.83 694.09 L 125.82 695.75 L 122.44 681.62 L 119.36 664.81 L 115.36 666.47 L 111.37 664.81 L 107.37 663.16 L 103.44 658.21 L 101.97 633.70 L 100.97 608.16 L 97.59 594.03 L 94.51 577.22 L 97.59 560.41 L 100.97 546.28 L 104.97 547.93 L 108.90 552.88 L 105.81 536.07 L 103.07 516.84 L 104.07 491.30 L 105.54 466.79 L 108.92 452.66 L 112.55 441.43 L 112.04 467.59 L 111.05 493.13 L 109.58 468.61 L 108.58 443.07 L 104.65 448.01 L 100.65 449.67 L 97.27 435.54 L 94.19 418.73 L 93.68 444.89 L 92.69 470.43 L 95.77 487.24 L 98.51 506.46 L 102.14 517.69 L 105.52 531.82 L 104.04 556.34 L 102.11 579.45 L 98.12 581.10 L 94.12 579.45 L 90.50 568.22 L 87.12 554.09 L 89.86 534.87 L 92.95 518.06 L 89.01 523.00 L 85.02 524.66 L 81.64 510.53 L 78.55 493.72 L 81.64 476.91 L 85.02 462.78 L 81.40 451.55 L 78.01 437.42 L 78.52 411.26 L 79.51 385.72 L 75.52 387.38 L 71.52 385.72" stroke="#e74c3c" fill="none" stroke-width="1.5" opacity="0.85"/>
<path d="M 147.39 252.60 L 151.12 262.31 L 154.36 277.81 L 156.91 298.13 L 157.66 324.03 L 157.41 350.35 L 155.26 372.61 L 152.34 390.66 L 148.83 377.96 L 145.92 359.91 L 147.62 336.05 L 150.17 315.73 L 151.88 339.59 L 152.63 365.49 L 149.12 378.20 L 145.24 384.75 L 149.21 388.06 L 152.94 397.77 L 155.49 418.08 L 157.19 441.94 L 156.94 415.63 L 157.69 389.72 L 161.66 386.42 L 165.64 389.72 L 162.13 377.02 L 159.21 358.97 L 160.91 335.11 L 163.47 314.79 L 167.19 305.08 L 171.16 301.78 L 167.28 295.22 L 163.77 282.52 L 164.52 256.61 L 166.23 232.75 L 163.31 250.81 L 159.80 263.51 L 156.88 245.46 L 154.74 223.19 L 155.49 249.10 L 155.24 275.41 L 158.96 265.71 L 162.93 262.40 L 160.01 280.45 L 156.50 293.16 L 153.59 275.11 L 151.44 252.84 L 152.19 278.74 L 151.94 305.06 L 148.43 317.76 L 144.55 324.32 L 141.63 342.37 L 138.13 355.08 L 142.10 351.77 L 146.07 355.08 L 143.93 377.34 L 141.01 395.39 L 142.71 371.53 L 145.26 351.22 L 146.97 375.08 L 147.72 400.98 L 149.42 424.84 L 150.17 450.74 L 146.66 463.44 L 142.79 470.00 L 138.91 463.44 L 135.40 450.74 L 137.95 471.06 L 139.66 494.92 L 136.74 476.87 L 134.59 454.60 L 131.68 472.65 L 128.17 485.36 L 125.25 467.31 L 123.10 445.04 L 127.08 441.74 L 131.05 445.04 L 131.80 470.94 L 131.55 497.26 L 133.25 473.40 L 135.80 453.08 L 139.77 456.39 L 143.50 466.10 L 139.99 453.39 L 137.07 435.34 L 133.19 428.78 L 129.68 416.08 L 130.43 390.18 L 132.14 366.32 L 136.11 369.62 L 139.83 379.33 L 136.91 397.38 L 133.41 410.08 L 129.53 403.53 L 126.02 390.82 L 129.99 394.13 L 133.71 403.83 L 130.80 385.78 L 128.65 363.52 L 128.40 337.20 L 129.15 311.30 L 131.70 331.62 L 133.41 355.48 L 130.49 373.53 L 126.98 386.23 L 124.83 408.50 L 121.92 426.55 L 125.64 416.84 L 129.61 413.54 L 126.10 426.24 L 122.22 432.80 L 121.97 406.48 L 122.72 380.58 L 119.22 393.28 L 115.34 399.84 L 111.46 393.28 L 107.95 380.58 L 105.03 362.53 L 102.89 340.26 L 106.86 336.96 L 110.83 340.26 L 114.55 330.55 L 118.53 327.25 L 114.65 320.69 L 111.14 307.99 L 108.22 289.94 L 106.08 267.67 L 105.82 241.35 L 106.58 215.45 L 107.33 241.35 L 107.07 267.67 L 103.57 254.97 L 100.65 236.92 L 102.35 213.06 L 104.90 192.74 L 104.65 166.42 L 105.40 140.52 L 103.26 162.78 L 100.34 180.83 L 102.04 204.69 L 102.79 230.60 L 103.54 204.69 L 105.25 180.83 L 102.33 162.78 L 100.18 140.52 L 104.16 137.21 L 108.13 140.52 L 109.83 116.66 L 112.39 96.34 L 114.94 116.66 L 116.64 140.52 L 116.39 114.20 L 117.14 88.30 L 117.89 114.20 L 117.64 140.52 L 114.13 127.81 L 111.21 109.76 L 111.96 83.86 L 113.67 60.00 L 117.64 63.30 L 121.36 73.01 L 118.44 91.06 L 114.94 103.77 L 118.91 100.46 L 122.88 103.77 L 119.96 121.82 L 116.45 134.52 L 114.31 156.79 L 111.39 174.84 L 115.36 178.14 L 119.08 187.85 L 121.63 208.17 L 123.34 232.03 L 127.31 228.72 L 131.28 232.03 L 127.77 219.33 L 124.86 201.27 L 126.56 225.13 L 127.31 251.04 L 123.80 263.74 L 119.93 270.30 L 120.68 244.40 L 122.38 220.54 L 123.13 246.44 L 122.88 272.76 L 120.73 295.02 L 117.82 313.07 L 113.94 306.51 L 110.43 293.81 L 111.18 267.91 L 112.88 244.05 L 115.44 264.37 L 117.14 288.23 L 114.22 270.17 L 112.08 247.91 L 108.57 260.61 L 104.69 267.17 L 102.55 289.44 L 99.63 307.49 L 96.12 320.19 L 92.24 326.75 L 96.21 330.05 L 99.94 339.76 L 97.79 362.03 L 94.87 380.08 L 91.36 367.37 L 88.45 349.32 L 92.42 352.63 L 96.14 362.33 L 93.22 380.39 L 89.71 393.09 L 93.68 389.78 L 97.66 393.09 L 99.36 369.23 L 101.91 348.91 L 98.04 342.35 L 94.53 329.65 L 97.08 349.97 L 98.78 373.83 L 96.64 396.09 L 93.72 414.14 L 90.21 401.44 L 87.29 383.39 L 89.00 359.53 L 91.55 339.21 L 93.25 363.07 L 94.00 388.97 L 90.50 401.68 L 86.62 408.23 L 86.37 381.92 L 87.12 356.01 L 83.61 368.72 L 79.73 375.28 L 76.81 357.22 L 74.67 334.96 L 72.52 357.22 L 69.60 375.28 L 73.33 365.57 L 77.30 362.26 L 77.05 335.95 L 77.80 310.04 L 81.77 306.74 L 85.74 310.04 L 82.23 322.75 L 78.36 329.30 L 78.10 302.99 L 78.85 277.08 L 82.83 273.78 L 86.80 277.08 L 83.88 259.03 L 81.73 236.77 L 79.59 259.03 L 76.67 277.08 L 78.38 300.94 L 79.13 326.85 L 75.62 339.55 L 71.74 346.11 L 75.71 342.80 L 79.68 346.11 L 76.76 328.06 L 74.62 305.79 L 71.11 293.09 L 68.19 275.04 L 66.05 297.30 L 63.13 315.35 L 64.83 291.49 L 67.39 271.18 L 63.51 264.62 L 60.00 251.91 L 63.97 255.22 L 67.69 264.93 L 64.78 282.98 L 61.27 295.68 L 62.02 269.78 L 63.72 245.92 L 67.69 249.22 L 71.42 258.93 L 73.97 279.25 L 75.67 303.11 L 77.38 279.25 L 79.93 258.93 L 83.90 255.63 L 87.87 258.93 L 85.73 281.20 L 82.81 299.25 L 79.30 286.54 L 76.38 268.49 L 77.13 242.59 L 78.84 218.73 L 75.92 200.68 L 73.77 178.41 L 77.50 168.71 L 81.47 165.40 L 78.55 183.45 L 75.04 196.16 L 79.01 192.85 L 82.99 196.16 L 84.69 220.02 L 85.44 245.92 L 89.41 242.61 L 93.38 245.92 L 97.36 249.22 L 101.08 258.93 L 98.16 276.98 L 94.65 289.69 L 96.36 313.55 L 97.11 339.45 L 97.86 313.55 L 99.56 289.69 L 103.53 292.99 L 107.26 302.70 L 108.01 328.60 L 107.75 354.92 L 104.25 342.22 L 101.33 324.16 L 103.03 300.30 L 105.58 279.99 L 101.71 273.43 L 98.20 260.72 L 95.28 278.78 L 91.77 291.48 L 95.49 281.77 L 99.47 278.47 L 101.17 302.33 L 101.92 328.23 L 98.04 321.67 L 94.53 308.97 L 95.29 334.87 L 95.03 361.19 L 97.59 381.51 L 99.29 405.37 L 96.37 387.31 L 94.23 365.05 L 98.20 361.75 L 102.17 365.05 L 104.72 385.37 L 106.43 409.23 L 106.18 382.91 L 106.93 357.01 L 110.65 347.30 L 114.62 344.00 L 116.32 367.86 L 117.07 393.76 L 117.83 367.86 L 119.53 344.00 L 122.08 364.31 L 123.79 388.17 L 119.91 381.62 L 116.40 368.91 L 120.37 365.61 L 124.34 368.91" stroke="#f39c12" fill="none" stroke-width="1.5" opacity="0.85"/>
<path d="M 147.39 252.60 L 149.75 273.94 L 149.75 300.30 L 147.39 321.64 L 143.59 313.49 L 141.23 292.16 L 143.59 270.82 L 147.39 262.67 L 143.59 270.82 L 139.78 262.67 L 143.59 270.82 L 145.94 292.16 L 149.75 284.01 L 153.56 292.16 L 149.75 284.01 L 147.39 262.67 L 151.20 270.82 L 153.56 292.16 L 151.20 313.49 L 147.39 321.64 L 149.75 300.30 L 153.56 292.16 L 149.75 300.30 L 145.94 292.16 L 149.75 284.01 L 153.56 292.16 L 149.75 284.01 L 147.39 262.67 L 149.75 241.34 L 153.56 233.19 L 151.20 254.53 L 147.39 262.67 L 151.20 254.53 L 155.01 262.67 L 151.20 270.82 L 147.39 262.67 L 151.20 270.82 L 153.56 292.16 L 149.75 284.01 L 147.39 262.67 L 145.04 284.01 L 141.23 292.16 L 145.04 284.01 L 148.85 292.16 L 145.04 284.01 L 142.69 262.67 L 146.50 270.82 L 148.85 292.16 L 152.66 300.30 L 155.01 321.64 L 151.20 329.79 L 147.39 321.64 L 151.20 313.49 L 155.01 321.64 L 157.36 300.30 L 161.17 292.16 L 164.98 300.30 L 167.33 321.64 L 171.14 313.49 L 174.95 321.64 L 171.14 329.79 L 167.33 321.64 L 171.14 329.79 L 173.49 351.12 L 171.14 372.45 L 167.33 380.60 L 169.68 359.27 L 173.49 351.12 L 177.30 359.27 L 179.65 380.60 L 183.46 372.45 L 187.27 380.60 L 183.46 372.45 L 181.11 351.12 L 177.30 359.27 L 173.49 351.12 L 177.30 359.27 L 179.65 380.60 L 175.85 372.45 L 173.49 351.12 L 169.68 342.97 L 167.33 321.64 L 163.52 329.79 L 159.72 321.64 L 162.07 300.30 L 165.88 292.16 L 162.07 300.30 L 158.26 292.16 L 162.07 300.30 L 164.42 321.64 L 168.23 313.49 L 172.04 321.64 L 169.68 342.97 L 165.88 351.12 L 162.07 342.97 L 159.72 321.64 L 163.52 329.79 L 165.88 351.12 L 163.52 372.45 L 159.72 380.60 L 157.36 401.94 L 153.56 410.08 L 157.36 401.94 L 161.17 410.08 L 158.82 431.42 L 155.01 439.57 L 157.36 418.23 L 161.17 410.08 L 164.98 418.23 L 167.33 439.57 L 164.98 460.90 L 161.17 469.05 L 157.36 460.90 L 155.01 439.57 L 157.36 418.23 L 161.17 410.08 L 157.36 401.94 L 155.01 380.60 L 151.20 388.75 L 147.39 380.60 L 149.75 359.27 L 153.56 351.12 L 151.20 372.45 L 147.39 380.60 L 151.20 388.75 L 153.56 410.08 L 151.20 431.42 L 147.39 439.57 L 143.59 431.42 L 141.23 410.08 L 137.43 418.23 L 133.62 410.08 L 137.43 418.23 L 139.78 439.57 L 142.13 418.23 L 145.94 410.08 L 143.59 431.42 L 139.78 439.57 L 135.97 447.72 L 132.16 439.57 L 135.97 431.42 L 139.78 439.57 L 143.59 447.72 L 145.94 469.05 L 142.13 477.20 L 138.33 469.05 L 134.52 460.90 L 132.16 439.57 L 134.52 418.23 L 138.33 410.08 L 135.97 431.42 L 132.16 439.57 L 128.36 431.42 L 126.00 410.08 L 122.20 418.23 L 118.39 410.08 L 114.58 418.23 L 110.77 410.08 L 114.58 418.23 L 116.93 439.57 L 113.13 447.72 L 109.32 439.57 L 113.13 431.42 L 116.93 439.57 L 120.74 431.42 L 124.55 439.57 L 122.20 460.90 L 118.39 469.05 L 114.58 460.90 L 112.23 439.57 L 114.58 418.23 L 118.39 410.08 L 122.20 401.94 L 126.00 410.08 L 122.20 418.23 L 118.39 410.08 L 122.20 401.94 L 126.00 410.08 L 122.20 401.94 L 119.84 380.60 L 116.04 388.75 L 112.23 380.60 L 116.04 388.75 L 118.39 410.08 L 116.04 431.42 L 112.23 439.57 L 109.87 460.90 L 106.07 469.05 L 109.87 460.90 L 113.68 469.05 L 116.04 447.72 L 119.84 439.57 L 123.65 447.72 L 126.00 469.05 L 122.20 460.90 L 119.84 439.57 L 117.49 460.90 L 113.68 469.05 L 117.49 477.20 L 119.84 498.53 L 116.04 490.38 L 113.68 469.05 L 116.04 447.72 L 119.84 439.57 L 116.04 447.72 L 112.23 439.57 L 116.04 447.72 L 118.39 469.05 L 122.20 460.90 L 126.00 469.05 L 122.20 477.20 L 118.39 469.05 L 114.58 460.90 L 112.23 439.57 L 109.87 460.90 L 106.07 469.05 L 108.42 447.72 L 112.23 439.57 L 114.58 418.23 L 118.39 410.08 L 114.58 418.23 L 110.77 410.08 L 114.58 418.23 L 116.93 439.57 L 120.74 431.42 L 124.55 439.57 L 120.74 431.42 L 118.39 410.08 L 120.74 388.75 L 124.55 380.60 L 128.36 388.75 L 130.71 410.08 L 134.52 418.23 L 136.87 439.57 L 139.22 418.23 L 143.03 410.08 L 140.68 431.42 L 136.87 439.57 L 139.22 418.23 L 143.03 410.08 L 139.22 418.23 L 135.42 410.08 L 139.22 418.23 L 141.58 439.57 L 139.22 460.90 L 135.42 469.05 L 139.22 460.90 L 143.03 469.05 L 139.22 460.90 L 136.87 439.57 L 134.52 460.90 L 130.71 469.05 L 126.90 477.20 L 123.10 469.05 L 126.90 477.20 L 129.26 498.53 L 133.06 490.38 L 136.87 498.53 L 133.06 490.38 L 130.71 469.05 L 134.52 460.90 L 138.33 469.05 L 140.68 447.72 L 144.49 439.57 L 148.29 447.72 L 150.65 469.05 L 153.00 447.72 L 156.81 439.57 L 160.62 447.72 L 162.97 469.05 L 166.78 460.90 L 170.58 469.05 L 174.39 460.90 L 178.20 469.05 L 174.39 460.90 L 172.04 439.57 L 174.39 418.23 L 178.20 410.08 L 182.01 418.23 L 184.36 439.57 L 180.55 447.72 L 176.74 439.57 L 174.39 460.90 L 170.58 469.05 L 174.39 460.90 L 178.20 469.05 L 174.39 477.20 L 170.58 469.05 L 166.78 460.90 L 164.42 439.57 L 166.78 418.23 L 170.58 410.08 L 166.78 418.23 L 162.97 410.08 L 166.78 401.94 L 170.58 410.08 L 174.39 401.94 L 178.20 410.08 L 174.39 418.23 L 170.58 410.08 L 166.78 401.94 L 164.42 380.60 L 160.62 388.75 L 156.81 380.60 L 160.62 372.45 L 164.42 380.60 L 160.62 388.75 L 156.81 380.60 L 160.62 388.75 L 162.97 410.08 L 166.78 418.23 L 169.13 439.57 L 172.94 431.42 L 176.74 439.57 L 172.94 431.42 L 170.58 410.08 L 168.23 431.42 L 164.42 439.57 L 160.62 447.72 L 156.81 439.57 L 154.45 460.90 L 150.65 469.05 L 154.45 460.90 L 158.26 469.05 L 155.91 490.38 L 152.10 498.53 L 148.29 490.38 L 145.94 469.05 L 143.59 490.38 L 139.78 498.53 L 135.97 490.38 L 133.62 469.05 L 129.81 477.20 L 126.00 469.05 L 128.36 447.72 L 132.16 439.57 L 129.81 460.90 L 126.00 469.05 L 123.65 490.38 L 119.84 498.53 L 123.65 490.38 L 127.46 498.53 L 123.65 506.68 L 119.84 498.53 L 122.20 477.20 L 126.00 469.05 L 128.36 447.72 L 132.16 439.57 L 128.36 447.72 L 124.55 439.57" stroke="#2ecc71" fill="none" stroke-width="1.5" opacity="0.85"/>
<path d="M 147.39 252.60 L 143.39 252.60 L 145.39 229.76 L 147.39 252.60 L 149.40 229.76 L 151.40 252.60 L 153.40 229.76 L 155.40 252.60 L 157.40 229.76 L 159.41 252.60 L 161.41 229.76 L 163.41 252.60 L 165.41 229.76 L 167.41 252.60 L 169.41 229.76 L 171.42 252.60 L 173.42 229.76 L 175.42 252.60 L 177.42 229.76 L 179.42 252.60 L 181.42 229.76 L 183.43 252.60 L 185.43 229.76 L 187.43 252.60 L 189.43 229.76 L 191.43 252.60 L 193.44 229.76 L 195.44 252.60 L 197.44 229.76 L 199.44 252.60 L 201.44 229.76 L 203.44 252.60 L 205.45 229.76 L 207.45 252.60 L 209.45 229.76 L 211.45 252.60 L 213.45 229.76 L 215.45 252.60 L 217.46 229.76 L 219.46 252.60 L 221.46 229.76 L 223.46 252.60 L 225.46 229.76 L 227.46 252.60 L 229.47 229.76 L 231.47 252.60 L 233.47 229.76 L 235.47 252.60 L 237.47 229.76 L 239.48 252.60 L 241.48 229.76 L 243.48 252.60 L 245.48 229.76 L 247.48 252.60 L 249.48 229.76 L 251.49 252.60 L 253.49 229.76 L 255.49 252.60 L 257.49 229.76 L 259.49 252.60 L 261.49 229.76 L 263.50 252.60 L 265.50 229.76 L 267.50 252.60 L 269.50 229.76 L 271.50 252.60 L 273.51 229.76 L 275.51 252.60 L 277.51 229.76 L 279.51 252.60 L 281.51 229.76 L 283.51 252.60 L 285.52 229.76 L 287.52 252.60 L 289.52 229.76 L 291.52 252.60 L 293.52 229.76 L 295.52 252.60 L 297.53 229.76 L 299.53 252.60 L 301.53 229.76 L 303.53 252.60 L 305.53 229.76 L 307.53 252.60 L 309.54 229.76 L 311.54 252.60 L 313.54 229.76 L 315.54 252.60 L 317.54 229.76 L 319.55 252.60 L 321.55 229.76 L 323.55 252.60 L 325.55 229.76 L 327.55 252.60 L 329.55 229.76 L 331.56 252.60 L 333.56 229.76 L 335.56 252.60 L 337.56 229.76 L 339.56 252.60 L 341.56 229.76 L 343.57 252.60 L 345.57 229.76 L 347.57 252.60 L 349.57 229.76 L 351.57 252.60 L 353.57 229.76 L 355.58 252.60 L 357.58 229.76 L 359.58 252.60 L 361.58 229.76 L 363.58 252.60 L 365.59 229.76 L 367.59 252.60 L 369.59 229.76 L 371.59 252.60 L 373.59 229.76 L 375.59 252.60 L 377.60 229.76 L 379.60 252.60 L 381.60 229.76 L 383.60 252.60 L 385.60 229.76 L 387.60 252.60 L 389.61 229.76 L 391.61 252.60 L 393.61 229.76 L 395.61 252.60 L 397.61 229.76 L 399.62 252.60 L 401.62 229.76 L 403.62 252.60 L 405.62 229.76 L 407.62 252.60 L 409.62 229.76 L 411.63 252.60 L 413.63 229.76 L 415.63 252.60 L 417.63 229.76 L 419.63 252.60 L 421.63 229.76 L 423.64 252.60 L 425.64 229.76 L 427.64 252.60 L 429.64 229.76 L 431.64 252.60 L 433.64 229.76 L 435.65 252.60 L 437.65 229.76 L 439.65 252.60 L 441.65 229.76 L 443.65 252.60 L 445.66 229.76 L 447.66 252.60 L 449.66 229.76 L 451.66 252.60 L 453.66 229.76 L 455.66 252.60 L 457.67 229.76 L 459.67 252.60 L 461.67 229.76 L 463.67 252.60 L 465.67 229.76 L 467.67 252.60 L 469.68 229.76 L 471.68 252.60 L 473.68 229.76 L 475.68 252.60 L 477.68 229.76 L 479.69 252.60 L 481.69 229.76 L 483.69 252.60 L 485.69 229.76 L 487.69 252.60 L 489.69 229.76 L 491.70 252.60 L 493.70 229.76 L 495.70 252.60 L 497.70 229.76 L 499.70 252.60 L 501.70 229.76 L 503.71 252.60 L 505.71 229.76 L 507.71 252.60 L 509.71 229.76 L 511.71 252.60 L 513.71 229.76 L 515.72 252.60 L 517.72 229.76 L 519.72 252.60 L 521.72 229.76 L 523.72 252.60 L 525.73 229.76 L 527.73 252.60 L 529.73 229.76 L 531.73 252.60 L 533.73 229.76 L 535.73 252.60 L 537.74 229.76 L 539.74 252.60 L 541.74 229.76 L 543.74 252.60 L 545.74 229.76 L 547.74 252.60 L 549.75 229.76 L 551.75 252.60 L 553.75 229.76 L 555.75 252.60 L 557.75 229.76 L 559.76 252.60 L 561.76 229.76 L 563.76 252.60 L 565.76 229.76 L 567.76 252.60 L 569.76 229.76 L 571.77 252.60 L 573.77 229.76 L 575.77 252.60 L 577.77 229.76 L 579.77 252.60 L 581.77 229.76 L 583.78 252.60 L 585.78 229.76 L 587.78 252.60 L 589.78 229.76 L 591.78 252.60 L 593.78 229.76 L 595.79 252.60 L 597.79 229.76 L 599.79 252.60 L 601.79 229.76 L 603.79 252.60 L 605.80 229.76 L 607.80 252.60 L 609.80 229.76 L 611.80 252.60 L 613.80 229.76 L 615.80 252.60 L 617.81 229.76 L 619.81 252.60 L 621.81 229.76 L 623.81 252.60 L 625.81 229.76 L 627.81 252.60 L 629.82 229.76 L 631.82 252.60 L 633.82 229.76 L 635.82 252.60 L 637.82 229.76 L 639.83 252.60 L 641.83 229.76 L 643.83 252.60 L 645.83 229.76 L 647.83 252.60 L 649.83 229.76 L 651.84 252.60 L 653.84 229.76 L 655.84 252.60 L 657.84 229.76 L 659.84 252.60 L 661.84 229.76 L 663.85 252.60 L 665.85 229.76 L 667.85 252.60 L 669.85 229.76 L 671.85 252.60 L 673.85 229.76 L 675.86 252.60 L 677.86 229.76 L 679.86 252.60 L 681.86 229.76 L 683.86 252.60 L 685.87 229.76 L 687.87 252.60 L 689.87 229.76 L 691.87 252.60 L 693.87 229.76 L 695.87 252.60 L 697.88 229.76 L 699.88 252.60 L 701.88 229.76 L 703.88 252.60 L 705.88 229.76 L 707.88 252.60 L 709.89 229.76 L 711.89 252.60 L 713.89 229.76 L 715.89 252.60 L 717.89 229.76 L 719.90 252.60 L 721.90 229.76 L 723.90 252.60 L 725.90 229.76 L 727.90 252.60 L 729.90 229.76 L 731.91 252.60 L 733.91 229.76 L 735.91 252.60 L 737.91 229.76 L 739.91 252.60 L 741.91 229.76 L 743.92 252.60 L 745.92 229.76 L 747.92 252.60 L 749.92 229.76 L 751.92 252.60 L 753.92 229.76 L 755.93 252.60 L 757.93 229.76 L 759.93 252.60 L 761.93 229.76 L 763.93 252.60 L 765.94 229.76 L 767.94 252.60 L 769.94 229.76 L 771.94 252.60 L 773.94 229.76 L 775.94 252.60 L 777.95 229.76 L 779.95 252.60 L 781.95 229.76 L 783.95 252.60 L 785.95 229.76 L 787.95 252.60 L 789.96 229.76 L 791.96 252.60 L 793.96 229.76 L 795.96 252.60 L 797.96 229.76 L 799.97 252.60 L 801.97 229.76 L 803.97 252.60 L 805.97 229.76 L 807.97 252.60 L 809.97 229.76 L 811.98 252.60 L 813.98 229.76 L 815.98 252.60 L 817.98 229.76 L 819.98 252.60 L 821.98 229.76 L 823.99 252.60 L 825.99 229.76 L 827.99 252.60 L 829.99 229.76 L 831.99 252.60 L 833.99 229.76 L 836.00 252.60 L 838.00 229.76 L 840.00 252.60" stroke="#9b59b6" fill="none" stroke-width="1.5" opacity="0.85"/>
<circle cx="147.39481544950996" cy="252.60152013325015" r="5" fill="#ff6b6b"/>
</svg>